SplineFontDB: 3.2
FontName: Kilroy6-Bold
FullName: Kilroy6 Bold
FamilyName: Kilroy6
Weight: Bold
Copyright: Copyright 2020 The Roboto Serif Project Authors (https://github.com/googlefonts/RobotoSerif) OFL
Version: 1.008
ItalicAngle: 0
UnderlinePosition: -200
UnderlineWidth: 100
Ascent: 800
Descent: 200
InvalidEm: 0
sfntRevision: 0x0001020c
LayerCount: 2
Layer: 0 1 "Back" 1
Layer: 1 1 "Fore" 0
XUID: [1021 1018 -1064020043 11107]
StyleMap: 0x0020
FSType: 0
OS2Version: 4
OS2_WeightWidthSlopeOnly: 0
OS2_UseTypoMetrics: 1
CreationTime: 1586430965
ModificationTime: 1752118665
PfmFamily: 81
TTFWeight: 700
TTFWidth: 4
LineGap: 0
VLineGap: 0
Panose: 0 0 0 0 0 0 0 0 0 0
OS2TypoAscent: 927
OS2TypoAOffset: 0
OS2TypoDescent: -244
OS2TypoDOffset: 0
OS2TypoLinegap: 0
OS2WinAscent: 1048
OS2WinAOffset: 0
OS2WinDescent: 251
OS2WinDOffset: 0
HheadAscent: 927
HheadAOffset: 0
HheadDescent: -244
HheadDOffset: 0
OS2SubXSize: 650
OS2SubYSize: 600
OS2SubXOff: 0
OS2SubYOff: 75
OS2SupXSize: 650
OS2SupYSize: 600
OS2SupXOff: 0
OS2SupYOff: 350
OS2StrikeYSize: 100
OS2StrikeYPos: 311
OS2CapHeight: 710
OS2XHeight: 518
OS2Vendor: 'COMM'
OS2CodePages: 20000193.00000000
OS2UnicodeRanges: a10000ef.4000267a.00000000.00000000
Lookup: 5 0 0 "'locl' Localized Forms in Latin lookup 0" { "'locl' Localized Forms in Latin lookup 0 subtable"  } ['locl' ('latn' <'AZE ' 'CRT ' 'TRK ' > ) ]
Lookup: 1 0 0 "Single Substitution lookup 1" { "Single Substitution lookup 1 subtable"  } []
Lookup: 5 0 0 "'locl' Localized Forms in Latin lookup 2" { "'locl' Localized Forms in Latin lookup 2 subtable"  } ['locl' ('latn' <'PLK ' > ) ]
Lookup: 1 0 0 "Single Substitution lookup 3" { "Single Substitution lookup 3 subtable"  } []
Lookup: 6 0 0 "'locl' Localized Forms in Latin lookup 4" { "'locl' Localized Forms in Latin lookup 4 subtable"  } ['locl' ('latn' <'CAT ' > ) ]
Lookup: 4 0 0 "Ligature Substitution lookup 5" { "Ligature Substitution lookup 5 subtable"  } []

StartChar: .notdef
Encoding: 256 -1 0
Width: 400
GlyphClass: 1
Flags: W
LayerCount: 2
Fore
SplineSet
0 0 m 1,0,-1
 0 700 l 1,1,-1
 400 700 l 1,2,-1
 400 0 l 1,3,-1
 0 0 l 1,0,-1
50 650 m 1,4,-1
 50 50 l 1,5,-1
 350 50 l 1,6,-1
 350 650 l 1,7,-1
 50 650 l 1,4,-1
EndSplineSet
EndChar

StartChar: A
Encoding: 65 65 4
Width: 747
GlyphClass: 2
Flags: W
AnchorPoint: "Anchor-2" 591 0 basechar 0
AnchorPoint: "Anchor-1" 373 0 basechar 0
AnchorPoint: "Anchor-0" 373 721 basechar 0
LayerCount: 2
Fore
SplineSet
183 299 m 1,0,-1
 458 299 l 1,1,-1
 464 224 l 1,2,-1
 177 224 l 1,3,-1
 183 299 l 1,0,-1
306 654 m 1,4,-1
 331 628 l 1,5,-1
 163 96 l 2,6,7
 163 90 163 90 171.5 85 c 128,-1,8
 180 80 180 80 195 77.5 c 128,-1,9
 210 75 210 75 229 75 c 2,10,-1
 240 75 l 1,11,-1
 240 0 l 1,12,-1
 17 0 l 1,13,-1
 17 75 l 1,14,-1
 22 75 l 2,15,16
 46 75 46 75 61 86 c 128,-1,17
 76 97 76 97 86 129 c 2,18,-1
 273 714 l 1,19,-1
 472 714 l 1,20,-1
 662 121 l 2,21,22
 671 94 671 94 686.5 84.5 c 128,-1,23
 702 75 702 75 725 75 c 2,24,-1
 730 75 l 1,25,-1
 730 0 l 1,26,-1
 403 0 l 1,27,-1
 403 75 l 1,28,-1
 416 75 l 2,29,30
 436 75 436 75 451 76.5 c 128,-1,31
 466 78 466 78 474.5 80.5 c 128,-1,32
 483 83 483 83 483 86 c 2,33,-1
 306 654 l 1,4,-1
EndSplineSet
EndChar

StartChar: B
Encoding: 66 66 11
Width: 744
GlyphClass: 2
Flags: W
AnchorPoint: "Anchor-0" 319 741 basechar 0
LayerCount: 2
Fore
SplineSet
423 710 m 2,0,1
 484 710 484 710 530.5 699.5 c 128,-1,2
 577 689 577 689 608 667.5 c 128,-1,3
 639 646 639 646 655 613.5 c 128,-1,4
 671 581 671 581 671 538 c 0,5,6
 671 485 671 485 645 449 c 128,-1,7
 619 413 619 413 571 395 c 128,-1,8
 523 377 523 377 456 373 c 1,9,-1
 481 398 l 1,10,-1
 481 347 l 1,11,-1
 460 376 l 1,12,13
 534 372 534 372 587.5 351.5 c 128,-1,14
 641 331 641 331 670.5 293.5 c 128,-1,15
 700 256 700 256 700 198 c 0,16,17
 700 149 700 149 682.5 112 c 128,-1,18
 665 75 665 75 630.5 50 c 128,-1,19
 596 25 596 25 546 12.5 c 128,-1,20
 496 0 496 0 431 0 c 2,21,-1
 38 0 l 1,22,-1
 38 75 l 1,23,-1
 49 75 l 2,24,25
 76 75 76 75 93.5 82 c 128,-1,26
 111 89 111 89 111 111 c 2,27,-1
 111 599 l 2,28,29
 111 621 111 621 93.5 628 c 128,-1,30
 76 635 76 635 49 635 c 2,31,-1
 38 635 l 1,32,-1
 38 710 l 1,33,-1
 423 710 l 2,0,1
254 408 m 1,34,-1
 382 408 l 2,35,36
 418 408 418 408 441 420.5 c 128,-1,37
 464 433 464 433 474.5 459.5 c 128,-1,38
 485 486 485 486 485 527 c 0,39,40
 485 560 485 560 474 583.5 c 128,-1,41
 463 607 463 607 440.5 619.5 c 128,-1,42
 418 632 418 632 385 632 c 2,43,-1
 296 632 l 1,44,-1
 296 78 l 1,45,-1
 390 78 l 2,46,47
 430 78 430 78 456.5 92.5 c 128,-1,48
 483 107 483 107 496.5 135.5 c 128,-1,49
 510 164 510 164 510 207 c 0,50,51
 510 248 510 248 496.5 276.5 c 128,-1,52
 483 305 483 305 455 319.5 c 128,-1,53
 427 334 427 334 383 334 c 2,54,-1
 254 334 l 1,55,-1
 254 408 l 1,34,-1
EndSplineSet
EndChar

StartChar: C
Encoding: 67 67 12
Width: 740
GlyphClass: 2
Flags: W
AnchorPoint: "Anchor-1" 391 0 basechar 0
AnchorPoint: "Anchor-0" 391 741 basechar 0
LayerCount: 2
Fore
SplineSet
412 642 m 0,0,1
 369 642 369 642 336 624 c 128,-1,2
 303 606 303 606 281 570.5 c 128,-1,3
 259 535 259 535 248 481 c 128,-1,4
 237 427 237 427 237 355 c 0,5,6
 237 281 237 281 248.5 227 c 128,-1,7
 260 173 260 173 283 138 c 128,-1,8
 306 103 306 103 341 85.5 c 128,-1,9
 376 68 376 68 423 68 c 0,10,11
 481 68 481 68 520.5 92 c 128,-1,12
 560 116 560 116 585 158.5 c 128,-1,13
 610 201 610 201 624 257 c 1,14,-1
 700 224 l 1,15,16
 681 150 681 150 643 95.5 c 128,-1,17
 605 41 605 41 545.5 12 c 128,-1,18
 486 -17 486 -17 401 -17 c 0,19,20
 321 -17 321 -17 255.5 7.5 c 128,-1,21
 190 32 190 32 142 80 c 128,-1,22
 94 128 94 128 68.5 197 c 128,-1,23
 43 266 43 266 43 355 c 0,24,25
 43 445 43 445 69.5 514.5 c 128,-1,26
 96 584 96 584 143.5 631 c 128,-1,27
 191 678 191 678 254 703 c 128,-1,28
 317 728 317 728 389 728 c 0,29,30
 462 728 462 728 510.5 701 c 128,-1,31
 559 674 559 674 588 625 c 128,-1,32
 617 576 617 576 630 509 c 1,33,-1
 587 539 l 1,34,-1
 606 715 l 1,35,-1
 689 715 l 1,36,-1
 689 473 l 1,37,-1
 591 473 l 1,38,39
 577 524 577 524 553 562 c 128,-1,40
 529 600 529 600 494.5 621 c 128,-1,41
 460 642 460 642 412 642 c 0,0,1
EndSplineSet
EndChar

StartChar: D
Encoding: 68 68 15
Width: 820
GlyphClass: 2
Flags: W
AnchorPoint: "Anchor-1" 412 0 basechar 0
AnchorPoint: "Anchor-0" 412 741 basechar 0
LayerCount: 2
Fore
SplineSet
38 635 m 1,0,-1
 38 710 l 1,1,-1
 397 710 l 2,2,3
 482 710 482 710 551.5 688 c 128,-1,4
 621 666 621 666 671.5 621.5 c 128,-1,5
 722 577 722 577 749.5 511 c 128,-1,6
 777 445 777 445 777 358 c 256,7,8
 777 271 777 271 749.5 204.5 c 128,-1,9
 722 138 722 138 671.5 92.5 c 128,-1,10
 621 47 621 47 551.5 23.5 c 128,-1,11
 482 0 482 0 397 0 c 2,12,-1
 38 0 l 1,13,-1
 38 75 l 1,14,-1
 50 75 l 2,15,16
 76 75 76 75 93.5 82 c 128,-1,17
 111 89 111 89 111 111 c 2,18,-1
 111 599 l 2,19,20
 111 620 111 620 93.5 627.5 c 128,-1,21
 76 635 76 635 50 635 c 2,22,-1
 38 635 l 1,0,-1
383 629 m 2,23,-1
 296 629 l 1,24,-1
 296 81 l 1,25,-1
 383 81 l 2,26,27
 431 81 431 81 468 98 c 128,-1,28
 505 115 505 115 530.5 150 c 128,-1,29
 556 185 556 185 569.5 237 c 128,-1,30
 583 289 583 289 583 358 c 256,31,32
 583 427 583 427 569.5 478 c 128,-1,33
 556 529 556 529 530.5 562.5 c 128,-1,34
 505 596 505 596 468 612.5 c 128,-1,35
 431 629 431 629 383 629 c 2,23,-1
EndSplineSet
EndChar

StartChar: E
Encoding: 69 69 16
Width: 686
GlyphClass: 2
Flags: W
AnchorPoint: "Anchor-2" 474 0 basechar 0
AnchorPoint: "Anchor-1" 405 0 basechar 0
AnchorPoint: "Anchor-0" 395 741 basechar 0
LayerCount: 2
Fore
SplineSet
637 226 m 1,0,-1
 637 0 l 1,1,-1
 38 0 l 1,2,-1
 38 75 l 1,3,-1
 49 75 l 2,4,5
 76 75 76 75 93.5 82 c 128,-1,6
 111 89 111 89 111 111 c 2,7,-1
 111 599 l 2,8,9
 111 621 111 621 93.5 628 c 128,-1,10
 76 635 76 635 49 635 c 2,11,-1
 38 635 l 1,12,-1
 38 710 l 1,13,-1
 614 710 l 1,14,-1
 614 509 l 1,15,-1
 527 509 l 1,16,-1
 518 586 l 2,17,18
 516 604 516 604 503.5 613.5 c 128,-1,19
 491 623 491 623 468.5 626.5 c 128,-1,20
 446 630 446 630 413 630 c 2,21,-1
 296 630 l 1,22,-1
 296 80 l 1,23,-1
 418 80 l 2,24,25
 448 80 448 80 469.5 82 c 128,-1,26
 491 84 491 84 504.5 89 c 128,-1,27
 518 94 518 94 525 102.5 c 128,-1,28
 532 111 532 111 534 124 c 2,29,-1
 547 226 l 1,30,-1
 637 226 l 1,0,-1
274 400 m 1,31,32
 316 403 316 403 357.5 405.5 c 128,-1,33
 399 408 399 408 440.5 411 c 128,-1,34
 482 414 482 414 523 416 c 1,35,-1
 523 313 l 1,36,37
 482 316 482 316 440.5 318.5 c 128,-1,38
 399 321 399 321 357.5 323.5 c 128,-1,39
 316 326 316 326 274 329 c 1,40,-1
 274 400 l 1,31,32
EndSplineSet
Substitution2: "'ss01' Style Set 1 lookup 61 subtable" E.alt
EndChar

StartChar: F
Encoding: 70 70 21
Width: 660
GlyphClass: 2
Flags: W
AnchorPoint: "Anchor-0" 312 741 basechar 0
LayerCount: 2
Fore
SplineSet
296 630 m 1,0,-1
 296 98 l 2,1,2
 296 91 296 91 302.5 86 c 128,-1,3
 309 81 309 81 319.5 79 c 128,-1,4
 330 77 330 77 343 76 c 128,-1,5
 356 75 356 75 370 75 c 2,6,-1
 388 75 l 1,7,-1
 388 0 l 1,8,-1
 38 0 l 1,9,-1
 38 75 l 1,10,-1
 49 75 l 2,11,12
 76 75 76 75 93.5 82 c 128,-1,13
 111 89 111 89 111 111 c 2,14,-1
 111 599 l 2,15,16
 111 621 111 621 93.5 628 c 128,-1,17
 76 635 76 635 49 635 c 2,18,-1
 38 635 l 1,19,-1
 38 710 l 1,20,-1
 617 710 l 1,21,-1
 617 508 l 1,22,-1
 529 508 l 1,23,-1
 520 586 l 2,24,25
 518 604 518 604 506 613.5 c 128,-1,26
 494 623 494 623 471.5 626.5 c 128,-1,27
 449 630 449 630 416 630 c 2,28,-1
 296 630 l 1,0,-1
274 389 m 1,29,30
 317 392 317 392 359 394.5 c 128,-1,31
 401 397 401 397 443 399.5 c 128,-1,32
 485 402 485 402 527 405 c 1,33,-1
 527 302 l 1,34,35
 485 305 485 305 443 307.5 c 128,-1,36
 401 310 401 310 359 312.5 c 128,-1,37
 317 315 317 315 274 318 c 1,38,-1
 274 389 l 1,29,30
EndSplineSet
Substitution2: "'ss01' Style Set 1 lookup 61 subtable" F.alt
EndChar

StartChar: G
Encoding: 71 71 22
Width: 806
GlyphClass: 2
Flags: W
AnchorPoint: "Anchor-1" 410 0 basechar 0
AnchorPoint: "Anchor-0" 410 741 basechar 0
LayerCount: 2
Fore
SplineSet
711 242 m 2,0,-1
 711 100 l 1,1,2
 696 82 696 82 667.5 61.5 c 128,-1,3
 639 41 639 41 599 23 c 128,-1,4
 559 5 559 5 510.5 -6 c 128,-1,5
 462 -17 462 -17 408 -17 c 0,6,7
 325 -17 325 -17 258 7.5 c 128,-1,8
 191 32 191 32 143 80 c 128,-1,9
 95 128 95 128 69 197 c 128,-1,10
 43 266 43 266 43 355 c 0,11,12
 43 443 43 443 69.5 512 c 128,-1,13
 96 581 96 581 145 629.5 c 128,-1,14
 194 678 194 678 258.5 703 c 128,-1,15
 323 728 323 728 400 728 c 0,16,17
 473 728 473 728 522 702 c 128,-1,18
 571 676 571 676 600.5 629.5 c 128,-1,19
 630 583 630 583 644 520 c 1,20,-1
 600 551 l 1,21,-1
 617 715 l 1,22,-1
 702 715 l 1,23,-1
 702 484 l 1,24,-1
 606 484 l 1,25,26
 591 531 591 531 566 566.5 c 128,-1,27
 541 602 541 602 505 622 c 128,-1,28
 469 642 469 642 421 642 c 0,29,30
 375 642 375 642 341 623.5 c 128,-1,31
 307 605 307 605 283.5 569.5 c 128,-1,32
 260 534 260 534 248.5 480.5 c 128,-1,33
 237 427 237 427 237 355 c 0,34,35
 237 279 237 279 249 224.5 c 128,-1,36
 261 170 261 170 284.5 135.5 c 128,-1,37
 308 101 308 101 342 84.5 c 128,-1,38
 376 68 376 68 420 68 c 0,39,40
 454 68 454 68 477.5 75.5 c 128,-1,41
 501 83 501 83 517 93.5 c 128,-1,42
 533 104 533 104 542 112 c 1,43,-1
 542 242 l 2,44,45
 542 265 542 265 523 272.5 c 128,-1,46
 504 280 504 280 475 280 c 2,47,-1
 455 280 l 1,48,-1
 455 355 l 1,49,-1
 778 355 l 1,50,-1
 778 280 l 1,51,-1
 763 280 l 2,52,53
 739 280 739 280 725 272.5 c 128,-1,54
 711 265 711 265 711 242 c 2,0,-1
EndSplineSet
EndChar

StartChar: H
Encoding: 72 72 24
Width: 845
GlyphClass: 2
Flags: W
AnchorPoint: "Anchor-1" 423 0 basechar 0
AnchorPoint: "Anchor-0" 423 741 basechar 0
LayerCount: 2
Fore
SplineSet
197 406 m 1,0,-1
 620 406 l 1,1,-1
 620 325 l 1,2,-1
 197 325 l 1,3,-1
 197 406 l 1,0,-1
38 0 m 1,4,-1
 38 75 l 1,5,-1
 49 75 l 2,6,7
 76 75 76 75 93.5 82 c 128,-1,8
 111 89 111 89 111 111 c 2,9,-1
 111 599 l 2,10,11
 111 621 111 621 93.5 628 c 128,-1,12
 76 635 76 635 49 635 c 2,13,-1
 38 635 l 1,14,-1
 38 710 l 1,15,-1
 366 710 l 1,16,-1
 366 635 l 1,17,-1
 358 635 l 2,18,19
 348 635 348 635 337 634.5 c 128,-1,20
 326 634 326 634 317 632.5 c 128,-1,21
 308 631 308 631 302 629.5 c 128,-1,22
 296 628 296 628 296 625 c 2,23,-1
 296 85 l 2,24,25
 296 82 296 82 302 80.5 c 128,-1,26
 308 79 308 79 317 77.5 c 128,-1,27
 326 76 326 76 337 75.5 c 128,-1,28
 348 75 348 75 358 75 c 2,29,-1
 366 75 l 1,30,-1
 366 0 l 1,31,-1
 38 0 l 1,4,-1
479 0 m 1,32,-1
 479 75 l 1,33,-1
 487 75 l 2,34,35
 497 75 497 75 508 75.5 c 128,-1,36
 519 76 519 76 528 77.5 c 128,-1,37
 537 79 537 79 542.5 80.5 c 128,-1,38
 548 82 548 82 548 85 c 2,39,-1
 548 625 l 2,40,41
 548 628 548 628 542.5 629.5 c 128,-1,42
 537 631 537 631 528 632.5 c 128,-1,43
 519 634 519 634 508 634.5 c 128,-1,44
 497 635 497 635 487 635 c 2,45,-1
 479 635 l 1,46,-1
 479 710 l 1,47,-1
 806 710 l 1,48,-1
 806 635 l 1,49,-1
 796 635 l 2,50,51
 769 635 769 635 751.5 628 c 128,-1,52
 734 621 734 621 734 599 c 2,53,-1
 734 111 l 2,54,55
 734 89 734 89 751.5 82 c 128,-1,56
 769 75 769 75 796 75 c 2,57,-1
 806 75 l 1,58,-1
 806 0 l 1,59,-1
 479 0 l 1,32,-1
EndSplineSet
EndChar

StartChar: I
Encoding: 73 73 26
Width: 416
GlyphClass: 2
Flags: W
AnchorPoint: "Anchor-2" 274 0 basechar 0
AnchorPoint: "Anchor-1" 209 0 basechar 0
AnchorPoint: "Anchor-0" 209 741 basechar 0
LayerCount: 2
Fore
SplineSet
115 111 m 2,0,-1
 115 599 l 2,1,2
 115 621 115 621 97.5 628 c 128,-1,3
 80 635 80 635 54 635 c 2,4,-1
 38 635 l 1,5,-1
 38 710 l 1,6,-1
 378 710 l 1,7,-1
 378 635 l 1,8,-1
 363 635 l 2,9,10
 336 635 336 635 318.5 628 c 128,-1,11
 301 621 301 621 301 599 c 2,12,-1
 301 111 l 2,13,14
 301 89 301 89 318.5 82 c 128,-1,15
 336 75 336 75 363 75 c 2,16,-1
 378 75 l 1,17,-1
 378 0 l 1,18,-1
 38 0 l 1,19,-1
 38 75 l 1,20,-1
 54 75 l 2,21,22
 80 75 80 75 97.5 82 c 128,-1,23
 115 89 115 89 115 111 c 2,0,-1
EndSplineSet
EndChar

StartChar: J
Encoding: 74 74 31
Width: 653
GlyphClass: 2
Flags: W
AnchorPoint: "Anchor-0" 439 741 basechar 0
LayerCount: 2
Fore
SplineSet
266 710 m 1,0,-1
 618 710 l 1,1,-1
 618 635 l 1,2,-1
 603 635 l 2,3,4
 576 635 576 635 559 628 c 128,-1,5
 542 621 542 621 542 599 c 2,6,-1
 542 234 l 2,7,8
 542 164 542 164 522 116 c 128,-1,9
 502 68 502 68 465.5 38.5 c 128,-1,10
 429 9 429 9 378 -4 c 128,-1,11
 327 -17 327 -17 265 -17 c 0,12,13
 206 -17 206 -17 160 -5.5 c 128,-1,14
 114 6 114 6 82 23 c 128,-1,15
 50 40 50 40 32 55 c 1,16,-1
 32 232 l 1,17,-1
 177 232 l 1,18,-1
 177 61 l 1,19,20
 159 66 159 66 145.5 76.5 c 128,-1,21
 132 87 132 87 124.5 98 c 128,-1,22
 117 109 117 109 118 115.5 c 128,-1,23
 119 122 119 122 131 119 c 1,24,25
 142 108 142 108 159 95.5 c 128,-1,26
 176 83 176 83 198.5 75 c 128,-1,27
 221 67 221 67 250 67 c 0,28,29
 285 67 285 67 308.5 81 c 128,-1,30
 332 95 332 95 344.5 130 c 128,-1,31
 357 165 357 165 357 229 c 2,32,-1
 357 599 l 2,33,34
 357 614 357 614 348 621.5 c 128,-1,35
 339 629 339 629 323.5 632 c 128,-1,36
 308 635 308 635 290 635 c 2,37,-1
 266 635 l 1,38,-1
 266 710 l 1,0,-1
EndSplineSet
EndChar

StartChar: K
Encoding: 75 75 33
Width: 816
GlyphClass: 2
Flags: W
AnchorPoint: "Anchor-1" 420 0 basechar 0
AnchorPoint: "Anchor-0" 420 741 basechar 0
LayerCount: 2
Fore
SplineSet
38 0 m 1,0,-1
 38 75 l 1,1,-1
 49 75 l 2,2,3
 76 75 76 75 93.5 82 c 128,-1,4
 111 89 111 89 111 111 c 2,5,-1
 111 599 l 2,6,7
 111 621 111 621 93.5 628 c 128,-1,8
 76 635 76 635 49 635 c 2,9,-1
 38 635 l 1,10,-1
 38 710 l 1,11,-1
 375 710 l 1,12,-1
 375 635 l 1,13,-1
 364 635 l 2,14,15
 352 635 352 635 339.5 634.5 c 128,-1,16
 327 634 327 634 317.5 632.5 c 128,-1,17
 308 631 308 631 302 629.5 c 128,-1,18
 296 628 296 628 296 625 c 2,19,-1
 296 85 l 2,20,21
 296 82 296 82 301.5 80.5 c 128,-1,22
 307 79 307 79 315 77.5 c 128,-1,23
 323 76 323 76 333 75.5 c 128,-1,24
 343 75 343 75 352 75 c 2,25,-1
 360 75 l 1,26,-1
 360 0 l 1,27,-1
 38 0 l 1,0,-1
449 0 m 1,28,-1
 449 75 l 1,29,-1
 457 75 l 2,30,31
 472 75 472 75 485.5 76 c 128,-1,32
 499 77 499 77 508 79.5 c 128,-1,33
 517 82 517 82 517 85 c 2,34,-1
 327 342 l 1,35,-1
 327 368 l 1,36,-1
 574 625 l 2,37,38
 574 629 574 629 562 630.5 c 128,-1,39
 550 632 550 632 532.5 633.5 c 128,-1,40
 515 635 515 635 498 635 c 2,41,-1
 485 635 l 1,42,-1
 485 710 l 1,43,-1
 760 710 l 1,44,-1
 760 635 l 1,45,-1
 738 635 l 2,46,47
 722 635 722 635 709 632 c 128,-1,48
 696 629 696 629 684.5 622.5 c 128,-1,49
 673 616 673 616 661 603 c 2,50,-1
 420 353 l 1,51,-1
 467 450 l 1,52,-1
 724 102 l 2,53,54
 732 92 732 92 740.5 86 c 128,-1,55
 749 80 749 80 759.5 77.5 c 128,-1,56
 770 75 770 75 783 75 c 2,57,-1
 795 75 l 1,58,-1
 795 0 l 1,59,-1
 449 0 l 1,28,-1
EndSplineSet
EndChar

StartChar: L
Encoding: 76 76 34
Width: 667
GlyphClass: 2
Flags: W
AnchorPoint: "Anchor-2" 507 710 basechar 0
AnchorPoint: "Anchor-1" 409 0 basechar 0
AnchorPoint: "Anchor-0" 409 741 basechar 0
LayerCount: 2
Fore
SplineSet
380 710 m 1,0,-1
 38 710 l 1,1,-1
 38 635 l 1,2,-1
 49 635 l 2,3,4
 76 635 76 635 93.5 628 c 128,-1,5
 111 621 111 621 111 599 c 2,6,-1
 111 111 l 2,7,8
 111 89 111 89 93.5 82 c 128,-1,9
 76 75 76 75 49 75 c 2,10,-1
 38 75 l 1,11,-1
 38 0 l 1,12,-1
 630 0 l 1,13,-1
 630 250 l 1,14,-1
 539 250 l 1,15,-1
 526 124 l 2,16,17
 525 106 525 106 512.5 96.5 c 128,-1,18
 500 87 500 87 475 83.5 c 128,-1,19
 450 80 450 80 410 80 c 2,20,-1
 296 80 l 1,21,-1
 296 599 l 2,22,23
 296 621 296 621 315 628 c 128,-1,24
 334 635 334 635 364 635 c 2,25,-1
 380 635 l 1,26,-1
 380 710 l 1,0,-1
EndSplineSet
EndChar

StartChar: M
Encoding: 77 77 35
Width: 996
GlyphClass: 2
Flags: W
AnchorPoint: "Anchor-1" 486 0 basechar 0
LayerCount: 2
Fore
SplineSet
39 0 m 1,0,-1
 39 75 l 1,1,-1
 49 75 l 2,2,3
 68 75 68 75 81.5 78 c 128,-1,4
 95 81 95 81 103 89 c 128,-1,5
 111 97 111 97 111 111 c 2,6,-1
 111 599 l 2,7,8
 111 614 111 614 103 621.5 c 128,-1,9
 95 629 95 629 81 632 c 128,-1,10
 67 635 67 635 49 635 c 2,11,-1
 39 635 l 1,12,-1
 39 710 l 1,13,-1
 370 710 l 1,14,-1
 522 186 l 1,15,-1
 487 237 l 1,16,-1
 634 710 l 1,17,-1
 958 710 l 1,18,-1
 958 635 l 1,19,-1
 947 635 l 2,20,21
 920 635 920 635 902.5 628 c 128,-1,22
 885 621 885 621 885 599 c 2,23,-1
 885 111 l 2,24,25
 885 89 885 89 902.5 82 c 128,-1,26
 920 75 920 75 947 75 c 2,27,-1
 958 75 l 1,28,-1
 958 0 l 1,29,-1
 632 0 l 1,30,-1
 632 75 l 1,31,-1
 641 75 l 2,32,33
 653 75 653 75 666.5 76 c 128,-1,34
 680 77 680 77 690 79.5 c 128,-1,35
 700 82 700 82 700 85 c 2,36,-1
 700 687 l 1,37,-1
 712 688 l 1,38,-1
 496 -4 l 1,39,-1
 401 -4 l 1,40,-1
 185 688 l 1,41,-1
 198 691 l 1,42,-1
 198 85 l 2,43,44
 198 82 198 82 207.5 79.5 c 128,-1,45
 217 77 217 77 230.5 76 c 128,-1,46
 244 75 244 75 254 75 c 2,47,-1
 261 75 l 1,48,-1
 261 0 l 1,49,-1
 39 0 l 1,0,-1
EndSplineSet
EndChar

StartChar: N
Encoding: 78 78 36
Width: 802
GlyphClass: 2
Flags: W
AnchorPoint: "Anchor-1" 410 0 basechar 0
AnchorPoint: "Anchor-0" 410 741 basechar 0
LayerCount: 2
Fore
SplineSet
39 0 m 1,0,-1
 39 75 l 1,1,-1
 49 75 l 2,2,3
 68 75 68 75 81.5 78.5 c 128,-1,4
 95 82 95 82 103 91 c 128,-1,5
 111 100 111 100 111 114 c 2,6,-1
 111 599 l 2,7,8
 111 614 111 614 103 621.5 c 128,-1,9
 95 629 95 629 81 632 c 128,-1,10
 67 635 67 635 49 635 c 2,11,-1
 39 635 l 1,12,-1
 39 710 l 1,13,-1
 349 710 l 1,14,-1
 630 150 l 1,15,-1
 609 157 l 1,16,-1
 609 622 l 2,17,18
 609 626 609 626 599 628.5 c 128,-1,19
 589 631 589 631 574 633 c 128,-1,20
 559 635 559 635 545 635 c 2,21,-1
 532 635 l 1,22,-1
 532 710 l 1,23,-1
 767 710 l 1,24,-1
 767 635 l 1,25,-1
 757 635 l 2,26,27
 740 635 740 635 725.5 631.5 c 128,-1,28
 711 628 711 628 703 621 c 128,-1,29
 695 614 695 614 695 599 c 2,30,-1
 695 0 l 1,31,-1
 510 0 l 1,32,-1
 172 668 l 1,33,-1
 198 660 l 1,34,-1
 198 88 l 2,35,36
 198 85 198 85 208 82 c 128,-1,37
 218 79 218 79 233 77 c 128,-1,38
 248 75 248 75 262 75 c 2,39,-1
 275 75 l 1,40,-1
 275 0 l 1,41,-1
 39 0 l 1,0,-1
EndSplineSet
EndChar

StartChar: O
Encoding: 79 79 38
Width: 822
GlyphClass: 2
Flags: W
AnchorPoint: "Anchor-2" 452 0 basechar 0
AnchorPoint: "Anchor-1" 411 0 basechar 0
AnchorPoint: "Anchor-0" 411 741 basechar 0
LayerCount: 2
Fore
SplineSet
411 -17 m 256,0,1
 329 -17 329 -17 261.5 7.5 c 128,-1,2
 194 32 194 32 145 80 c 128,-1,3
 96 128 96 128 69.5 197.5 c 128,-1,4
 43 267 43 267 43 355 c 256,5,6
 43 443 43 443 69.5 512.5 c 128,-1,7
 96 582 96 582 145 629.5 c 128,-1,8
 194 677 194 677 261.5 702.5 c 128,-1,9
 329 728 329 728 411 728 c 256,10,11
 493 728 493 728 560.5 702.5 c 128,-1,12
 628 677 628 677 677 629.5 c 128,-1,13
 726 582 726 582 752.5 512.5 c 128,-1,14
 779 443 779 443 779 355 c 256,15,16
 779 267 779 267 752.5 197.5 c 128,-1,17
 726 128 726 128 677 80 c 128,-1,18
 628 32 628 32 560.5 7.5 c 128,-1,19
 493 -17 493 -17 411 -17 c 256,0,1
411 68 m 256,20,21
 453 68 453 68 485.5 85 c 128,-1,22
 518 102 518 102 540 137.5 c 128,-1,23
 562 173 562 173 573.5 227 c 128,-1,24
 585 281 585 281 585 355 c 256,25,26
 585 429 585 429 573.5 483 c 128,-1,27
 562 537 562 537 540 572.5 c 128,-1,28
 518 608 518 608 485.5 625 c 128,-1,29
 453 642 453 642 411 642 c 256,30,31
 369 642 369 642 336.5 625 c 128,-1,32
 304 608 304 608 282 572.5 c 128,-1,33
 260 537 260 537 248.5 483 c 128,-1,34
 237 429 237 429 237 355 c 256,35,36
 237 281 237 281 248.5 227 c 128,-1,37
 260 173 260 173 282 137.5 c 128,-1,38
 304 102 304 102 336.5 85 c 128,-1,39
 369 68 369 68 411 68 c 256,20,21
EndSplineSet
EndChar

StartChar: P
Encoding: 80 80 44
Width: 712
GlyphClass: 2
Flags: W
AnchorPoint: "Anchor-0" 319 741 basechar 0
LayerCount: 2
Fore
SplineSet
297 85 m 2,0,-1
 297 629 l 1,1,-1
 384 629 l 2,2,3
 421 629 421 629 447 614.5 c 128,-1,4
 473 600 473 600 486.5 570.5 c 128,-1,5
 500 541 500 541 500 494 c 256,6,7
 500 447 500 447 486 415.5 c 128,-1,8
 472 384 472 384 445.5 368.5 c 128,-1,9
 419 353 419 353 381 353 c 2,10,-1
 268 353 l 1,11,-1
 268 273 l 1,12,-1
 416 273 l 2,13,14
 497 273 497 273 557 299.5 c 128,-1,15
 617 326 617 326 650 376.5 c 128,-1,16
 683 427 683 427 683 497 c 0,17,18
 683 600 683 600 613.5 655 c 128,-1,19
 544 710 544 710 420 710 c 2,20,-1
 39 710 l 1,21,-1
 39 638 l 1,22,-1
 49 638 l 2,23,24
 76 638 76 638 93.5 631 c 128,-1,25
 111 624 111 624 111 602 c 2,26,-1
 111 108 l 2,27,28
 111 86 111 86 93.5 79 c 128,-1,29
 76 72 76 72 49 72 c 2,30,-1
 39 72 l 1,31,-1
 39 0 l 1,32,-1
 383 0 l 1,33,-1
 383 75 l 1,34,-1
 359 75 l 2,35,36
 347 75 347 75 336 75.5 c 128,-1,37
 325 76 325 76 316 77.5 c 128,-1,38
 307 79 307 79 302 80.5 c 128,-1,39
 297 82 297 82 297 85 c 2,0,-1
EndSplineSet
EndChar

StartChar: Q
Encoding: 81 81 45
Width: 822
GlyphClass: 1
Flags: W
LayerCount: 2
Fore
SplineSet
362 0 m 1,0,-1
 459 10 l 1,1,2
 459 -35 459 -35 473 -62 c 128,-1,3
 487 -89 487 -89 518 -100.5 c 128,-1,4
 549 -112 549 -112 597 -112 c 0,5,6
 632 -112 632 -112 662 -106.5 c 128,-1,7
 692 -101 692 -101 718 -93.5 c 128,-1,8
 744 -86 744 -86 764 -79 c 1,9,-1
 764 -219 l 1,10,11
 735 -229 735 -229 694 -235 c 128,-1,12
 653 -241 653 -241 611 -241 c 0,13,14
 529 -241 529 -241 473 -216.5 c 128,-1,15
 417 -192 417 -192 389 -139 c 128,-1,16
 361 -86 361 -86 362 0 c 1,0,-1
411 -17 m 256,17,18
 329 -17 329 -17 261.5 7.5 c 128,-1,19
 194 32 194 32 145 80 c 128,-1,20
 96 128 96 128 69.5 197.5 c 128,-1,21
 43 267 43 267 43 355 c 256,22,23
 43 443 43 443 69.5 512.5 c 128,-1,24
 96 582 96 582 145 629.5 c 128,-1,25
 194 677 194 677 261.5 702.5 c 128,-1,26
 329 728 329 728 411 728 c 256,27,28
 493 728 493 728 560.5 702.5 c 128,-1,29
 628 677 628 677 677 629.5 c 128,-1,30
 726 582 726 582 752.5 512.5 c 128,-1,31
 779 443 779 443 779 355 c 256,32,33
 779 267 779 267 752.5 197.5 c 128,-1,34
 726 128 726 128 677 80 c 128,-1,35
 628 32 628 32 560.5 7.5 c 128,-1,36
 493 -17 493 -17 411 -17 c 256,17,18
411 68 m 256,37,38
 453 68 453 68 485 85 c 128,-1,39
 517 102 517 102 539 137.5 c 128,-1,40
 561 173 561 173 573 227 c 128,-1,41
 585 281 585 281 585 355 c 256,42,43
 585 429 585 429 573.5 483 c 128,-1,44
 562 537 562 537 540 572.5 c 128,-1,45
 518 608 518 608 485.5 625 c 128,-1,46
 453 642 453 642 411 642 c 256,47,48
 369 642 369 642 336.5 625 c 128,-1,49
 304 608 304 608 282 572.5 c 128,-1,50
 260 537 260 537 248.5 483 c 128,-1,51
 237 429 237 429 237 355 c 256,52,53
 237 281 237 281 248.5 227 c 128,-1,54
 260 173 260 173 282 137.5 c 128,-1,55
 304 102 304 102 336.5 85 c 128,-1,56
 369 68 369 68 411 68 c 256,37,38
EndSplineSet
EndChar

StartChar: R
Encoding: 82 82 46
Width: 776
GlyphClass: 2
Flags: W
AnchorPoint: "Anchor-1" 434 0 basechar 0
AnchorPoint: "Anchor-0" 420 741 basechar 0
LayerCount: 2
Fore
SplineSet
378 320 m 1,0,-1
 527 0 l 1,1,-1
 750 0 l 1,2,-1
 750 75 l 1,3,-1
 741 75 l 2,4,5
 726 75 726 75 714 78.5 c 128,-1,6
 702 82 702 82 691.5 92 c 128,-1,7
 681 102 681 102 671 120 c 2,8,-1
 547 354 l 1,9,-1
 378 320 l 1,0,-1
296 85 m 2,10,-1
 296 632 l 1,11,-1
 392 632 l 2,12,13
 427 632 427 632 450.5 617.5 c 128,-1,14
 474 603 474 603 485.5 575 c 128,-1,15
 497 547 497 547 497 506 c 0,16,17
 497 463 497 463 485.5 431.5 c 128,-1,18
 474 400 474 400 449.5 383 c 128,-1,19
 425 366 425 366 386 366 c 2,20,-1
 272 366 l 1,21,-1
 272 289 l 1,22,-1
 426 289 l 2,23,24
 433 292 433 292 438 294.5 c 128,-1,25
 443 297 443 297 449 300 c 128,-1,26
 455 303 455 303 462 308 c 1,27,28
 535 317 535 317 585.5 343.5 c 128,-1,29
 636 370 636 370 662 413 c 128,-1,30
 688 456 688 456 688 513 c 0,31,32
 688 576 688 576 657 620 c 128,-1,33
 626 664 626 664 567 687 c 128,-1,34
 508 710 508 710 422 710 c 2,35,-1
 38 710 l 1,36,-1
 38 635 l 1,37,-1
 49 635 l 2,38,39
 76 635 76 635 93.5 628 c 128,-1,40
 111 621 111 621 111 599 c 2,41,-1
 111 111 l 2,42,43
 111 89 111 89 93.5 82 c 128,-1,44
 76 75 76 75 49 75 c 2,45,-1
 38 75 l 1,46,-1
 38 0 l 1,47,-1
 370 0 l 1,48,-1
 370 75 l 1,49,-1
 357 75 l 2,50,51
 346 75 346 75 335 75.5 c 128,-1,52
 324 76 324 76 315 77.5 c 128,-1,53
 306 79 306 79 301 80.5 c 128,-1,54
 296 82 296 82 296 85 c 2,10,-1
EndSplineSet
EndChar

StartChar: S
Encoding: 83 83 47
Width: 661
GlyphClass: 2
Flags: W
AnchorPoint: "Anchor-1" 363 0 basechar 0
AnchorPoint: "Anchor-0" 363 741 basechar 0
LayerCount: 2
Fore
SplineSet
349 64 m 0,0,1
 390 64 390 64 416.5 73.5 c 128,-1,2
 443 83 443 83 456 104 c 128,-1,3
 469 125 469 125 469 158 c 0,4,5
 469 188 469 188 455 207.5 c 128,-1,6
 441 227 441 227 416 240 c 128,-1,7
 391 253 391 253 356 263.5 c 128,-1,8
 321 274 321 274 277 285 c 0,9,10
 234 297 234 297 194.5 312.5 c 128,-1,11
 155 328 155 328 124.5 353 c 128,-1,12
 94 378 94 378 76 417 c 128,-1,13
 58 456 58 456 58 514 c 0,14,15
 58 585 58 585 89 632 c 128,-1,16
 120 679 120 679 175.5 703.5 c 128,-1,17
 231 728 231 728 305 728 c 0,18,19
 369 728 369 728 412.5 709.5 c 128,-1,20
 456 691 456 691 483.5 651.5 c 128,-1,21
 511 612 511 612 525 546 c 1,22,-1
 487 580 l 1,23,-1
 506 715 l 1,24,-1
 583 715 l 1,25,-1
 583 512 l 1,26,-1
 493 512 l 1,27,28
 482 555 482 555 457.5 585.5 c 128,-1,29
 433 616 433 616 398.5 631.5 c 128,-1,30
 364 647 364 647 321 647 c 0,31,32
 283 647 283 647 259 637 c 128,-1,33
 235 627 235 627 224 608 c 128,-1,34
 213 589 213 589 213 561 c 256,35,36
 213 533 213 533 225.5 515 c 128,-1,37
 238 497 238 497 261.5 485.5 c 128,-1,38
 285 474 285 474 318 465.5 c 128,-1,39
 351 457 351 457 391 447 c 0,40,41
 437 436 437 436 479.5 421 c 128,-1,42
 522 406 522 406 555.5 381 c 128,-1,43
 589 356 589 356 608 317 c 128,-1,44
 627 278 627 278 627 220 c 0,45,46
 627 143 627 143 595.5 90 c 128,-1,47
 564 37 564 37 505 10 c 128,-1,48
 446 -17 446 -17 362 -17 c 0,49,50
 295 -17 295 -17 242 1.5 c 128,-1,51
 189 20 189 20 153 65 c 128,-1,52
 117 110 117 110 102 188 c 1,53,-1
 141 156 l 1,54,-1
 122 -2 l 1,55,-1
 41 -2 l 1,56,-1
 41 230 l 1,57,-1
 138 230 l 1,58,59
 154 173 154 173 185 136 c 128,-1,60
 216 99 216 99 258 81.5 c 128,-1,61
 300 64 300 64 349 64 c 0,0,1
EndSplineSet
EndChar

StartChar: Scaron
Encoding: 138 352 49
Width: 661
GlyphClass: 1
Flags: W
LayerCount: 2
Fore
SplineSet
261 772 m 1,0,-1
 392 772 l 1,1,-1
 520 924 l 1,2,-1
 520 953 l 1,3,-1
 448 953 l 1,4,-1
 290 851 l 1,5,-1
 373 852 l 1,6,-1
 214 953 l 1,7,-1
 134 953 l 1,8,-1
 134 924 l 1,9,-1
 261 772 l 1,0,-1
349 64 m 0,10,11
 390 64 390 64 416.5 73.5 c 128,-1,12
 443 83 443 83 456 104 c 128,-1,13
 469 125 469 125 469 158 c 0,14,15
 469 188 469 188 455 207.5 c 128,-1,16
 441 227 441 227 416 240 c 128,-1,17
 391 253 391 253 356 263.5 c 128,-1,18
 321 274 321 274 277 285 c 0,19,20
 234 297 234 297 194.5 312.5 c 128,-1,21
 155 328 155 328 124.5 353 c 128,-1,22
 94 378 94 378 76 417 c 128,-1,23
 58 456 58 456 58 514 c 0,24,25
 58 585 58 585 89 632 c 128,-1,26
 120 679 120 679 175.5 703.5 c 128,-1,27
 231 728 231 728 305 728 c 0,28,29
 369 728 369 728 412.5 709.5 c 128,-1,30
 456 691 456 691 483.5 651.5 c 128,-1,31
 511 612 511 612 525 546 c 1,32,-1
 487 580 l 1,33,-1
 506 715 l 1,34,-1
 583 715 l 1,35,-1
 583 512 l 1,36,-1
 493 512 l 1,37,38
 482 555 482 555 457.5 585.5 c 128,-1,39
 433 616 433 616 398.5 631.5 c 128,-1,40
 364 647 364 647 321 647 c 0,41,42
 283 647 283 647 259 637 c 128,-1,43
 235 627 235 627 224 608 c 128,-1,44
 213 589 213 589 213 561 c 256,45,46
 213 533 213 533 225.5 515 c 128,-1,47
 238 497 238 497 261.5 485.5 c 128,-1,48
 285 474 285 474 318 465.5 c 128,-1,49
 351 457 351 457 391 447 c 0,50,51
 437 436 437 436 479.5 421 c 128,-1,52
 522 406 522 406 555.5 381 c 128,-1,53
 589 356 589 356 608 317 c 128,-1,54
 627 278 627 278 627 220 c 0,55,56
 627 143 627 143 595.5 90 c 128,-1,57
 564 37 564 37 505 10 c 128,-1,58
 446 -17 446 -17 362 -17 c 0,59,60
 295 -17 295 -17 242 1.5 c 128,-1,61
 189 20 189 20 153 65 c 128,-1,62
 117 110 117 110 102 188 c 1,63,-1
 141 156 l 1,64,-1
 122 -2 l 1,65,-1
 41 -2 l 1,66,-1
 41 230 l 1,67,-1
 138 230 l 1,68,69
 154 173 154 173 185 136 c 128,-1,70
 216 99 216 99 258 81.5 c 128,-1,71
 300 64 300 64 349 64 c 0,10,11
EndSplineSet
EndChar

StartChar: T
Encoding: 84 84 50
Width: 746
GlyphClass: 2
Flags: W
AnchorPoint: "Anchor-1" 378 0 basechar 0
AnchorPoint: "Anchor-0" 378 741 basechar 0
LayerCount: 2
Fore
SplineSet
280 111 m 2,0,-1
 280 629 l 1,1,-1
 250 629 l 2,2,3
 210 629 210 629 185.5 624.5 c 128,-1,4
 161 620 161 620 150 609.5 c 128,-1,5
 139 599 139 599 138 581 c 2,6,-1
 127 455 l 1,7,-1
 37 455 l 1,8,-1
 37 710 l 1,9,-1
 709 710 l 1,10,-1
 709 455 l 1,11,-1
 618 455 l 1,12,-1
 608 581 l 2,13,14
 607 599 607 599 595.5 609.5 c 128,-1,15
 584 620 584 620 560 624.5 c 128,-1,16
 536 629 536 629 496 629 c 2,17,-1
 466 629 l 1,18,-1
 466 111 l 2,19,20
 466 89 466 89 484 82 c 128,-1,21
 502 75 502 75 529 75 c 2,22,-1
 546 75 l 1,23,-1
 546 0 l 1,24,-1
 199 0 l 1,25,-1
 199 75 l 1,26,-1
 216 75 l 2,27,28
 243 75 243 75 261.5 82 c 128,-1,29
 280 89 280 89 280 111 c 2,0,-1
EndSplineSet
EndChar

StartChar: U
Encoding: 85 85 51
Width: 784
GlyphClass: 2
Flags: W
AnchorPoint: "Anchor-2" 450 0 basechar 0
AnchorPoint: "Anchor-1" 397 0 basechar 0
AnchorPoint: "Anchor-0" 397 741 basechar 0
LayerCount: 2
Fore
SplineSet
292 269 m 2,0,1
 292 216 292 216 302 179.5 c 128,-1,2
 312 143 312 143 331.5 120.5 c 128,-1,3
 351 98 351 98 378.5 88 c 128,-1,4
 406 78 406 78 442 78 c 0,5,6
 476 78 476 78 504 88.5 c 128,-1,7
 532 99 532 99 552 121.5 c 128,-1,8
 572 144 572 144 582.5 180.5 c 128,-1,9
 593 217 593 217 593 269 c 2,10,-1
 593 615 l 2,11,12
 593 620 593 620 587.5 623.5 c 128,-1,13
 582 627 582 627 572 629.5 c 128,-1,14
 562 632 562 632 550.5 633.5 c 128,-1,15
 539 635 539 635 528 635 c 2,16,-1
 518 635 l 1,17,-1
 518 710 l 1,18,-1
 750 710 l 1,19,-1
 750 635 l 1,20,-1
 740 635 l 2,21,22
 722 635 722 635 708 631.5 c 128,-1,23
 694 628 694 628 686 619.5 c 128,-1,24
 678 611 678 611 678 595 c 2,25,-1
 678 269 l 2,26,27
 678 193 678 193 657 138.5 c 128,-1,28
 636 84 636 84 598 49.5 c 128,-1,29
 560 15 560 15 510 -1 c 128,-1,30
 460 -17 460 -17 401 -17 c 0,31,32
 335 -17 335 -17 281 -0.5 c 128,-1,33
 227 16 227 16 187.5 50 c 128,-1,34
 148 84 148 84 127.5 138.5 c 128,-1,35
 107 193 107 193 107 269 c 2,36,-1
 107 599 l 2,37,38
 107 621 107 621 89.5 628 c 128,-1,39
 72 635 72 635 45 635 c 2,40,-1
 34 635 l 1,41,-1
 34 710 l 1,42,-1
 365 710 l 1,43,-1
 365 635 l 1,44,-1
 355 635 l 2,45,46
 345 635 345 635 333.5 634.5 c 128,-1,47
 322 634 322 634 313 632.5 c 128,-1,48
 304 631 304 631 298 629.5 c 128,-1,49
 292 628 292 628 292 625 c 2,50,-1
 292 269 l 2,0,1
EndSplineSet
EndChar

StartChar: V
Encoding: 86 86 57
Width: 745
GlyphClass: 2
Flags: W
AnchorPoint: "Anchor-0" 360 741 basechar 0
LayerCount: 2
Fore
SplineSet
441 58 m 1,0,-1
 415 84 l 1,1,-1
 582 614 l 2,2,3
 582 621 582 621 574 625.5 c 128,-1,4
 566 630 566 630 551 632.5 c 128,-1,5
 536 635 536 635 518 635 c 2,6,-1
 506 635 l 1,7,-1
 506 710 l 1,8,-1
 729 710 l 1,9,-1
 729 635 l 1,10,-1
 724 635 l 2,11,12
 700 635 700 635 685 624 c 128,-1,13
 670 613 670 613 660 581 c 2,14,-1
 473 -2 l 1,15,-1
 276 -2 l 1,16,-1
 85 589 l 2,17,18
 76 617 76 617 60.5 626 c 128,-1,19
 45 635 45 635 21 635 c 2,20,-1
 16 635 l 1,21,-1
 16 710 l 1,22,-1
 343 710 l 1,23,-1
 343 635 l 1,24,-1
 329 635 l 2,25,26
 310 635 310 635 295.5 633.5 c 128,-1,27
 281 632 281 632 272.5 630 c 128,-1,28
 264 628 264 628 264 624 c 2,29,-1
 441 58 l 1,0,-1
EndSplineSet
EndChar

StartChar: W
Encoding: 87 87 58
Width: 1060
GlyphClass: 2
Flags: W
AnchorPoint: "Anchor-0" 544 741 basechar 0
LayerCount: 2
Fore
SplineSet
16 710 m 1,0,-1
 335 710 l 1,1,-1
 335 635 l 1,2,-1
 321 635 l 2,3,4
 307 635 307 635 294 633.5 c 128,-1,5
 281 632 281 632 272.5 630 c 128,-1,6
 264 628 264 628 264 624 c 2,7,-1
 370 115 l 1,8,-1
 358 120 l 1,9,-1
 496 710 l 1,10,-1
 675 710 l 1,11,-1
 809 119 l 1,12,-1
 794 114 l 1,13,-1
 904 615 l 2,14,15
 904 621 904 621 896 625.5 c 128,-1,16
 888 630 888 630 875.5 632.5 c 128,-1,17
 863 635 863 635 849 635 c 2,18,-1
 835 635 l 1,19,-1
 835 710 l 1,20,-1
 1044 710 l 1,21,-1
 1044 635 l 1,22,-1
 1037 635 l 2,23,24
 1015 635 1015 635 1001 625 c 128,-1,25
 987 615 987 615 982 591 c 2,26,-1
 850 0 l 1,27,-1
 663 0 l 1,28,-1
 532 588 l 1,29,-1
 546 587 l 1,30,-1
 411 0 l 1,31,-1
 216 0 l 1,32,-1
 77 605 l 2,33,34
 73 625 73 625 59 630 c 128,-1,35
 45 635 45 635 23 635 c 2,36,-1
 16 635 l 1,37,-1
 16 710 l 1,0,-1
EndSplineSet
EndChar

StartChar: X
Encoding: 88 88 59
Width: 755
GlyphClass: 2
Flags: W
AnchorPoint: "Anchor-1" 355 0 basechar 0
AnchorPoint: "Anchor-0" 378 741 basechar 0
LayerCount: 2
Fore
SplineSet
29 635 m 1,0,-1
 29 710 l 1,1,-1
 365 710 l 1,2,-1
 365 635 l 1,3,-1
 350 635 l 2,4,5
 337 635 337 635 323 634 c 128,-1,6
 309 633 309 633 300 631 c 128,-1,7
 291 629 291 629 291 625 c 2,8,-1
 446 401 l 1,9,-1
 456 396 l 1,10,-1
 659 110 l 2,11,12
 674 88 674 88 687 81.5 c 128,-1,13
 700 75 700 75 722 75 c 2,14,-1
 734 75 l 1,15,-1
 734 0 l 1,16,-1
 392 0 l 1,17,-1
 392 75 l 1,18,-1
 407 75 l 2,19,20
 420 75 420 75 433.5 76 c 128,-1,21
 447 77 447 77 456.5 79.5 c 128,-1,22
 466 82 466 82 466 85 c 2,23,-1
 294 331 l 1,24,-1
 284 336 l 1,25,-1
 98 601 l 2,26,27
 83 623 83 623 70 629 c 128,-1,28
 57 635 57 635 35 635 c 2,29,-1
 29 635 l 1,0,-1
22 0 m 1,30,-1
 22 75 l 1,31,-1
 33 75 l 2,32,33
 55 75 55 75 69.5 85 c 128,-1,34
 84 95 84 95 102 121 c 2,35,-1
 291 392 l 1,36,-1
 351 348 l 1,37,-1
 174 93 l 2,38,39
 174 88 174 88 183.5 84 c 128,-1,40
 193 80 193 80 207 77.5 c 128,-1,41
 221 75 221 75 234 75 c 2,42,-1
 249 75 l 1,43,-1
 249 0 l 1,44,-1
 22 0 l 1,30,-1
464 347 m 1,45,-1
 412 400 l 1,46,-1
 558 617 l 2,47,48
 558 623 558 623 548.5 627 c 128,-1,49
 539 631 539 631 525.5 633 c 128,-1,50
 512 635 512 635 498 635 c 2,51,-1
 485 635 l 1,52,-1
 485 710 l 1,53,-1
 708 710 l 1,54,-1
 708 635 l 1,55,-1
 702 635 l 2,56,57
 680 635 680 635 664.5 625.5 c 128,-1,58
 649 616 649 616 631 590 c 2,59,-1
 464 347 l 1,45,-1
EndSplineSet
EndChar

StartChar: Y
Encoding: 89 89 60
Width: 716
GlyphClass: 2
Flags: W
AnchorPoint: "Anchor-1" 362 0 basechar 0
AnchorPoint: "Anchor-0" 362 741 basechar 0
LayerCount: 2
Fore
SplineSet
268 308 m 1,0,-1
 281 263 l 1,1,-1
 88 596 l 2,2,3
 79 611 79 611 70 620 c 128,-1,4
 61 629 61 629 50 632 c 128,-1,5
 39 635 39 635 25 635 c 2,6,-1
 18 635 l 1,7,-1
 18 710 l 1,8,-1
 340 710 l 1,9,-1
 340 635 l 1,10,-1
 326 635 l 2,11,12
 309 635 309 635 295.5 633.5 c 128,-1,13
 282 632 282 632 273.5 630 c 128,-1,14
 265 628 265 628 265 624 c 2,15,-1
 432 323 l 1,16,-1
 385 313 l 1,17,-1
 549 614 l 2,18,19
 549 621 549 621 540.5 625.5 c 128,-1,20
 532 630 532 630 518 632.5 c 128,-1,21
 504 635 504 635 487 635 c 2,22,-1
 476 635 l 1,23,-1
 476 710 l 1,24,-1
 698 710 l 1,25,-1
 698 635 l 1,26,-1
 691 635 l 2,27,28
 677 635 677 635 665.5 630.5 c 128,-1,29
 654 626 654 626 644 615.5 c 128,-1,30
 634 605 634 605 624 585 c 2,31,-1
 440 259 l 1,32,-1
 454 308 l 1,33,-1
 454 111 l 2,34,35
 454 89 454 89 472 82 c 128,-1,36
 490 75 490 75 517 75 c 2,37,-1
 534 75 l 1,38,-1
 534 0 l 1,39,-1
 188 0 l 1,40,-1
 188 75 l 1,41,-1
 205 75 l 2,42,43
 232 75 232 75 250 82 c 128,-1,44
 268 89 268 89 268 111 c 2,45,-1
 268 308 l 1,0,-1
EndSplineSet
EndChar

StartChar: Z
Encoding: 90 90 63
Width: 666
GlyphClass: 2
Flags: W
AnchorPoint: "Anchor-1" 352 0 basechar 0
AnchorPoint: "Anchor-0" 352 741 basechar 0
LayerCount: 2
Fore
SplineSet
257 629 m 2,0,1
 232 629 232 629 213 627.5 c 128,-1,2
 194 626 194 626 181 621 c 128,-1,3
 168 616 168 616 161 608 c 128,-1,4
 154 600 154 600 152 586 c 2,5,-1
 143 490 l 1,6,-1
 55 490 l 1,7,-1
 55 710 l 1,8,-1
 611 710 l 1,9,-1
 611 600 l 1,10,-1
 179 26 l 1,11,-1
 149 81 l 1,12,-1
 406 81 l 2,13,14
 446 81 446 81 471 84.5 c 128,-1,15
 496 88 496 88 508 97 c 128,-1,16
 520 106 520 106 522 124 c 2,17,-1
 535 245 l 1,18,-1
 625 245 l 1,19,-1
 625 0 l 1,20,-1
 37 0 l 1,21,-1
 37 114 l 1,22,-1
 457 671 l 1,23,-1
 484 629 l 1,24,-1
 257 629 l 2,0,1
EndSplineSet
EndChar

StartChar: Zcaron
Encoding: 142 381 64
Width: 666
GlyphClass: 1
Flags: W
LayerCount: 2
Fore
SplineSet
275 772 m 1,0,-1
 406 772 l 1,1,-1
 534 924 l 1,2,-1
 534 953 l 1,3,-1
 462 953 l 1,4,-1
 304 851 l 1,5,-1
 387 852 l 1,6,-1
 228 953 l 1,7,-1
 148 953 l 1,8,-1
 148 924 l 1,9,-1
 275 772 l 1,0,-1
257 629 m 2,10,11
 232 629 232 629 213 627.5 c 128,-1,12
 194 626 194 626 181 621 c 128,-1,13
 168 616 168 616 161 608 c 128,-1,14
 154 600 154 600 152 586 c 2,15,-1
 143 490 l 1,16,-1
 55 490 l 1,17,-1
 55 710 l 1,18,-1
 611 710 l 1,19,-1
 611 600 l 1,20,-1
 179 26 l 1,21,-1
 149 81 l 1,22,-1
 406 81 l 2,23,24
 446 81 446 81 471 84.5 c 128,-1,25
 496 88 496 88 508 97 c 128,-1,26
 520 106 520 106 522 124 c 2,27,-1
 535 245 l 1,28,-1
 625 245 l 1,29,-1
 625 0 l 1,30,-1
 37 0 l 1,31,-1
 37 114 l 1,32,-1
 457 671 l 1,33,-1
 484 629 l 1,34,-1
 257 629 l 2,10,11
EndSplineSet
EndChar

StartChar: AE
Encoding: 198 198 65
Width: 1042
GlyphClass: 2
Flags: W
AnchorPoint: "Anchor-0" 643 741 basechar 0
LayerCount: 2
Fore
SplineSet
241 299 m 1,0,-1
 500 299 l 1,1,-1
 506 224 l 1,2,-1
 215 224 l 1,3,-1
 241 299 l 1,0,-1
643 399 m 1,4,5
 683 402 683 402 723 404 c 128,-1,6
 763 406 763 406 803.5 409 c 128,-1,7
 844 412 844 412 884 415 c 1,8,-1
 884 313 l 1,9,10
 845 316 845 316 805 318 c 128,-1,11
 765 320 765 320 724.5 323 c 128,-1,12
 684 326 684 326 643 328 c 1,13,-1
 643 399 l 1,4,5
408 0 m 1,14,-1
 408 75 l 1,15,-1
 417 75 l 2,16,17
 435 75 435 75 449 78 c 128,-1,18
 463 81 463 81 471.5 87 c 128,-1,19
 480 93 480 93 480 104 c 2,20,-1
 480 625 l 1,21,-1
 467 625 l 1,22,-1
 165 96 l 2,23,24
 165 90 165 90 173 85 c 128,-1,25
 181 80 181 80 195.5 77.5 c 128,-1,26
 210 75 210 75 230 75 c 2,27,-1
 240 75 l 1,28,-1
 240 0 l 1,29,-1
 8 0 l 1,30,-1
 8 75 l 1,31,-1
 13 75 l 2,32,33
 29 75 29 75 41 80 c 128,-1,34
 53 85 53 85 63.5 97 c 128,-1,35
 74 109 74 109 86 129 c 2,36,-1
 359 601 l 1,37,38
 359 614 359 614 348.5 621 c 128,-1,39
 338 628 338 628 320 631.5 c 128,-1,40
 302 635 302 635 279 635 c 2,41,-1
 266 635 l 1,42,-1
 266 710 l 1,43,-1
 970 710 l 1,44,-1
 970 509 l 1,45,-1
 883 509 l 1,46,-1
 874 586 l 2,47,48
 872 604 872 604 859.5 613.5 c 128,-1,49
 847 623 847 623 824.5 626.5 c 128,-1,50
 802 630 802 630 769 630 c 2,51,-1
 665 630 l 1,52,-1
 665 80 l 1,53,-1
 774 80 l 2,54,55
 804 80 804 80 825.5 82 c 128,-1,56
 847 84 847 84 860.5 89 c 128,-1,57
 874 94 874 94 881 102.5 c 128,-1,58
 888 111 888 111 890 124 c 2,59,-1
 903 226 l 1,60,-1
 993 226 l 1,61,-1
 993 0 l 1,62,-1
 408 0 l 1,14,-1
EndSplineSet
EndChar

StartChar: Eth
Encoding: 208 208 66
Width: 820
GlyphClass: 1
Flags: W
LayerCount: 2
Fore
SplineSet
36 400 m 1,0,-1
 444 400 l 1,1,-1
 444 318 l 1,2,-1
 36 318 l 1,3,-1
 36 400 l 1,0,-1
38 635 m 1,4,-1
 38 710 l 1,5,-1
 397 710 l 2,6,7
 482 710 482 710 551.5 688 c 128,-1,8
 621 666 621 666 671.5 621.5 c 128,-1,9
 722 577 722 577 749.5 511 c 128,-1,10
 777 445 777 445 777 358 c 256,11,12
 777 271 777 271 749.5 204.5 c 128,-1,13
 722 138 722 138 671.5 92.5 c 128,-1,14
 621 47 621 47 551.5 23.5 c 128,-1,15
 482 0 482 0 397 0 c 2,16,-1
 38 0 l 1,17,-1
 38 75 l 1,18,-1
 50 75 l 2,19,20
 76 75 76 75 93.5 82 c 128,-1,21
 111 89 111 89 111 111 c 2,22,-1
 111 599 l 2,23,24
 111 620 111 620 93.5 627.5 c 128,-1,25
 76 635 76 635 50 635 c 2,26,-1
 38 635 l 1,4,-1
383 629 m 2,27,-1
 296 629 l 1,28,-1
 296 81 l 1,29,-1
 383 81 l 2,30,31
 431 81 431 81 468 98 c 128,-1,32
 505 115 505 115 530.5 150 c 128,-1,33
 556 185 556 185 569.5 237 c 128,-1,34
 583 289 583 289 583 358 c 256,35,36
 583 427 583 427 569.5 478 c 128,-1,37
 556 529 556 529 530.5 562.5 c 128,-1,38
 505 596 505 596 468 612.5 c 128,-1,39
 431 629 431 629 383 629 c 2,27,-1
EndSplineSet
EndChar

StartChar: Oslash
Encoding: 216 216 67
Width: 821
GlyphClass: 2
Flags: W
AnchorPoint: "Anchor-0" 410 731 basechar 0
LayerCount: 2
Fore
SplineSet
412 642 m 0,0,1
 368 642 368 642 334 625 c 128,-1,2
 300 608 300 608 277 572.5 c 128,-1,3
 254 537 254 537 242 483 c 128,-1,4
 230 429 230 429 230 355 c 0,5,6
 230 276 230 276 240 221.5 c 128,-1,7
 250 167 250 167 272 133 c 128,-1,8
 294 99 294 99 328 83.5 c 128,-1,9
 362 68 362 68 409 68 c 0,10,11
 453 68 453 68 487 85 c 128,-1,12
 521 102 521 102 544.5 137.5 c 128,-1,13
 568 173 568 173 580 227 c 128,-1,14
 592 281 592 281 592 355 c 0,15,16
 592 434 592 434 582 488.5 c 128,-1,17
 572 543 572 543 550 577 c 128,-1,18
 528 611 528 611 494 626.5 c 128,-1,19
 460 642 460 642 412 642 c 0,0,1
411 -17 m 0,20,21
 334 -17 334 -17 267 9 c 128,-1,22
 200 35 200 35 149.5 84 c 128,-1,23
 99 133 99 133 71 201.5 c 128,-1,24
 43 270 43 270 43 355 c 0,25,26
 43 443 43 443 69.5 512.5 c 128,-1,27
 96 582 96 582 145 630 c 128,-1,28
 194 678 194 678 261.5 703 c 128,-1,29
 329 728 329 728 411 728 c 0,30,31
 489 728 489 728 555.5 701.5 c 128,-1,32
 622 675 622 675 672.5 626 c 128,-1,33
 723 577 723 577 751 508.5 c 128,-1,34
 779 440 779 440 779 355 c 0,35,36
 779 267 779 267 752.5 197.5 c 128,-1,37
 726 128 726 128 677 80 c 128,-1,38
 628 32 628 32 560.5 7.5 c 128,-1,39
 493 -17 493 -17 411 -17 c 0,20,21
-11 -20 m 1,40,-1
 713 730 l 1,41,-1
 823 730 l 1,42,-1
 99 -20 l 1,43,-1
 -11 -20 l 1,40,-1
EndSplineSet
EndChar

StartChar: Thorn
Encoding: 222 222 68
Width: 729
GlyphClass: 1
Flags: W
LayerCount: 2
Fore
SplineSet
382 710 m 1,0,-1
 38 710 l 1,1,-1
 38 638 l 1,2,-1
 49 638 l 2,3,4
 76 638 76 638 93 631 c 128,-1,5
 110 624 110 624 110 602 c 2,6,-1
 110 108 l 2,7,8
 110 86 110 86 93 79 c 128,-1,9
 76 72 76 72 49 72 c 2,10,-1
 38 72 l 1,11,-1
 38 0 l 1,12,-1
 382 0 l 1,13,-1
 382 75 l 1,14,-1
 358 75 l 2,15,16
 347 75 347 75 336 75.5 c 128,-1,17
 325 76 325 76 316 77.5 c 128,-1,18
 307 79 307 79 301.5 80.5 c 128,-1,19
 296 82 296 82 296 85 c 2,20,-1
 296 625 l 2,21,22
 296 628 296 628 301.5 629.5 c 128,-1,23
 307 631 307 631 316 632.5 c 128,-1,24
 325 634 325 634 336 634.5 c 128,-1,25
 347 635 347 635 358 635 c 2,26,-1
 382 635 l 1,27,-1
 382 710 l 1,0,-1
693 365 m 0,28,29
 693 429 693 429 661.5 473 c 128,-1,30
 630 517 630 517 572 539.5 c 128,-1,31
 514 562 514 562 431 562 c 2,32,-1
 219 562 l 1,33,-1
 219 481 l 1,34,-1
 394 481 l 2,35,36
 431 481 431 481 456 468.5 c 128,-1,37
 481 456 481 456 494.5 429.5 c 128,-1,38
 508 403 508 403 508 362 c 256,39,40
 508 321 508 321 494.5 294 c 128,-1,41
 481 267 481 267 455 253 c 128,-1,42
 429 239 429 239 391 239 c 2,43,-1
 228 239 l 1,44,-1
 228 159 l 1,45,-1
 427 159 l 2,46,47
 508 159 508 159 568 183.5 c 128,-1,48
 628 208 628 208 660.5 254 c 128,-1,49
 693 300 693 300 693 365 c 0,28,29
EndSplineSet
EndChar

StartChar: OE
Encoding: 140 338 69
Width: 1080
GlyphClass: 1
Flags: W
LayerCount: 2
Fore
SplineSet
683 400 m 1,0,1
 723 403 723 403 763 405.5 c 128,-1,2
 803 408 803 408 843 410.5 c 128,-1,3
 883 413 883 413 922 416 c 1,4,-1
 922 313 l 1,5,6
 883 316 883 316 843 318.5 c 128,-1,7
 803 321 803 321 763 323.5 c 128,-1,8
 723 326 723 326 683 329 c 1,9,-1
 683 400 l 1,0,1
437 80 m 2,10,-1
 519 80 l 1,11,-1
 519 630 l 1,12,-1
 437 630 l 2,13,14
 389 630 389 630 351.5 612.5 c 128,-1,15
 314 595 314 595 288.5 560 c 128,-1,16
 263 525 263 525 250 473 c 128,-1,17
 237 421 237 421 237 352 c 256,18,19
 237 283 237 283 250 232 c 128,-1,20
 263 181 263 181 288.5 147 c 128,-1,21
 314 113 314 113 351.5 96.5 c 128,-1,22
 389 80 389 80 437 80 c 2,10,-1
423 0 m 2,23,24
 338 0 338 0 268 22 c 128,-1,25
 198 44 198 44 147.5 88.5 c 128,-1,26
 97 133 97 133 70 199 c 128,-1,27
 43 265 43 265 43 352 c 256,28,29
 43 439 43 439 70 505.5 c 128,-1,30
 97 572 97 572 147.5 617.5 c 128,-1,31
 198 663 198 663 268 686.5 c 128,-1,32
 338 710 338 710 423 710 c 2,33,-1
 1009 710 l 1,34,-1
 1009 509 l 1,35,-1
 926 509 l 1,36,-1
 917 586 l 2,37,38
 915 604 915 604 902.5 613.5 c 128,-1,39
 890 623 890 623 868 626.5 c 128,-1,40
 846 630 846 630 812 630 c 2,41,-1
 705 630 l 1,42,-1
 705 80 l 1,43,-1
 817 80 l 2,44,45
 848 80 848 80 869 82 c 128,-1,46
 890 84 890 84 903.5 89 c 128,-1,47
 917 94 917 94 924.5 102.5 c 128,-1,48
 932 111 932 111 933 124 c 2,49,-1
 947 226 l 1,50,-1
 1031 226 l 1,51,-1
 1031 0 l 1,52,-1
 423 0 l 2,23,24
EndSplineSet
EndChar

StartChar: Ereversedcyr
Encoding: 263 1069 70
Width: 752
GlyphClass: 2
Flags: W
AnchorPoint: "Anchor-1" 363 0 basechar 0
AnchorPoint: "Anchor-0" 363 741 basechar 0
LayerCount: 2
Fore
SplineSet
539 400 m 1,0,-1
 539 329 l 1,1,2
 503 326 503 326 466.5 324 c 128,-1,3
 430 322 430 322 394 320.5 c 128,-1,4
 358 319 358 319 322 317 c 128,-1,5
 286 315 286 315 251 313 c 1,6,-1
 251 416 l 1,7,8
 286 413 286 413 322 411.5 c 128,-1,9
 358 410 358 410 394 408 c 128,-1,10
 430 406 430 406 466.5 404 c 128,-1,11
 503 402 503 402 539 400 c 1,0,-1
365 -17 m 0,12,13
 291 -17 291 -17 242 8 c 128,-1,14
 193 33 193 33 164.5 80 c 128,-1,15
 136 127 136 127 124 193 c 1,16,-1
 166 166 l 1,17,-1
 147 -5 l 1,18,-1
 63 -5 l 1,19,-1
 63 232 l 1,20,-1
 161 232 l 1,21,22
 177 182 177 182 201 145 c 128,-1,23
 225 108 225 108 260 88 c 128,-1,24
 295 68 295 68 343 68 c 0,25,26
 385 68 385 68 417 85.5 c 128,-1,27
 449 103 449 103 471 138.5 c 128,-1,28
 493 174 493 174 504 228 c 128,-1,29
 515 282 515 282 515 355 c 0,30,31
 515 427 515 427 505 481 c 128,-1,32
 495 535 495 535 473.5 570.5 c 128,-1,33
 452 606 452 606 419 624 c 128,-1,34
 386 642 386 642 341 642 c 0,35,36
 293 642 293 642 258.5 622 c 128,-1,37
 224 602 224 602 200 565.5 c 128,-1,38
 176 529 176 529 161 478 c 1,39,-1
 63 478 l 1,40,-1
 63 715 l 1,41,-1
 147 715 l 1,42,-1
 166 544 l 1,43,-1
 123 514 l 1,44,45
 136 580 136 580 164.5 628 c 128,-1,46
 193 676 193 676 242.5 702 c 128,-1,47
 292 728 292 728 365 728 c 0,48,49
 441 728 441 728 504 704 c 128,-1,50
 567 680 567 680 613 633 c 128,-1,51
 659 586 659 586 684.5 516.5 c 128,-1,52
 710 447 710 447 710 355 c 0,53,54
 710 268 710 268 683.5 199 c 128,-1,55
 657 130 657 130 610.5 81.5 c 128,-1,56
 564 33 564 33 501 8 c 128,-1,57
 438 -17 438 -17 365 -17 c 0,12,13
EndSplineSet
Substitution2: "'ss01' Style Set 1 lookup 61 subtable" Ecyr.alt1
EndChar

StartChar: a
Encoding: 97 97 71
Width: 624
GlyphClass: 2
Flags: W
AnchorPoint: "Anchor-2" 468 -8 basechar 0
AnchorPoint: "Anchor-1" 321 0 basechar 0
AnchorPoint: "Anchor-0" 289 540 basechar 0
LayerCount: 2
Fore
SplineSet
388 327 m 1,0,-1
 388 262 l 1,1,2
 342 254 342 254 310 245 c 128,-1,3
 278 236 278 236 257.5 225 c 128,-1,4
 237 214 237 214 225.5 201 c 128,-1,5
 214 188 214 188 209 172.5 c 128,-1,6
 204 157 204 157 204 139 c 0,7,8
 204 114 204 114 212 98.5 c 128,-1,9
 220 83 220 83 235.5 76 c 128,-1,10
 251 69 251 69 272 69 c 0,11,12
 294 69 294 69 312.5 79 c 128,-1,13
 331 89 331 89 349.5 111 c 128,-1,14
 368 133 368 133 387 167 c 1,15,-1
 393 115 l 1,16,17
 373 72 373 72 347.5 44 c 128,-1,18
 322 16 322 16 289 2.5 c 128,-1,19
 256 -11 256 -11 211 -11 c 0,20,21
 156 -11 156 -11 118 4.5 c 128,-1,22
 80 20 80 20 60.5 51.5 c 128,-1,23
 41 83 41 83 41 131 c 0,24,25
 41 174 41 174 60 205 c 128,-1,26
 79 236 79 236 120.5 258.5 c 128,-1,27
 162 281 162 281 227.5 297.5 c 128,-1,28
 293 314 293 314 388 327 c 1,0,-1
392 0 m 1,29,-1
 380 110 l 1,30,-1
 373 109 l 1,31,-1
 373 400 l 2,32,33
 373 423 373 423 366 439 c 128,-1,34
 359 455 359 455 341.5 462.5 c 128,-1,35
 324 470 324 470 291 470 c 0,36,37
 245 470 245 470 214.5 457.5 c 128,-1,38
 184 445 184 445 172 429 c 1,39,40
 165 435 165 435 164.5 443 c 128,-1,41
 164 451 164 451 170 459 c 128,-1,42
 176 467 176 467 187 472.5 c 128,-1,43
 198 478 198 478 215 478 c 1,44,-1
 215 362 l 1,45,-1
 73 362 l 1,46,-1
 73 489 l 1,47,48
 89 499 89 499 120 513.5 c 128,-1,49
 151 528 151 528 198 539.5 c 128,-1,50
 245 551 245 551 308 551 c 0,51,52
 362 551 362 551 406 541 c 128,-1,53
 450 531 450 531 481 510.5 c 128,-1,54
 512 490 512 490 528.5 457.5 c 128,-1,55
 545 425 545 425 545 381 c 2,56,-1
 545 106 l 2,57,58
 545 95 545 95 551 89 c 128,-1,59
 557 83 557 83 568.5 80 c 128,-1,60
 580 77 580 77 598 74 c 2,61,-1
 604 72 l 1,62,-1
 604 0 l 1,63,-1
 392 0 l 1,29,-1
EndSplineSet
Substitution2: "'ss06' Style Set 6 lookup 66 subtable" a.alt
EndChar

StartChar: b
Encoding: 98 98 78
Width: 700
GlyphClass: 2
Flags: W
AnchorPoint: "Anchor-1" 349 0 basechar 0
AnchorPoint: "Anchor-0" 329 755 basechar 0
LayerCount: 2
Fore
SplineSet
418 -11 m 0,0,1
 367 -11 367 -11 329.5 5.5 c 128,-1,2
 292 22 292 22 265 53 c 128,-1,3
 238 84 238 84 217 129 c 1,4,-1
 221 214 l 1,5,6
 247 173 247 173 269 144.5 c 128,-1,7
 291 116 291 116 315 100.5 c 128,-1,8
 339 85 339 85 371 85 c 0,9,10
 400 85 400 85 421 97 c 128,-1,11
 442 109 442 109 455.5 133.5 c 128,-1,12
 469 158 469 158 475.5 193 c 128,-1,13
 482 228 482 228 482 275 c 0,14,15
 482 320 482 320 476.5 353.5 c 128,-1,16
 471 387 471 387 458.5 409.5 c 128,-1,17
 446 432 446 432 426.5 443 c 128,-1,18
 407 454 407 454 379 454 c 0,19,20
 348 454 348 454 323.5 440 c 128,-1,21
 299 426 299 426 274.5 395.5 c 128,-1,22
 250 365 250 365 220 316 c 1,23,-1
 220 389 l 1,24,25
 247 442 247 442 276 478 c 128,-1,26
 305 514 305 514 342 532 c 128,-1,27
 379 550 379 550 429 550 c 0,28,29
 504 550 504 550 556 515.5 c 128,-1,30
 608 481 608 481 635 419 c 128,-1,31
 662 357 662 357 662 275 c 256,32,33
 662 193 662 193 632.5 128 c 128,-1,34
 603 63 603 63 548.5 26 c 128,-1,35
 494 -11 494 -11 418 -11 c 0,0,1
81 650 m 2,36,37
 81 660 81 660 75.5 666 c 128,-1,38
 70 672 70 672 59 676 c 128,-1,39
 48 680 48 680 30 683 c 2,40,-1
 21 685 l 1,41,-1
 21 758 l 1,42,-1
 257 758 l 1,43,-1
 257 123 l 1,44,-1
 244 118 l 1,45,-1
 187 -10 l 1,46,-1
 81 -10 l 1,47,-1
 81 650 l 2,36,37
EndSplineSet
EndChar

StartChar: c
Encoding: 99 99 79
Width: 597
GlyphClass: 2
Flags: W
AnchorPoint: "Anchor-1" 330 0 basechar 0
AnchorPoint: "Anchor-0" 319 540 basechar 0
LayerCount: 2
Fore
SplineSet
362 74 m 0,0,1
 397 74 397 74 423.5 88 c 128,-1,2
 450 102 450 102 470 125 c 128,-1,3
 490 148 490 148 504 172 c 1,4,-1
 568 129 l 1,5,6
 549 87 549 87 516.5 55 c 128,-1,7
 484 23 484 23 439 6 c 128,-1,8
 394 -11 394 -11 336 -11 c 0,9,10
 247 -11 247 -11 179.5 21.5 c 128,-1,11
 112 54 112 54 74.5 117 c 128,-1,12
 37 180 37 180 37 270 c 256,13,14
 37 360 37 360 73.5 422.5 c 128,-1,15
 110 485 110 485 178 517.5 c 128,-1,16
 246 550 246 550 341 550 c 0,17,18
 398 550 398 550 440.5 542 c 128,-1,19
 483 534 483 534 511 523.5 c 128,-1,20
 539 513 539 513 552 505 c 1,21,-1
 552 339 l 1,22,-1
 415 339 l 1,23,-1
 415 486 l 1,24,25
 428 486 428 486 436 479.5 c 128,-1,26
 444 473 444 473 447.5 463.5 c 128,-1,27
 451 454 451 454 450.5 445 c 128,-1,28
 450 436 450 436 448 431 c 1,29,30
 431 447 431 447 406.5 457 c 128,-1,31
 382 467 382 467 349 467 c 0,32,33
 303 467 303 467 274 445.5 c 128,-1,34
 245 424 245 424 231.5 380 c 128,-1,35
 218 336 218 336 218 270 c 0,36,37
 218 219 218 219 226.5 182 c 128,-1,38
 235 145 235 145 252.5 121 c 128,-1,39
 270 97 270 97 297.5 85.5 c 128,-1,40
 325 74 325 74 362 74 c 0,0,1
EndSplineSet
EndChar

StartChar: d
Encoding: 100 100 82
Width: 701
GlyphClass: 2
Flags: W
AnchorPoint: "Anchor-2" 664 735 basechar 0
AnchorPoint: "Anchor-1" 327 0 basechar 0
LayerCount: 2
Fore
SplineSet
619 106 m 2,0,1
 619 90 619 90 632.5 84 c 128,-1,2
 646 78 646 78 672 74 c 2,3,-1
 679 72 l 1,4,-1
 679 0 l 1,5,-1
 464 0 l 1,6,-1
 450 122 l 1,7,-1
 443 113 l 1,8,-1
 443 650 l 2,9,10
 443 660 443 660 437 666 c 128,-1,11
 431 672 431 672 419 675.5 c 128,-1,12
 407 679 407 679 390 683 c 2,13,-1
 381 685 l 1,14,-1
 381 758 l 1,15,-1
 619 758 l 1,16,-1
 619 106 l 2,0,1
281 550 m 0,17,18
 330 550 330 550 367 532.5 c 128,-1,19
 404 515 404 515 432 481 c 128,-1,20
 460 447 460 447 480 399 c 1,21,-1
 479 327 l 1,22,23
 452 370 452 370 430 398 c 128,-1,24
 408 426 408 426 384.5 440 c 128,-1,25
 361 454 361 454 329 454 c 0,26,27
 300 454 300 454 279 442 c 128,-1,28
 258 430 258 430 244.5 406 c 128,-1,29
 231 382 231 382 224.5 346.5 c 128,-1,30
 218 311 218 311 218 264 c 0,31,32
 218 219 218 219 223.5 185.5 c 128,-1,33
 229 152 229 152 241.5 129.5 c 128,-1,34
 254 107 254 107 273.5 96 c 128,-1,35
 293 85 293 85 321 85 c 0,36,37
 352 85 352 85 376.5 99 c 128,-1,38
 401 113 401 113 425.5 144 c 128,-1,39
 450 175 450 175 479 225 c 1,40,-1
 480 151 l 1,41,42
 456 100 456 100 427 63.5 c 128,-1,43
 398 27 398 27 360.5 8 c 128,-1,44
 323 -11 323 -11 272 -11 c 0,45,46
 197 -11 197 -11 144.5 23.5 c 128,-1,47
 92 58 92 58 64.5 120 c 128,-1,48
 37 182 37 182 37 264 c 0,49,50
 37 347 37 347 66.5 411.5 c 128,-1,51
 96 476 96 476 151 513 c 128,-1,52
 206 550 206 550 281 550 c 0,17,18
EndSplineSet
EndChar

StartChar: e
Encoding: 101 101 83
Width: 617
GlyphClass: 2
Flags: W
AnchorPoint: "Anchor-2" 488 1 basechar 0
AnchorPoint: "Anchor-1" 338 0 basechar 0
AnchorPoint: "Anchor-0" 315 540 basechar 0
LayerCount: 2
Fore
SplineSet
211 267 m 0,0,1
 211 214 211 214 220.5 177 c 128,-1,2
 230 140 230 140 248.5 117 c 128,-1,3
 267 94 267 94 295 83.5 c 128,-1,4
 323 73 323 73 360 73 c 0,5,6
 398 73 398 73 425.5 85 c 128,-1,7
 453 97 453 97 473.5 117.5 c 128,-1,8
 494 138 494 138 509 163 c 1,9,-1
 576 116 l 1,10,11
 555 76 555 76 522 47 c 128,-1,12
 489 18 489 18 444 3 c 128,-1,13
 399 -12 399 -12 338 -12 c 0,14,15
 246 -12 246 -12 178.5 20 c 128,-1,16
 111 52 111 52 74 114.5 c 128,-1,17
 37 177 37 177 37 266 c 0,18,19
 37 352 37 352 72.5 416 c 128,-1,20
 108 480 108 480 172 515.5 c 128,-1,21
 236 551 236 551 319 551 c 0,22,23
 386 551 386 551 435 531 c 128,-1,24
 484 511 484 511 516.5 472 c 128,-1,25
 549 433 549 433 565.5 374.5 c 128,-1,26
 582 316 582 316 583 238 c 1,27,-1
 169 238 l 1,28,-1
 169 309 l 1,29,-1
 441 309 l 1,30,-1
 420 281 l 1,31,32
 419 338 419 338 413 375 c 128,-1,33
 407 412 407 412 396 433 c 128,-1,34
 385 454 385 454 366.5 462.5 c 128,-1,35
 348 471 348 471 322 471 c 256,36,37
 296 471 296 471 275.5 460.5 c 128,-1,38
 255 450 255 450 240.5 426.5 c 128,-1,39
 226 403 226 403 218.5 363.5 c 128,-1,40
 211 324 211 324 211 267 c 0,0,1
EndSplineSet
EndChar

StartChar: f
Encoding: 102 102 88
Width: 458
GlyphClass: 2
Flags: W
AnchorPoint: "Anchor-0" 289 755 basechar 0
LayerCount: 2
Fore
SplineSet
24 540 m 1,0,-1
 436 540 l 1,1,-1
 436 462 l 1,2,-1
 24 462 l 1,3,-1
 24 540 l 1,0,-1
481 756 m 1,4,-1
 481 672 l 1,5,6
 470 675 470 675 443.5 681 c 128,-1,7
 417 687 417 687 383 687 c 0,8,9
 353 687 353 687 332 678 c 128,-1,10
 311 669 311 669 301 647.5 c 128,-1,11
 291 626 291 626 291 590 c 2,12,-1
 291 75 l 2,13,14
 291 72 291 72 303.5 69.5 c 128,-1,15
 316 67 316 67 334 66.5 c 128,-1,16
 352 66 352 66 369 66 c 2,17,-1
 386 66 l 1,18,-1
 386 0 l 1,19,-1
 33 0 l 1,20,-1
 33 66 l 1,21,-1
 51 66 l 2,22,23
 82 66 82 66 99 77.5 c 128,-1,24
 116 89 116 89 116 118 c 2,25,-1
 116 580 l 2,26,27
 116 653 116 653 149.5 693.5 c 128,-1,28
 183 734 183 734 238.5 751 c 128,-1,29
 294 768 294 768 362 768 c 0,30,31
 403 768 403 768 436 764 c 128,-1,32
 469 760 469 760 481 756 c 1,4,-1
EndSplineSet
Substitution2: "'ss04' Style Set 4 lookup 64 subtable" f.alt
EndChar

StartChar: g
Encoding: 103 103 89
Width: 679
GlyphClass: 2
Flags: W
AnchorPoint: "Anchor-0" 324 540 basechar 0
LayerCount: 2
Fore
SplineSet
668 442 m 1,0,1
 627 449 627 449 597 451.5 c 128,-1,2
 567 454 567 454 543 454.5 c 128,-1,3
 519 455 519 455 498 451 c 2,4,-1
 477 446 l 1,5,6
 492 480 492 480 509.5 506 c 128,-1,7
 527 532 527 532 549.5 548.5 c 128,-1,8
 572 565 572 565 601 572 c 128,-1,9
 630 579 630 579 668 574 c 1,10,-1
 668 442 l 1,0,1
314 173 m 256,11,12
 239 173 239 173 183.5 195.5 c 128,-1,13
 128 218 128 218 98 260.5 c 128,-1,14
 68 303 68 303 68 360 c 0,15,16
 68 418 68 418 98.5 460.5 c 128,-1,17
 129 503 129 503 184.5 527 c 128,-1,18
 240 551 240 551 314 551 c 0,19,20
 389 551 389 551 444.5 527 c 128,-1,21
 500 503 500 503 531 460.5 c 128,-1,22
 562 418 562 418 562 360 c 0,23,24
 562 303 562 303 531 260.5 c 128,-1,25
 500 218 500 218 444.5 195.5 c 128,-1,26
 389 173 389 173 314 173 c 256,11,12
314 244 m 0,27,28
 344 244 344 244 362.5 256 c 128,-1,29
 381 268 381 268 390 293.5 c 128,-1,30
 399 319 399 319 399 359 c 0,31,32
 399 400 399 400 390 426 c 128,-1,33
 381 452 381 452 362.5 464.5 c 128,-1,34
 344 477 344 477 314 477 c 0,35,36
 286 477 286 477 267 464.5 c 128,-1,37
 248 452 248 452 239 426 c 128,-1,38
 230 400 230 400 230 359 c 0,39,40
 230 319 230 319 239 293.5 c 128,-1,41
 248 268 248 268 267 256 c 128,-1,42
 286 244 286 244 314 244 c 0,27,28
231 -245 m 2,43,44
 161 -245 161 -245 111.5 -233.5 c 128,-1,45
 62 -222 62 -222 36 -197 c 128,-1,46
 10 -172 10 -172 10 -131 c 0,47,48
 10 -102 10 -102 25.5 -81 c 128,-1,49
 41 -60 41 -60 75 -44 c 128,-1,50
 109 -28 109 -28 164 -13 c 1,51,-1
 197 -35 l 1,52,53
 176 -48 176 -48 164 -60.5 c 128,-1,54
 152 -73 152 -73 147 -85.5 c 128,-1,55
 142 -98 142 -98 142 -115 c 0,56,57
 142 -133 142 -133 153.5 -146 c 128,-1,58
 165 -159 165 -159 190.5 -165.5 c 128,-1,59
 216 -172 216 -172 258 -172 c 2,60,-1
 362 -172 l 2,61,62
 408 -172 408 -172 438 -163.5 c 128,-1,63
 468 -155 468 -155 482.5 -138 c 128,-1,64
 497 -121 497 -121 497 -97 c 0,65,66
 497 -76 497 -76 484.5 -65 c 128,-1,67
 472 -54 472 -54 441 -54 c 2,68,-1
 152 -54 l 1,69,-1
 160 -41 l 1,70,71
 122 -33 122 -33 96 -17.5 c 128,-1,72
 70 -2 70 -2 57 21.5 c 128,-1,73
 44 45 44 45 44 76 c 0,74,75
 44 109 44 109 61 135.5 c 128,-1,76
 78 162 78 162 111.5 183.5 c 128,-1,77
 145 205 145 205 191 222 c 1,78,-1
 236 202 l 1,79,80
 214 189 214 189 200 177.5 c 128,-1,81
 186 166 186 166 179.5 155 c 128,-1,82
 173 144 173 144 173 131 c 0,83,84
 173 111 173 111 187.5 102.5 c 128,-1,85
 202 94 202 94 232 94 c 2,86,-1
 454 94 l 2,87,88
 516 94 516 94 558 78 c 128,-1,89
 600 62 600 62 621 30 c 128,-1,90
 642 -2 642 -2 642 -51 c 0,91,92
 642 -117 642 -117 607 -160 c 128,-1,93
 572 -203 572 -203 510 -224 c 128,-1,94
 448 -245 448 -245 368 -245 c 2,95,-1
 231 -245 l 2,43,44
EndSplineSet
Substitution2: "'ss02' Style Set 2 lookup 62 subtable" g.alt
EndChar

StartChar: h
Encoding: 104 104 91
Width: 704
GlyphClass: 2
Flags: W
AnchorPoint: "Anchor-1" 359 0 basechar 0
AnchorPoint: "Anchor-0" 369 755 basechar 0
LayerCount: 2
Fore
SplineSet
269 758 m 1,0,-1
 269 75 l 2,1,2
 269 72 269 72 277 70 c 128,-1,3
 285 68 285 68 296 67 c 128,-1,4
 307 66 307 66 316 66 c 2,5,-1
 320 66 l 1,6,-1
 320 0 l 1,7,-1
 33 0 l 1,8,-1
 33 66 l 1,9,-1
 36 66 l 2,10,11
 54 66 54 66 66.5 70.5 c 128,-1,12
 79 75 79 75 86.5 86 c 128,-1,13
 94 97 94 97 94 116 c 2,14,-1
 94 650 l 2,15,16
 94 660 94 660 88.5 666 c 128,-1,17
 83 672 83 672 71.5 676 c 128,-1,18
 60 680 60 680 42 683 c 2,19,-1
 33 685 l 1,20,-1
 33 758 l 1,21,-1
 269 758 l 1,0,-1
683 0 m 1,22,-1
 396 0 l 1,23,-1
 396 66 l 1,24,-1
 399 66 l 2,25,26
 409 66 409 66 420.5 66.5 c 128,-1,27
 432 67 432 67 439.5 69.5 c 128,-1,28
 447 72 447 72 447 75 c 2,29,-1
 447 381 l 2,30,31
 447 403 447 403 441.5 418 c 128,-1,32
 436 433 436 433 423 440.5 c 128,-1,33
 410 448 410 448 389 448 c 0,34,35
 364 448 364 448 340 435 c 128,-1,36
 316 422 316 422 292.5 395.5 c 128,-1,37
 269 369 269 369 245 329 c 1,38,-1
 247 408 l 1,39,40
 269 451 269 451 301.5 483 c 128,-1,41
 334 515 334 515 374.5 533 c 128,-1,42
 415 551 415 551 460 551 c 0,43,44
 512 551 512 551 548 532.5 c 128,-1,45
 584 514 584 514 603.5 477.5 c 128,-1,46
 623 441 623 441 623 387 c 2,47,-1
 623 116 l 2,48,49
 623 97 623 97 630 86 c 128,-1,50
 637 75 637 75 650 70.5 c 128,-1,51
 663 66 663 66 680 66 c 2,52,-1
 683 66 l 1,53,-1
 683 0 l 1,22,-1
EndSplineSet
EndChar

StartChar: i
Encoding: 105 105 93
Width: 352
GlyphClass: 2
Flags: W
AnchorPoint: "Anchor-2" 238 -10 basechar 0
AnchorPoint: "Anchor-1" 185 -10 basechar 0
AnchorPoint: "Anchor-0" 187 540 basechar 0
LayerCount: 2
Fore
SplineSet
176 610 m 256,0,1
 130 610 130 610 103 632 c 128,-1,2
 76 654 76 654 76 696 c 256,3,4
 76 738 76 738 103 759.5 c 128,-1,5
 130 781 130 781 176 781 c 256,6,7
 222 781 222 781 249 759.5 c 128,-1,8
 276 738 276 738 276 696 c 256,9,10
 276 654 276 654 249 632 c 128,-1,11
 222 610 222 610 176 610 c 256,0,1
269 540 m 1,12,-1
 269 114 l 2,13,14
 269 86 269 86 284.5 76 c 128,-1,15
 300 66 300 66 327 66 c 2,16,-1
 329 66 l 1,17,-1
 329 0 l 1,18,-1
 34 0 l 1,19,-1
 34 66 l 1,20,-1
 36 66 l 2,21,22
 63 66 63 66 78.5 76 c 128,-1,23
 94 86 94 86 94 114 c 2,24,-1
 94 431 l 2,25,26
 94 447 94 447 81.5 453 c 128,-1,27
 69 459 69 459 42 464 c 2,28,-1
 33 466 l 1,29,-1
 33 540 l 1,30,-1
 269 540 l 1,12,-1
EndSplineSet
Substitution2: "Single Substitution lookup 1 subtable" idotaccent
EndChar

StartChar: icircumflex
Encoding: 238 238 96
Width: 352
GlyphClass: 1
Flags: W
LayerCount: 2
Fore
SplineSet
237 797 m 1,0,-1
 112 797 l 1,1,-1
 -13 628 l 1,2,-1
 -13 598 l 1,3,-1
 50 598 l 1,4,-1
 213 718 l 1,5,-1
 127 717 l 1,6,-1
 291 598 l 1,7,-1
 362 598 l 1,8,-1
 362 628 l 1,9,-1
 237 797 l 1,0,-1
269 540 m 1,10,-1
 269 114 l 2,11,12
 269 86 269 86 284.5 76 c 128,-1,13
 300 66 300 66 327 66 c 2,14,-1
 329 66 l 1,15,-1
 329 0 l 1,16,-1
 34 0 l 1,17,-1
 34 66 l 1,18,-1
 36 66 l 2,19,20
 63 66 63 66 78.5 76 c 128,-1,21
 94 86 94 86 94 114 c 2,22,-1
 94 431 l 2,23,24
 94 447 94 447 81.5 453 c 128,-1,25
 69 459 69 459 42 464 c 2,26,-1
 33 466 l 1,27,-1
 33 540 l 1,28,-1
 269 540 l 1,10,-1
EndSplineSet
EndChar

StartChar: idieresis
Encoding: 239 239 97
Width: 352
GlyphClass: 1
Flags: W
LayerCount: 2
Fore
SplineSet
47 608 m 256,0,1
 2 608 2 608 -24 629.5 c 128,-1,2
 -50 651 -50 651 -50 694 c 0,3,4
 -50 735 -50 735 -24 757 c 128,-1,5
 2 779 2 779 47 779 c 256,6,7
 92 779 92 779 118.5 757 c 128,-1,8
 145 735 145 735 145 694 c 0,9,10
 145 652 145 652 118.5 630 c 128,-1,11
 92 608 92 608 47 608 c 256,0,1
303 608 m 0,12,13
 258 608 258 608 232 629.5 c 128,-1,14
 206 651 206 651 206 694 c 0,15,16
 206 735 206 735 232 757 c 128,-1,17
 258 779 258 779 303 779 c 0,18,19
 349 779 349 779 375 757 c 128,-1,20
 401 735 401 735 401 694 c 0,21,22
 401 652 401 652 375 630 c 128,-1,23
 349 608 349 608 303 608 c 0,12,13
269 540 m 1,24,-1
 269 114 l 2,25,26
 269 86 269 86 284.5 76 c 128,-1,27
 300 66 300 66 327 66 c 2,28,-1
 329 66 l 1,29,-1
 329 0 l 1,30,-1
 34 0 l 1,31,-1
 34 66 l 1,32,-1
 36 66 l 2,33,34
 63 66 63 66 78.5 76 c 128,-1,35
 94 86 94 86 94 114 c 2,36,-1
 94 431 l 2,37,38
 94 447 94 447 81.5 453 c 128,-1,39
 69 459 69 459 42 464 c 2,40,-1
 33 466 l 1,41,-1
 33 540 l 1,42,-1
 269 540 l 1,24,-1
EndSplineSet
EndChar

StartChar: j
Encoding: 106 106 98
Width: 350
GlyphClass: 1
Flags: W
LayerCount: 2
Fore
SplineSet
98 -47 m 2,0,-1
 98 431 l 2,1,2
 98 441 98 441 90.5 447.5 c 128,-1,3
 83 454 83 454 69.5 458 c 128,-1,4
 56 462 56 462 38 464 c 2,5,-1
 26 466 l 1,6,-1
 26 540 l 1,7,-1
 273 540 l 1,8,-1
 273 -34 l 2,9,10
 273 -93 273 -93 256.5 -133 c 128,-1,11
 240 -173 240 -173 209.5 -197 c 128,-1,12
 179 -221 179 -221 135.5 -232 c 128,-1,13
 92 -243 92 -243 39 -243 c 0,14,15
 -1 -243 -1 -243 -31 -238 c 128,-1,16
 -61 -233 -61 -233 -73 -228 c 1,17,-1
 -73 -143 l 1,18,19
 -58 -148 -58 -148 -36 -153.5 c 128,-1,20
 -14 -159 -14 -159 11 -159 c 0,21,22
 38 -159 38 -159 57.5 -148.5 c 128,-1,23
 77 -138 77 -138 87.5 -113.5 c 128,-1,24
 98 -89 98 -89 98 -47 c 2,0,-1
179 610 m 0,25,26
 133 610 133 610 106 632 c 128,-1,27
 79 654 79 654 79 696 c 256,28,29
 79 738 79 738 106 759.5 c 128,-1,30
 133 781 133 781 179 781 c 0,31,32
 226 781 226 781 252.5 759.5 c 128,-1,33
 279 738 279 738 279 696 c 256,34,35
 279 654 279 654 252.5 632 c 128,-1,36
 226 610 226 610 179 610 c 0,25,26
EndSplineSet
EndChar

StartChar: k
Encoding: 107 107 100
Width: 719
GlyphClass: 2
Flags: W
AnchorPoint: "Anchor-1" 364 0 basechar 0
LayerCount: 2
Fore
SplineSet
701 0 m 1,0,-1
 391 0 l 1,1,-1
 391 66 l 1,2,-1
 396 66 l 2,3,4
 406 66 406 66 417 67 c 128,-1,5
 428 68 428 68 435 70 c 128,-1,6
 442 72 442 72 442 75 c 2,7,-1
 298 274 l 1,8,-1
 298 292 l 1,9,-1
 479 458 l 1,10,11
 479 464 479 464 467 467.5 c 128,-1,12
 455 471 455 471 438 472.5 c 128,-1,13
 421 474 421 474 405 474 c 2,14,-1
 394 474 l 1,15,-1
 394 540 l 1,16,-1
 668 540 l 1,17,-1
 668 474 l 1,18,-1
 657 474 l 2,19,20
 636 474 636 474 619.5 470 c 128,-1,21
 603 466 603 466 588.5 457.5 c 128,-1,22
 574 449 574 449 559 435 c 2,23,-1
 385 275 l 1,24,-1
 424 362 l 1,25,-1
 620 101 l 2,26,27
 631 87 631 87 642.5 79.5 c 128,-1,28
 654 72 654 72 667.5 69 c 128,-1,29
 681 66 681 66 696 66 c 2,30,-1
 701 66 l 1,31,-1
 701 0 l 1,0,-1
269 758 m 1,32,-1
 269 75 l 2,33,34
 269 72 269 72 277 69.5 c 128,-1,35
 285 67 285 67 295.5 66.5 c 128,-1,36
 306 66 306 66 315 66 c 2,37,-1
 319 66 l 1,38,-1
 319 0 l 1,39,-1
 34 0 l 1,40,-1
 34 66 l 1,41,-1
 36 66 l 2,42,43
 54 66 54 66 67 70.5 c 128,-1,44
 80 75 80 75 87 86 c 128,-1,45
 94 97 94 97 94 116 c 2,46,-1
 94 650 l 2,47,48
 94 660 94 660 88.5 666 c 128,-1,49
 83 672 83 672 71.5 676 c 128,-1,50
 60 680 60 680 42 683 c 2,51,-1
 33 685 l 1,52,-1
 33 758 l 1,53,-1
 269 758 l 1,32,-1
EndSplineSet
EndChar

StartChar: l
Encoding: 108 108 101
Width: 352
GlyphClass: 2
Flags: W
AnchorPoint: "Anchor-2" 307 735 basechar 0
AnchorPoint: "Anchor-1" 188 0 basechar 0
AnchorPoint: "Anchor-0" 185 746 basechar 0
LayerCount: 2
Fore
SplineSet
270 758 m 1,0,-1
 270 114 l 2,1,2
 270 86 270 86 285.5 76 c 128,-1,3
 301 66 301 66 327 66 c 2,4,-1
 330 66 l 1,5,-1
 330 0 l 1,6,-1
 34 0 l 1,7,-1
 34 66 l 1,8,-1
 37 66 l 2,9,10
 64 66 64 66 79.5 76 c 128,-1,11
 95 86 95 86 95 114 c 2,12,-1
 95 650 l 2,13,14
 95 660 95 660 89.5 666 c 128,-1,15
 84 672 84 672 72.5 676 c 128,-1,16
 61 680 61 680 43 683 c 2,17,-1
 34 685 l 1,18,-1
 34 758 l 1,19,-1
 270 758 l 1,0,-1
EndSplineSet
EndChar

StartChar: m
Encoding: 109 109 102
Width: 1023
GlyphClass: 2
Flags: W
AnchorPoint: "Anchor-1" 518 -10 basechar 0
LayerCount: 2
Fore
SplineSet
33 0 m 1,0,-1
 33 66 l 1,1,-1
 36 66 l 2,2,3
 63 66 63 66 78 76.5 c 128,-1,4
 93 87 93 87 93 116 c 2,5,-1
 93 431 l 2,6,7
 93 441 93 441 87.5 447 c 128,-1,8
 82 453 82 453 71 456.5 c 128,-1,9
 60 460 60 460 42 464 c 2,10,-1
 33 466 l 1,11,-1
 33 540 l 1,12,-1
 250 540 l 1,13,-1
 262 416 l 1,14,-1
 269 415 l 1,15,-1
 269 75 l 2,16,17
 269 72 269 72 276.5 69.5 c 128,-1,18
 284 67 284 67 294 66.5 c 128,-1,19
 304 66 304 66 313 66 c 2,20,-1
 316 66 l 1,21,-1
 316 0 l 1,22,-1
 33 0 l 1,0,-1
653 0 m 1,23,-1
 382 0 l 1,24,-1
 382 66 l 1,25,-1
 385 66 l 2,26,27
 394 66 394 66 404.5 66.5 c 128,-1,28
 415 67 415 67 422 69.5 c 128,-1,29
 429 72 429 72 429 75 c 2,30,-1
 429 380 l 2,31,32
 429 403 429 403 424.5 418 c 128,-1,33
 420 433 420 433 409 440.5 c 128,-1,34
 398 448 398 448 378 448 c 0,35,36
 356 448 356 448 335 436 c 128,-1,37
 314 424 314 424 291.5 398.5 c 128,-1,38
 269 373 269 373 244 332 c 1,39,-1
 247 411 l 1,40,41
 270 453 270 453 301 484.5 c 128,-1,42
 332 516 332 516 370 533.5 c 128,-1,43
 408 551 408 551 451 551 c 0,44,45
 500 551 500 551 534.5 532.5 c 128,-1,46
 569 514 569 514 587 477.5 c 128,-1,47
 605 441 605 441 605 387 c 2,48,-1
 605 75 l 2,49,50
 605 72 605 72 612.5 69.5 c 128,-1,51
 620 67 620 67 630.5 66.5 c 128,-1,52
 641 66 641 66 650 66 c 2,53,-1
 653 66 l 1,54,-1
 653 0 l 1,23,-1
1001 0 m 1,55,-1
 718 0 l 1,56,-1
 718 66 l 1,57,-1
 721 66 l 2,58,59
 731 66 731 66 741 67 c 128,-1,60
 751 68 751 68 758 70 c 128,-1,61
 765 72 765 72 765 75 c 2,62,-1
 765 380 l 2,63,64
 765 403 765 403 760.5 418 c 128,-1,65
 756 433 756 433 745 440.5 c 128,-1,66
 734 448 734 448 714 448 c 0,67,68
 692 448 692 448 670.5 435.5 c 128,-1,69
 649 423 649 423 627 397.5 c 128,-1,70
 605 372 605 372 580 333 c 1,71,-1
 583 412 l 1,72,73
 607 454 607 454 638 485 c 128,-1,74
 669 516 669 516 706.5 533.5 c 128,-1,75
 744 551 744 551 787 551 c 0,76,77
 836 551 836 551 870.5 532.5 c 128,-1,78
 905 514 905 514 923 477.5 c 128,-1,79
 941 441 941 441 941 387 c 2,80,-1
 941 116 l 2,81,82
 941 87 941 87 956.5 76.5 c 128,-1,83
 972 66 972 66 998 66 c 2,84,-1
 1001 66 l 1,85,-1
 1001 0 l 1,55,-1
EndSplineSet
EndChar

StartChar: n
Encoding: 110 110 103
Width: 705
GlyphClass: 2
Flags: W
AnchorPoint: "Anchor-1" 359 0 basechar 0
AnchorPoint: "Anchor-0" 350 540 basechar 0
LayerCount: 2
Fore
SplineSet
33 0 m 1,0,-1
 33 66 l 1,1,-1
 36 66 l 2,2,3
 54 66 54 66 66.5 70.5 c 128,-1,4
 79 75 79 75 86 86 c 128,-1,5
 93 97 93 97 93 116 c 2,6,-1
 93 431 l 2,7,8
 93 442 93 442 87.5 447.5 c 128,-1,9
 82 453 82 453 71 456.5 c 128,-1,10
 60 460 60 460 42 464 c 2,11,-1
 33 466 l 1,12,-1
 33 540 l 1,13,-1
 250 540 l 1,14,-1
 262 418 l 1,15,-1
 269 415 l 1,16,-1
 269 75 l 2,17,18
 269 72 269 72 277 70 c 128,-1,19
 285 68 285 68 296 67 c 128,-1,20
 307 66 307 66 316 66 c 2,21,-1
 320 66 l 1,22,-1
 320 0 l 1,23,-1
 33 0 l 1,0,-1
683 0 m 1,24,-1
 396 0 l 1,25,-1
 396 66 l 1,26,-1
 399 66 l 2,27,28
 409 66 409 66 420 66.5 c 128,-1,29
 431 67 431 67 439 69.5 c 128,-1,30
 447 72 447 72 447 75 c 2,31,-1
 447 381 l 2,32,33
 447 403 447 403 441.5 418 c 128,-1,34
 436 433 436 433 423 440.5 c 128,-1,35
 410 448 410 448 388 448 c 0,36,37
 364 448 364 448 340 434.5 c 128,-1,38
 316 421 316 421 292.5 395 c 128,-1,39
 269 369 269 369 244 328 c 1,40,-1
 247 407 l 1,41,42
 269 451 269 451 301.5 483 c 128,-1,43
 334 515 334 515 374.5 533 c 128,-1,44
 415 551 415 551 460 551 c 0,45,46
 512 551 512 551 548 532.5 c 128,-1,47
 584 514 584 514 603.5 477.5 c 128,-1,48
 623 441 623 441 623 387 c 2,49,-1
 623 116 l 2,50,51
 623 97 623 97 630 86 c 128,-1,52
 637 75 637 75 649.5 70.5 c 128,-1,53
 662 66 662 66 680 66 c 2,54,-1
 683 66 l 1,55,-1
 683 0 l 1,24,-1
EndSplineSet
EndChar

StartChar: o
Encoding: 111 111 105
Width: 669
GlyphClass: 2
Flags: W
AnchorPoint: "Anchor-2" 448 0 basechar 0
AnchorPoint: "Anchor-1" 335 0 basechar 0
AnchorPoint: "Anchor-0" 335 540 basechar 0
LayerCount: 2
Fore
SplineSet
632 269 m 0,0,1
 632 183 632 183 596.5 120 c 128,-1,2
 561 57 561 57 494.5 22.5 c 128,-1,3
 428 -12 428 -12 335 -12 c 0,4,5
 241 -12 241 -12 174.5 22.5 c 128,-1,6
 108 57 108 57 72.5 120 c 128,-1,7
 37 183 37 183 37 269 c 0,8,9
 37 334 37 334 57 386 c 128,-1,10
 77 438 77 438 116 475 c 128,-1,11
 155 512 155 512 210 531.5 c 128,-1,12
 265 551 265 551 335 551 c 256,13,14
 405 551 405 551 459.5 531.5 c 128,-1,15
 514 512 514 512 553 475 c 128,-1,16
 592 438 592 438 612 386 c 128,-1,17
 632 334 632 334 632 269 c 0,0,1
218 269 m 256,18,19
 218 200 218 200 230 155.5 c 128,-1,20
 242 111 242 111 268 90.5 c 128,-1,21
 294 70 294 70 335 70 c 256,22,23
 376 70 376 70 401.5 90.5 c 128,-1,24
 427 111 427 111 439 155.5 c 128,-1,25
 451 200 451 200 451 269 c 256,26,27
 451 338 451 338 439 382 c 128,-1,28
 427 426 427 426 401.5 446.5 c 128,-1,29
 376 467 376 467 335 467 c 256,30,31
 294 467 294 467 268 446.5 c 128,-1,32
 242 426 242 426 230 382 c 128,-1,33
 218 338 218 338 218 269 c 256,18,19
EndSplineSet
EndChar

StartChar: p
Encoding: 112 112 111
Width: 711
GlyphClass: 2
Flags: W
AnchorPoint: "Anchor-0" 340 508 basechar 0
LayerCount: 2
Fore
SplineSet
348 -223 m 1,0,-1
 33 -223 l 1,1,-1
 33 -157 l 1,2,-1
 36 -157 l 2,3,4
 54 -157 54 -157 66.5 -152.5 c 128,-1,5
 79 -148 79 -148 85.5 -137 c 128,-1,6
 92 -126 92 -126 92 -107 c 2,7,-1
 92 431 l 2,8,9
 92 441 92 441 86.5 447 c 128,-1,10
 81 453 81 453 70 456.5 c 128,-1,11
 59 460 59 460 41 464 c 2,12,-1
 32 466 l 1,13,-1
 32 540 l 1,14,-1
 248 540 l 1,15,-1
 262 397 l 1,16,-1
 268 395 l 1,17,-1
 268 -148 l 2,18,19
 268 -151 268 -151 278.5 -153 c 128,-1,20
 289 -155 289 -155 304.5 -156 c 128,-1,21
 320 -157 320 -157 335 -157 c 2,22,-1
 348 -157 l 1,23,-1
 348 -223 l 1,0,-1
429 -11 m 0,24,25
 385 -11 385 -11 350 4 c 128,-1,26
 315 19 315 19 287.5 48.5 c 128,-1,27
 260 78 260 78 239 119 c 1,28,-1
 240 201 l 1,29,30
 263 165 263 165 283.5 139 c 128,-1,31
 304 113 304 113 327.5 99 c 128,-1,32
 351 85 351 85 382 85 c 0,33,34
 410 85 410 85 431.5 97 c 128,-1,35
 453 109 453 109 466.5 133.5 c 128,-1,36
 480 158 480 158 486.5 193 c 128,-1,37
 493 228 493 228 493 275 c 0,38,39
 493 320 493 320 487.5 353.5 c 128,-1,40
 482 387 482 387 469.5 409.5 c 128,-1,41
 457 432 457 432 437.5 443 c 128,-1,42
 418 454 418 454 390 454 c 0,43,44
 359 454 359 454 334.5 440.5 c 128,-1,45
 310 427 310 427 287.5 399 c 128,-1,46
 265 371 265 371 239 327 c 1,47,-1
 239 402 l 1,48,49
 263 450 263 450 291 483 c 128,-1,50
 319 516 319 516 355 533 c 128,-1,51
 391 550 391 550 440 550 c 0,52,53
 515 550 515 550 567 515.5 c 128,-1,54
 619 481 619 481 646 419 c 128,-1,55
 673 357 673 357 673 275 c 256,56,57
 673 193 673 193 644 128 c 128,-1,58
 615 63 615 63 560 26 c 128,-1,59
 505 -11 505 -11 429 -11 c 0,24,25
EndSplineSet
EndChar

StartChar: q
Encoding: 113 113 112
Width: 696
GlyphClass: 1
Flags: W
LayerCount: 2
Fore
SplineSet
363 -223 m 1,0,-1
 363 -157 l 1,1,-1
 376 -157 l 2,2,3
 392 -157 392 -157 407 -156 c 128,-1,4
 422 -155 422 -155 432.5 -153 c 128,-1,5
 443 -151 443 -151 443 -148 c 2,6,-1
 443 426 l 1,7,-1
 455 420 l 1,8,-1
 513 544 l 1,9,-1
 619 544 l 1,10,-1
 619 -107 l 2,11,12
 619 -136 619 -136 634 -146.5 c 128,-1,13
 649 -157 649 -157 675 -157 c 2,14,-1
 678 -157 l 1,15,-1
 678 -223 l 1,16,-1
 363 -223 l 1,0,-1
281 550 m 0,17,18
 334 550 334 550 371.5 532.5 c 128,-1,19
 409 515 409 515 436.5 481.5 c 128,-1,20
 464 448 464 448 483 399 c 1,21,-1
 479 327 l 1,22,23
 452 370 452 370 430 398 c 128,-1,24
 408 426 408 426 384.5 440 c 128,-1,25
 361 454 361 454 329 454 c 0,26,27
 300 454 300 454 279 442 c 128,-1,28
 258 430 258 430 244.5 406 c 128,-1,29
 231 382 231 382 224.5 346.5 c 128,-1,30
 218 311 218 311 218 264 c 0,31,32
 218 219 218 219 223.5 185.5 c 128,-1,33
 229 152 229 152 241.5 129.5 c 128,-1,34
 254 107 254 107 273.5 96 c 128,-1,35
 293 85 293 85 321 85 c 0,36,37
 352 85 352 85 376.5 99 c 128,-1,38
 401 113 401 113 425.5 144 c 128,-1,39
 450 175 450 175 479 225 c 1,40,-1
 480 151 l 1,41,42
 456 99 456 99 427 63 c 128,-1,43
 398 27 398 27 360.5 8 c 128,-1,44
 323 -11 323 -11 272 -11 c 0,45,46
 197 -11 197 -11 144.5 23.5 c 128,-1,47
 92 58 92 58 64.5 120 c 128,-1,48
 37 182 37 182 37 264 c 0,49,50
 37 347 37 347 66.5 411.5 c 128,-1,51
 96 476 96 476 151 513 c 128,-1,52
 206 550 206 550 281 550 c 0,17,18
EndSplineSet
EndChar

StartChar: r
Encoding: 114 114 113
Width: 496
GlyphClass: 2
Flags: W
AnchorPoint: "Anchor-1" 204 0 basechar 0
AnchorPoint: "Anchor-0" 268 540 basechar 0
LayerCount: 2
Fore
SplineSet
465 544 m 1,0,-1
 465 385 l 1,1,2
 457 386 457 386 443.5 387.5 c 128,-1,3
 430 389 430 389 414.5 390 c 128,-1,4
 399 391 399 391 385 391 c 0,5,6
 363 391 363 391 343.5 388 c 128,-1,7
 324 385 324 385 307.5 378 c 128,-1,8
 291 371 291 371 277 360.5 c 128,-1,9
 263 350 263 350 250 333 c 1,10,-1
 247 371 l 1,11,12
 271 428 271 428 294.5 468 c 128,-1,13
 318 508 318 508 348.5 529 c 128,-1,14
 379 550 379 550 424 550 c 0,15,16
 438 550 438 550 449 548 c 128,-1,17
 460 546 460 546 465 544 c 1,0,-1
33 0 m 1,18,-1
 33 66 l 1,19,-1
 36 66 l 2,20,21
 63 66 63 66 78 76.5 c 128,-1,22
 93 87 93 87 93 116 c 2,23,-1
 93 431 l 2,24,25
 93 441 93 441 87.5 447 c 128,-1,26
 82 453 82 453 71 456.5 c 128,-1,27
 60 460 60 460 42 464 c 2,28,-1
 33 466 l 1,29,-1
 33 540 l 1,30,-1
 249 540 l 1,31,-1
 263 384 l 1,32,-1
 269 387 l 1,33,-1
 269 80 l 2,34,35
 269 74 269 74 279.5 71 c 128,-1,36
 290 68 290 68 306 67 c 128,-1,37
 322 66 322 66 337 66 c 2,38,-1
 348 66 l 1,39,-1
 348 0 l 1,40,-1
 33 0 l 1,18,-1
EndSplineSet
EndChar

StartChar: s
Encoding: 115 115 114
Width: 556
GlyphClass: 2
Flags: W
AnchorPoint: "Anchor-1" 283 0 basechar 0
AnchorPoint: "Anchor-0" 280 540 basechar 0
LayerCount: 2
Fore
SplineSet
362 134 m 0,0,1
 362 154 362 154 351.5 167 c 128,-1,2
 341 180 341 180 323 188 c 128,-1,3
 305 196 305 196 282 201.5 c 128,-1,4
 259 207 259 207 234 213 c 0,5,6
 200 221 200 221 167 231.5 c 128,-1,7
 134 242 134 242 107 260 c 128,-1,8
 80 278 80 278 64 307 c 128,-1,9
 48 336 48 336 48 380 c 0,10,11
 48 439 48 439 77.5 476.5 c 128,-1,12
 107 514 107 514 160.5 533 c 128,-1,13
 214 552 214 552 286 552 c 0,14,15
 344 552 344 552 386.5 545 c 128,-1,16
 429 538 429 538 455.5 529 c 128,-1,17
 482 520 482 520 492 514 c 1,18,-1
 492 392 l 1,19,-1
 366 392 l 1,20,-1
 366 488 l 1,21,22
 381 490 381 490 389 486 c 128,-1,23
 397 482 397 482 400 475.5 c 128,-1,24
 403 469 403 469 402.5 461 c 128,-1,25
 402 453 402 453 400 445 c 1,26,27
 388 455 388 455 371 461.5 c 128,-1,28
 354 468 354 468 333 471.5 c 128,-1,29
 312 475 312 475 286 475 c 0,30,31
 241 475 241 475 219.5 460.5 c 128,-1,32
 198 446 198 446 198 417 c 0,33,34
 198 398 198 398 208 386 c 128,-1,35
 218 374 218 374 236.5 366 c 128,-1,36
 255 358 255 358 279 352 c 128,-1,37
 303 346 303 346 330 340 c 0,38,39
 365 332 365 332 399 321 c 128,-1,40
 433 310 433 310 461 291.5 c 128,-1,41
 489 273 489 273 506 244 c 128,-1,42
 523 215 523 215 523 172 c 0,43,44
 523 111 523 111 494.5 70 c 128,-1,45
 466 29 466 29 408 8.5 c 128,-1,46
 350 -12 350 -12 263 -12 c 0,47,48
 207 -12 207 -12 162 -4.5 c 128,-1,49
 117 3 117 3 85.5 14 c 128,-1,50
 54 25 54 25 37 35 c 1,51,-1
 37 167 l 1,52,-1
 166 167 l 1,53,-1
 166 39 l 1,54,55
 147 46 147 46 136.5 55.5 c 128,-1,56
 126 65 126 65 122.5 75 c 128,-1,57
 119 85 119 85 121.5 91.5 c 128,-1,58
 124 98 124 98 131 98 c 0,59,60
 144 89 144 89 163.5 81.5 c 128,-1,61
 183 74 183 74 208.5 69.5 c 128,-1,62
 234 65 234 65 264 65 c 0,63,64
 298 65 298 65 319.5 72 c 128,-1,65
 341 79 341 79 351.5 94.5 c 128,-1,66
 362 110 362 110 362 134 c 0,0,1
EndSplineSet
EndChar

StartChar: scaron
Encoding: 154 353 116
Width: 556
GlyphClass: 1
Flags: W
LayerCount: 2
Fore
SplineSet
213 605 m 1,0,-1
 338 605 l 1,1,-1
 466 774 l 1,2,-1
 466 804 l 1,3,-1
 404 804 l 1,4,-1
 237 684 l 1,5,-1
 323 685 l 1,6,-1
 155 804 l 1,7,-1
 84 804 l 1,8,-1
 84 774 l 1,9,-1
 213 605 l 1,0,-1
362 134 m 0,10,11
 362 154 362 154 351.5 167 c 128,-1,12
 341 180 341 180 323 188 c 128,-1,13
 305 196 305 196 282 201.5 c 128,-1,14
 259 207 259 207 234 213 c 0,15,16
 200 221 200 221 167 231.5 c 128,-1,17
 134 242 134 242 107 260 c 128,-1,18
 80 278 80 278 64 307 c 128,-1,19
 48 336 48 336 48 380 c 0,20,21
 48 439 48 439 77.5 476.5 c 128,-1,22
 107 514 107 514 160.5 533 c 128,-1,23
 214 552 214 552 286 552 c 0,24,25
 344 552 344 552 386.5 545 c 128,-1,26
 429 538 429 538 455.5 529 c 128,-1,27
 482 520 482 520 492 514 c 1,28,-1
 492 392 l 1,29,-1
 366 392 l 1,30,-1
 366 488 l 1,31,32
 381 490 381 490 389 486 c 128,-1,33
 397 482 397 482 400 475.5 c 128,-1,34
 403 469 403 469 402.5 461 c 128,-1,35
 402 453 402 453 400 445 c 1,36,37
 388 455 388 455 371 461.5 c 128,-1,38
 354 468 354 468 333 471.5 c 128,-1,39
 312 475 312 475 286 475 c 0,40,41
 241 475 241 475 219.5 460.5 c 128,-1,42
 198 446 198 446 198 417 c 0,43,44
 198 398 198 398 208 386 c 128,-1,45
 218 374 218 374 236.5 366 c 128,-1,46
 255 358 255 358 279 352 c 128,-1,47
 303 346 303 346 330 340 c 0,48,49
 365 332 365 332 399 321 c 128,-1,50
 433 310 433 310 461 291.5 c 128,-1,51
 489 273 489 273 506 244 c 128,-1,52
 523 215 523 215 523 172 c 0,53,54
 523 111 523 111 494.5 70 c 128,-1,55
 466 29 466 29 408 8.5 c 128,-1,56
 350 -12 350 -12 263 -12 c 0,57,58
 207 -12 207 -12 162 -4.5 c 128,-1,59
 117 3 117 3 85.5 14 c 128,-1,60
 54 25 54 25 37 35 c 1,61,-1
 37 167 l 1,62,-1
 166 167 l 1,63,-1
 166 39 l 1,64,65
 147 46 147 46 136.5 55.5 c 128,-1,66
 126 65 126 65 122.5 75 c 128,-1,67
 119 85 119 85 121.5 91.5 c 128,-1,68
 124 98 124 98 131 98 c 0,69,70
 144 89 144 89 163.5 81.5 c 128,-1,71
 183 74 183 74 208.5 69.5 c 128,-1,72
 234 65 234 65 264 65 c 0,73,74
 298 65 298 65 319.5 72 c 128,-1,75
 341 79 341 79 351.5 94.5 c 128,-1,76
 362 110 362 110 362 134 c 0,10,11
EndSplineSet
EndChar

StartChar: t
Encoding: 116 116 117
Width: 455
GlyphClass: 2
Flags: W
AnchorPoint: "Anchor-2" 357 681 basechar 0
AnchorPoint: "Anchor-1" 298 0 basechar 0
AnchorPoint: "Anchor-0" 190 675 basechar 0
LayerCount: 2
Fore
SplineSet
12 460 m 1,0,-1
 12 535 l 1,1,-1
 20 535 l 2,2,3
 45 535 45 535 63.5 539 c 128,-1,4
 82 543 82 543 92.5 555.5 c 128,-1,5
 103 568 103 568 103 592 c 1,6,-1
 207 540 l 1,7,-1
 426 540 l 1,8,-1
 426 460 l 1,9,-1
 12 460 l 1,0,-1
271 171 m 2,10,11
 271 136 271 136 281 116 c 128,-1,12
 291 96 291 96 310 88.5 c 128,-1,13
 329 81 329 81 355 81 c 0,14,15
 379 81 379 81 398.5 84.5 c 128,-1,16
 418 88 418 88 425 90 c 1,17,-1
 425 5 l 1,18,19
 415 1 415 1 396 -2.5 c 128,-1,20
 377 -6 377 -6 354 -8.5 c 128,-1,21
 331 -11 331 -11 305 -11 c 0,22,23
 245 -11 245 -11 198 4 c 128,-1,24
 151 19 151 19 123.5 57 c 128,-1,25
 96 95 96 95 96 163 c 2,26,-1
 96 522 l 1,27,-1
 103 530 l 1,28,-1
 103 692 l 1,29,-1
 271 692 l 1,30,-1
 271 171 l 2,10,11
EndSplineSet
EndChar

StartChar: u
Encoding: 117 117 118
Width: 694
GlyphClass: 2
Flags: W
AnchorPoint: "Anchor-2" 506 0 basechar 0
AnchorPoint: "Anchor-1" 321 0 basechar 0
AnchorPoint: "Anchor-0" 325 540 basechar 0
LayerCount: 2
Fore
SplineSet
260 540 m 1,0,-1
 260 161 l 2,1,2
 260 139 260 139 265.5 123.5 c 128,-1,3
 271 108 271 108 284 100.5 c 128,-1,4
 297 93 297 93 318 93 c 0,5,6
 342 93 342 93 365 105.5 c 128,-1,7
 388 118 388 118 411.5 144.5 c 128,-1,8
 435 171 435 171 459 212 c 1,9,-1
 457 132 l 1,10,11
 434 88 434 88 401.5 56 c 128,-1,12
 369 24 369 24 329.5 7 c 128,-1,13
 290 -10 290 -10 246 -10 c 0,14,15
 195 -10 195 -10 159 8.5 c 128,-1,16
 123 27 123 27 104 64 c 128,-1,17
 85 101 85 101 85 153 c 2,18,-1
 85 431 l 2,19,20
 85 447 85 447 72.5 453.5 c 128,-1,21
 60 460 60 460 33 464 c 2,22,-1
 21 466 l 1,23,-1
 21 540 l 1,24,-1
 260 540 l 1,0,-1
610 540 m 1,25,-1
 610 106 l 2,26,27
 610 95 610 95 616 89 c 128,-1,28
 622 83 622 83 634 80 c 128,-1,29
 646 77 646 77 663 74 c 2,30,-1
 670 72 l 1,31,-1
 670 0 l 1,32,-1
 455 0 l 1,33,-1
 441 124 l 1,34,-1
 434 130 l 1,35,-1
 434 431 l 2,36,37
 434 447 434 447 418 454 c 128,-1,38
 402 461 402 461 376 464 c 2,39,-1
 358 467 l 1,40,-1
 358 540 l 1,41,-1
 610 540 l 1,25,-1
EndSplineSet
EndChar

StartChar: v
Encoding: 118 118 124
Width: 651
GlyphClass: 2
Flags: W
AnchorPoint: "Anchor-0" 308 508 basechar 0
LayerCount: 2
Fore
SplineSet
489 449 m 2,0,1
 489 454 489 454 480 459 c 128,-1,2
 471 464 471 464 457.5 467 c 128,-1,3
 444 470 444 470 427 470 c 2,4,-1
 423 470 l 1,5,-1
 423 540 l 1,6,-1
 635 540 l 1,7,-1
 635 468 l 1,8,-1
 630 468 l 2,9,10
 614 468 614 468 602.5 463.5 c 128,-1,11
 591 459 591 459 582.5 448 c 128,-1,12
 574 437 574 437 566 418 c 2,13,-1
 413 -3 l 1,14,-1
 236 -3 l 1,15,-1
 85 423 l 2,16,17
 79 441 79 441 70.5 450.5 c 128,-1,18
 62 460 62 460 50 464 c 128,-1,19
 38 468 38 468 21 468 c 2,20,-1
 16 468 l 1,21,-1
 16 540 l 1,22,-1
 319 540 l 1,23,-1
 319 470 l 1,24,-1
 314 470 l 2,25,26
 298 470 298 470 283 469 c 128,-1,27
 268 468 268 468 258.5 466.5 c 128,-1,28
 249 465 249 465 249 461 c 2,29,-1
 387 59 l 1,30,-1
 362 95 l 1,31,-1
 489 449 l 2,0,1
EndSplineSet
EndChar

StartChar: w
Encoding: 119 119 125
Width: 949
GlyphClass: 2
Flags: W
AnchorPoint: "Anchor-0" 481 540 basechar 0
LayerCount: 2
Fore
SplineSet
490 422 m 1,0,-1
 461 425 l 1,1,-1
 574 -3 l 1,2,-1
 749 -3 l 1,3,-1
 864 417 l 2,4,5
 870 436 870 436 878.5 447 c 128,-1,6
 887 458 887 458 899.5 463 c 128,-1,7
 912 468 912 468 928 468 c 2,8,-1
 932 468 l 1,9,-1
 932 540 l 1,10,-1
 721 540 l 1,11,-1
 721 470 l 1,12,-1
 725 470 l 2,13,14
 742 470 742 470 755.5 467 c 128,-1,15
 769 464 769 464 777.5 459 c 128,-1,16
 786 454 786 454 786 449 c 2,17,-1
 689 75 l 1,18,-1
 717 71 l 1,19,-1
 592 540 l 1,20,-1
 444 540 l 1,21,-1
 315 74 l 1,22,-1
 344 71 l 1,23,-1
 248 461 l 2,24,25
 248 465 248 465 257 466.5 c 128,-1,26
 266 468 266 468 281 469 c 128,-1,27
 296 470 296 470 312 470 c 2,28,-1
 317 470 l 1,29,-1
 317 540 l 1,30,-1
 16 540 l 1,31,-1
 16 468 l 1,32,-1
 21 468 l 2,33,34
 38 468 38 468 50 464 c 128,-1,35
 62 460 62 460 70.5 450.5 c 128,-1,36
 79 441 79 441 84 423 c 2,37,-1
 196 -3 l 1,38,-1
 371 -3 l 1,39,-1
 490 422 l 1,0,-1
EndSplineSet
EndChar

StartChar: x
Encoding: 120 120 126
Width: 658
GlyphClass: 2
Flags: W
AnchorPoint: "Anchor-1" 275 0 basechar 0
AnchorPoint: "Anchor-0" 299 508 basechar 0
LayerCount: 2
Fore
SplineSet
641 0 m 1,0,-1
 327 0 l 1,1,-1
 327 68 l 1,2,-1
 329 68 l 2,3,4
 345 68 345 68 358 68.5 c 128,-1,5
 371 69 371 69 379.5 71 c 128,-1,6
 388 73 388 73 388 76 c 2,7,-1
 253 249 l 1,8,-1
 242 251 l 1,9,-1
 93 439 l 2,10,11
 85 450 85 450 76 456.5 c 128,-1,12
 67 463 67 463 56.5 466 c 128,-1,13
 46 469 46 469 29 469 c 2,14,-1
 25 469 l 1,15,-1
 25 540 l 1,16,-1
 340 540 l 1,17,-1
 340 472 l 1,18,-1
 337 472 l 2,19,20
 322 472 322 472 308.5 471.5 c 128,-1,21
 295 471 295 471 286.5 469.5 c 128,-1,22
 278 468 278 468 278 465 c 2,23,-1
 403 302 l 1,24,-1
 414 299 l 1,25,-1
 572 102 l 2,26,27
 581 91 581 91 589.5 83.5 c 128,-1,28
 598 76 598 76 609.5 72.5 c 128,-1,29
 621 69 621 69 638 69 c 2,30,-1
 641 69 l 1,31,-1
 641 0 l 1,0,-1
18 0 m 1,32,-1
 18 69 l 1,33,-1
 20 69 l 2,34,35
 43 69 43 69 59 78.5 c 128,-1,36
 75 88 75 88 91 109 c 2,37,-1
 237 292 l 1,38,-1
 302 257 l 1,39,-1
 174 90 l 2,40,41
 174 84 174 84 182.5 79 c 128,-1,42
 191 74 191 74 205 71 c 128,-1,43
 219 68 219 68 234 68 c 2,44,-1
 236 68 l 1,45,-1
 236 0 l 1,46,-1
 18 0 l 1,32,-1
419 259 m 1,47,-1
 355 297 l 1,48,-1
 478 451 l 2,49,50
 478 457 478 457 470 462 c 128,-1,51
 462 467 462 467 449.5 469.5 c 128,-1,52
 437 472 437 472 422 472 c 2,53,-1
 418 472 l 1,54,-1
 418 540 l 1,55,-1
 630 540 l 1,56,-1
 630 470 l 1,57,-1
 626 470 l 2,58,59
 613 470 613 470 602 466.5 c 128,-1,60
 591 463 591 463 580.5 454.5 c 128,-1,61
 570 446 570 446 558 432 c 2,62,-1
 419 259 l 1,47,-1
EndSplineSet
EndChar

StartChar: y
Encoding: 121 121 127
Width: 660
GlyphClass: 2
Flags: W
AnchorPoint: "Anchor-1" 344 -211 basechar 0
AnchorPoint: "Anchor-0" 334 540 basechar 0
LayerCount: 2
Fore
SplineSet
399 103 m 1,0,-1
 353 22 l 1,1,-1
 296 -51 l 1,2,-1
 85 427 l 2,3,4
 78 443 78 443 70 452 c 128,-1,5
 62 461 62 461 50.5 464 c 128,-1,6
 39 467 39 467 22 467 c 2,7,-1
 16 467 l 1,8,-1
 16 540 l 1,9,-1
 320 540 l 1,10,-1
 320 469 l 1,11,-1
 315 469 l 2,12,13
 299 469 299 469 284 468.5 c 128,-1,14
 269 468 269 468 260 466.5 c 128,-1,15
 251 465 251 465 251 461 c 2,16,-1
 399 103 l 1,0,-1
399 17 m 2,17,18
 369 -52 369 -52 340.5 -101 c 128,-1,19
 312 -150 312 -150 282.5 -180.5 c 128,-1,20
 253 -211 253 -211 217.5 -225 c 128,-1,21
 182 -239 182 -239 136 -239 c 0,22,23
 103 -239 103 -239 76.5 -232.5 c 128,-1,24
 50 -226 50 -226 38 -218 c 1,25,-1
 38 -97 l 1,26,27
 42 -98 42 -98 58 -103.5 c 128,-1,28
 74 -109 74 -109 98 -114 c 128,-1,29
 122 -119 122 -119 148 -119 c 0,30,31
 176 -119 176 -119 198.5 -112 c 128,-1,32
 221 -105 221 -105 240.5 -87.5 c 128,-1,33
 260 -70 260 -70 277.5 -39 c 128,-1,34
 295 -8 295 -8 312 39 c 1,35,-1
 340 81 l 1,36,-1
 497 449 l 2,37,38
 497 455 497 455 488 459.5 c 128,-1,39
 479 464 479 464 465 466.5 c 128,-1,40
 451 469 451 469 434 469 c 2,41,-1
 429 469 l 1,42,-1
 429 540 l 1,43,-1
 644 540 l 1,44,-1
 644 467 l 1,45,-1
 639 467 l 2,46,47
 623 467 623 467 611.5 462.5 c 128,-1,48
 600 458 600 458 591 447.5 c 128,-1,49
 582 437 582 437 573 418 c 2,50,-1
 399 17 l 2,17,18
EndSplineSet
EndChar

StartChar: z
Encoding: 122 122 130
Width: 558
GlyphClass: 2
Flags: W
AnchorPoint: "Anchor-1" 308 0 basechar 0
AnchorPoint: "Anchor-0" 285 540 basechar 0
LayerCount: 2
Fore
SplineSet
202 60 m 1,0,-1
 189 79 l 1,1,-1
 346 79 l 2,2,3
 371 79 371 79 389 80.5 c 128,-1,4
 407 82 407 82 418.5 86.5 c 128,-1,5
 430 91 430 91 436.5 100 c 128,-1,6
 443 109 443 109 444 123 c 2,7,-1
 455 208 l 1,8,-1
 530 208 l 1,9,-1
 530 0 l 1,10,-1
 38 0 l 1,11,-1
 38 108 l 1,12,-1
 352 480 l 1,13,-1
 402 462 l 1,14,-1
 225 462 l 2,15,16
 199 462 199 462 181.5 460.5 c 128,-1,17
 164 459 164 459 153 454.5 c 128,-1,18
 142 450 142 450 135.5 442 c 128,-1,19
 129 434 129 434 127 419 c 2,20,-1
 118 347 l 1,21,-1
 44 347 l 1,22,-1
 44 540 l 1,23,-1
 513 540 l 1,24,-1
 513 436 l 1,25,-1
 202 60 l 1,0,-1
EndSplineSet
EndChar

StartChar: zcaron
Encoding: 158 382 131
Width: 558
GlyphClass: 1
Flags: W
LayerCount: 2
Fore
SplineSet
224 605 m 1,0,-1
 349 605 l 1,1,-1
 478 774 l 1,2,-1
 478 804 l 1,3,-1
 415 804 l 1,4,-1
 248 684 l 1,5,-1
 334 685 l 1,6,-1
 166 804 l 1,7,-1
 95 804 l 1,8,-1
 95 774 l 1,9,-1
 224 605 l 1,0,-1
202 60 m 1,10,-1
 189 79 l 1,11,-1
 346 79 l 2,12,13
 371 79 371 79 389 80.5 c 128,-1,14
 407 82 407 82 418.5 86.5 c 128,-1,15
 430 91 430 91 436 100 c 128,-1,16
 442 109 442 109 444 123 c 2,17,-1
 455 208 l 1,18,-1
 530 208 l 1,19,-1
 530 0 l 1,20,-1
 38 0 l 1,21,-1
 38 108 l 1,22,-1
 352 480 l 1,23,-1
 402 462 l 1,24,-1
 225 462 l 2,25,26
 200 462 200 462 182 460.5 c 128,-1,27
 164 459 164 459 153 454.5 c 128,-1,28
 142 450 142 450 135.5 441.5 c 128,-1,29
 129 433 129 433 127 419 c 2,30,-1
 118 347 l 1,31,-1
 44 347 l 1,32,-1
 44 540 l 1,33,-1
 513 540 l 1,34,-1
 513 436 l 1,35,-1
 202 60 l 1,10,-1
EndSplineSet
EndChar

StartChar: germandbls
Encoding: 223 223 132
Width: 711
GlyphClass: 1
Flags: W
LayerCount: 2
Fore
SplineSet
24 540 m 1,0,-1
 170 540 l 1,1,-1
 170 462 l 1,2,-1
 24 462 l 1,3,-1
 24 540 l 1,0,-1
397 431 m 1,4,-1
 445 454 l 1,5,-1
 445 414 l 1,6,-1
 420 439 l 1,7,8
 476 432 476 432 523 413.5 c 128,-1,9
 570 395 570 395 604.5 365 c 128,-1,10
 639 335 639 335 657.5 294 c 128,-1,11
 676 253 676 253 676 202 c 0,12,13
 676 147 676 147 661 107 c 128,-1,14
 646 67 646 67 618 41 c 128,-1,15
 590 15 590 15 550.5 2.5 c 128,-1,16
 511 -10 511 -10 463 -10 c 0,17,18
 427 -10 427 -10 399 -4.5 c 128,-1,19
 371 1 371 1 357 7 c 1,20,-1
 357 88 l 1,21,22
 361 87 361 87 369 84 c 128,-1,23
 377 81 377 81 389.5 78.5 c 128,-1,24
 402 76 402 76 415 76 c 0,25,26
 439 76 439 76 456.5 87 c 128,-1,27
 474 98 474 98 484.5 127 c 128,-1,28
 495 156 495 156 495 211 c 0,29,30
 495 254 495 254 485 286.5 c 128,-1,31
 475 319 475 319 457.5 340.5 c 128,-1,32
 440 362 440 362 415 373.5 c 128,-1,33
 390 385 390 385 360 386 c 2,34,-1
 357 386 l 1,35,-1
 357 467 l 1,36,37
 378 470 378 470 396 477 c 128,-1,38
 414 484 414 484 428 498.5 c 128,-1,39
 442 513 442 513 449.5 537.5 c 128,-1,40
 457 562 457 562 457 598 c 0,41,42
 457 644 457 644 438 665.5 c 128,-1,43
 419 687 419 687 377 687 c 0,44,45
 348 687 348 687 329 677 c 128,-1,46
 310 667 310 667 300.5 642.5 c 128,-1,47
 291 618 291 618 291 573 c 2,48,-1
 291 0 l 1,49,-1
 33 0 l 1,50,-1
 33 66 l 1,51,-1
 51 66 l 2,52,53
 82 66 82 66 99 77.5 c 128,-1,54
 116 89 116 89 116 118 c 2,55,-1
 116 566 l 2,56,57
 116 637 116 637 147 681 c 128,-1,58
 178 725 178 725 236.5 746.5 c 128,-1,59
 295 768 295 768 376 768 c 0,60,61
 460 768 460 768 515 748.5 c 128,-1,62
 570 729 570 729 598 692 c 128,-1,63
 626 655 626 655 626 603 c 0,64,65
 626 559 626 559 606 526.5 c 128,-1,66
 586 494 586 494 553 473 c 128,-1,67
 520 452 520 452 479.5 441.5 c 128,-1,68
 439 431 439 431 397 431 c 1,4,-1
EndSplineSet
EndChar

StartChar: ae
Encoding: 230 230 133
Width: 946
GlyphClass: 2
Flags: W
AnchorPoint: "Anchor-0" 480 540 basechar 0
LayerCount: 2
Fore
SplineSet
394 324 m 1,0,-1
 393 258 l 1,1,2
 347 251 347 251 314 242.5 c 128,-1,3
 281 234 281 234 259.5 223.5 c 128,-1,4
 238 213 238 213 226 200.5 c 128,-1,5
 214 188 214 188 209 173 c 128,-1,6
 204 158 204 158 204 141 c 0,7,8
 204 115 204 115 212.5 99.5 c 128,-1,9
 221 84 221 84 238 76.5 c 128,-1,10
 255 69 255 69 279 69 c 0,11,12
 305 69 305 69 327.5 80 c 128,-1,13
 350 91 350 91 370 114.5 c 128,-1,14
 390 138 390 138 408 175 c 1,15,-1
 450 147 l 1,16,17
 433 108 433 108 412.5 78.5 c 128,-1,18
 392 49 392 49 365.5 29 c 128,-1,19
 339 9 339 9 305 -1 c 128,-1,20
 271 -11 271 -11 227 -11 c 0,21,22
 167 -11 167 -11 125 4.5 c 128,-1,23
 83 20 83 20 62 52 c 128,-1,24
 41 84 41 84 41 132 c 0,25,26
 41 175 41 175 60.5 205.5 c 128,-1,27
 80 236 80 236 122 258 c 128,-1,28
 164 280 164 280 231 296 c 128,-1,29
 298 312 298 312 394 324 c 1,0,-1
299 551 m 0,30,31
 351 551 351 551 388 541.5 c 128,-1,32
 425 532 425 532 448 511.5 c 128,-1,33
 471 491 471 491 482 458 c 128,-1,34
 493 425 493 425 493 378 c 1,35,-1
 378 293 l 1,36,-1
 378 399 l 2,37,38
 378 423 378 423 370.5 439 c 128,-1,39
 363 455 363 455 344.5 462.5 c 128,-1,40
 326 470 326 470 293 470 c 0,41,42
 246 470 246 470 215.5 457.5 c 128,-1,43
 185 445 185 445 172 430 c 1,44,45
 165 436 165 436 164.5 444 c 128,-1,46
 164 452 164 452 170 460 c 128,-1,47
 176 468 176 468 187 473.5 c 128,-1,48
 198 479 198 479 215 479 c 1,49,-1
 215 363 l 1,50,-1
 73 363 l 1,51,-1
 73 489 l 1,52,53
 88 500 88 500 119.5 514.5 c 128,-1,54
 151 529 151 529 196.5 540 c 128,-1,55
 242 551 242 551 299 551 c 0,30,31
694 74 m 0,56,57
 732 74 732 74 758.5 86 c 128,-1,58
 785 98 785 98 804.5 118.5 c 128,-1,59
 824 139 824 139 839 164 c 1,60,-1
 907 116 l 1,61,62
 885 76 885 76 853 47.5 c 128,-1,63
 821 19 821 19 777 4 c 128,-1,64
 733 -11 733 -11 672 -11 c 0,65,66
 582 -11 582 -11 516 21 c 128,-1,67
 450 53 450 53 414 117 c 128,-1,68
 378 181 378 181 378 275 c 0,69,70
 378 299 378 299 383.5 314.5 c 128,-1,71
 389 330 389 330 399 340.5 c 128,-1,72
 409 351 409 351 421 359 c 128,-1,73
 433 367 433 367 447 376 c 1,74,75
 457 417 457 417 476 449.5 c 128,-1,76
 495 482 495 482 522.5 505 c 128,-1,77
 550 528 550 528 585.5 539.5 c 128,-1,78
 621 551 621 551 665 551 c 0,79,80
 726 551 726 551 772 531.5 c 128,-1,81
 818 512 818 512 849 473 c 128,-1,82
 880 434 880 434 896 376 c 128,-1,83
 912 318 912 318 913 240 c 1,84,-1
 474 240 l 1,85,-1
 473 311 l 1,86,-1
 774 311 l 1,87,-1
 751 282 l 1,88,89
 749 338 749 338 743.5 375 c 128,-1,90
 738 412 738 412 727.5 433 c 128,-1,91
 717 454 717 454 699.5 463 c 128,-1,92
 682 472 682 472 658 472 c 0,93,94
 633 472 633 472 613 461.5 c 128,-1,95
 593 451 593 451 579 427 c 128,-1,96
 565 403 565 403 558 364 c 128,-1,97
 551 325 551 325 551 267 c 0,98,99
 551 215 551 215 560 177.5 c 128,-1,100
 569 140 569 140 586.5 117.5 c 128,-1,101
 604 95 604 95 631 84.5 c 128,-1,102
 658 74 658 74 694 74 c 0,56,57
EndSplineSet
EndChar

StartChar: eth
Encoding: 240 240 134
Width: 664
GlyphClass: 1
Flags: W
LayerCount: 2
Fore
SplineSet
468 423 m 1,0,-1
 473 345 l 1,1,2
 456 378 456 378 437.5 402 c 128,-1,3
 419 426 419 426 394.5 439.5 c 128,-1,4
 370 453 370 453 338 453 c 256,5,6
 306 453 306 453 283.5 440.5 c 128,-1,7
 261 428 261 428 246.5 404 c 128,-1,8
 232 380 232 380 225 345 c 128,-1,9
 218 310 218 310 218 264 c 0,10,11
 218 195 218 195 230.5 152.5 c 128,-1,12
 243 110 243 110 268.5 90.5 c 128,-1,13
 294 71 294 71 332 71 c 0,14,15
 363 71 363 71 385 83 c 128,-1,16
 407 95 407 95 421 122.5 c 128,-1,17
 435 150 435 150 441.5 196.5 c 128,-1,18
 448 243 448 243 448 311 c 0,19,20
 448 387 448 387 439.5 444.5 c 128,-1,21
 431 502 431 502 411 544 c 128,-1,22
 391 586 391 586 358 617.5 c 128,-1,23
 325 649 325 649 275 673 c 128,-1,24
 225 697 225 697 157 718 c 1,25,-1
 187 787 l 1,26,27
 305 758 305 758 388.5 715 c 128,-1,28
 472 672 472 672 525 614 c 128,-1,29
 578 556 578 556 603 482 c 128,-1,30
 628 408 628 408 628 318 c 0,31,32
 628 210 628 210 592 136.5 c 128,-1,33
 556 63 556 63 489.5 25.5 c 128,-1,34
 423 -12 423 -12 332 -12 c 0,35,36
 240 -12 240 -12 174 22.5 c 128,-1,37
 108 57 108 57 72.5 119.5 c 128,-1,38
 37 182 37 182 37 267 c 0,39,40
 37 350 37 350 68.5 410.5 c 128,-1,41
 100 471 100 471 158 504 c 128,-1,42
 216 537 216 537 295 537 c 0,43,44
 338 537 338 537 370.5 523 c 128,-1,45
 403 509 403 509 427.5 483.5 c 128,-1,46
 452 458 452 458 468 423 c 1,0,-1
125 611 m 1,47,-1
 542 775 l 1,48,-1
 563 715 l 1,49,-1
 146 551 l 1,50,-1
 125 611 l 1,47,-1
EndSplineSet
EndChar

StartChar: oslash
Encoding: 248 248 135
Width: 669
GlyphClass: 2
Flags: W
AnchorPoint: "Anchor-0" 335 540 basechar 0
LayerCount: 2
Fore
SplineSet
-11 -13 m 1,0,-1
 575 552 l 1,1,-1
 678 552 l 1,2,-1
 92 -13 l 1,3,-1
 -11 -13 l 1,0,-1
209 269 m 0,4,5
 209 198 209 198 220 154 c 128,-1,6
 231 110 231 110 258.5 90.5 c 128,-1,7
 286 71 286 71 333 71 c 0,8,9
 379 71 379 71 407 91.5 c 128,-1,10
 435 112 435 112 447.5 155.5 c 128,-1,11
 460 199 460 199 460 269 c 0,12,13
 460 341 460 341 449 384.5 c 128,-1,14
 438 428 438 428 411 447.5 c 128,-1,15
 384 467 384 467 335 467 c 0,16,17
 290 467 290 467 262 446.5 c 128,-1,18
 234 426 234 426 221.5 382 c 128,-1,19
 209 338 209 338 209 269 c 0,4,5
37 269 m 0,20,21
 37 334 37 334 57 386 c 128,-1,22
 77 438 77 438 116 475 c 128,-1,23
 155 512 155 512 210 531.5 c 128,-1,24
 265 551 265 551 335 551 c 0,25,26
 402 551 402 551 456.5 530 c 128,-1,27
 511 509 511 509 550.5 471 c 128,-1,28
 590 433 590 433 611 381.5 c 128,-1,29
 632 330 632 330 632 269 c 0,30,31
 632 183 632 183 596.5 120 c 128,-1,32
 561 57 561 57 494.5 22.5 c 128,-1,33
 428 -12 428 -12 335 -12 c 0,34,35
 245 -12 245 -12 178 24.5 c 128,-1,36
 111 61 111 61 74 124.5 c 128,-1,37
 37 188 37 188 37 269 c 0,20,21
EndSplineSet
EndChar

StartChar: thorn
Encoding: 254 254 136
Width: 710
GlyphClass: 1
Flags: W
LayerCount: 2
Fore
SplineSet
346 -223 m 1,0,-1
 31 -223 l 1,1,-1
 31 -157 l 1,2,-1
 34 -157 l 2,3,4
 52 -157 52 -157 64.5 -152.5 c 128,-1,5
 77 -148 77 -148 83.5 -137 c 128,-1,6
 90 -126 90 -126 90 -107 c 2,7,-1
 90 650 l 2,8,9
 90 660 90 660 84.5 666 c 128,-1,10
 79 672 79 672 68 675.5 c 128,-1,11
 57 679 57 679 39 683 c 2,12,-1
 30 685 l 1,13,-1
 30 758 l 1,14,-1
 266 758 l 1,15,-1
 266 -148 l 2,16,17
 266 -151 266 -151 276.5 -153 c 128,-1,18
 287 -155 287 -155 302.5 -156 c 128,-1,19
 318 -157 318 -157 333 -157 c 2,20,-1
 346 -157 l 1,21,-1
 346 -223 l 1,0,-1
427 -11 m 0,22,23
 387 -11 387 -11 355 0 c 128,-1,24
 323 11 323 11 296.5 33.5 c 128,-1,25
 270 56 270 56 249.5 89 c 128,-1,26
 229 122 229 122 211 165 c 1,27,-1
 236 205 l 1,28,29
 259 168 259 168 280 141 c 128,-1,30
 301 114 301 114 324.5 99.5 c 128,-1,31
 348 85 348 85 380 85 c 0,32,33
 408 85 408 85 429.5 97 c 128,-1,34
 451 109 451 109 464.5 133.5 c 128,-1,35
 478 158 478 158 484.5 193 c 128,-1,36
 491 228 491 228 491 275 c 0,37,38
 491 320 491 320 485.5 353.5 c 128,-1,39
 480 387 480 387 467.5 409.5 c 128,-1,40
 455 432 455 432 435.5 443 c 128,-1,41
 416 454 416 454 388 454 c 0,42,43
 357 454 357 454 332.5 440 c 128,-1,44
 308 426 308 426 285 397.5 c 128,-1,45
 262 369 262 369 236 325 c 1,46,-1
 218 369 l 1,47,48
 246 428 246 428 276 468 c 128,-1,49
 306 508 306 508 345 529 c 128,-1,50
 384 550 384 550 438 550 c 0,51,52
 513 550 513 550 565 515.5 c 128,-1,53
 617 481 617 481 644 419 c 128,-1,54
 671 357 671 357 671 275 c 256,55,56
 671 193 671 193 642 128 c 128,-1,57
 613 63 613 63 558 26 c 128,-1,58
 503 -11 503 -11 427 -11 c 0,22,23
EndSplineSet
EndChar

StartChar: dotlessi
Encoding: 270 305 137
Width: 352
GlyphClass: 2
Flags: W
AnchorPoint: "Anchor-0" 188 540 basechar 0
LayerCount: 2
Fore
SplineSet
269 540 m 1,0,-1
 269 114 l 2,1,2
 269 86 269 86 284.5 76 c 128,-1,3
 300 66 300 66 327 66 c 2,4,-1
 329 66 l 1,5,-1
 329 0 l 1,6,-1
 34 0 l 1,7,-1
 34 66 l 1,8,-1
 36 66 l 2,9,10
 63 66 63 66 78.5 76 c 128,-1,11
 94 86 94 86 94 114 c 2,12,-1
 94 431 l 2,13,14
 94 447 94 447 81.5 453 c 128,-1,15
 69 459 69 459 42 464 c 2,16,-1
 33 466 l 1,17,-1
 33 540 l 1,18,-1
 269 540 l 1,0,-1
EndSplineSet
EndChar

StartChar: oe
Encoding: 156 339 138
Width: 1030
GlyphClass: 1
Flags: W
LayerCount: 2
Fore
SplineSet
625 267 m 0,0,1
 625 214 625 214 634 177 c 128,-1,2
 643 140 643 140 661.5 117 c 128,-1,3
 680 94 680 94 708 83.5 c 128,-1,4
 736 73 736 73 774 73 c 256,5,6
 812 73 812 73 839.5 85 c 128,-1,7
 867 97 867 97 887 117.5 c 128,-1,8
 907 138 907 138 923 163 c 1,9,-1
 990 116 l 1,10,11
 969 76 969 76 936.5 47 c 128,-1,12
 904 18 904 18 859 3 c 128,-1,13
 814 -12 814 -12 756 -12 c 0,14,15
 688 -12 688 -12 638.5 10 c 128,-1,16
 589 32 589 32 556.5 70.5 c 128,-1,17
 524 109 524 109 508 159.5 c 128,-1,18
 492 210 492 210 492 266 c 0,19,20
 492 320 492 320 508 371 c 128,-1,21
 524 422 524 422 555 462.5 c 128,-1,22
 586 503 586 503 632.5 527 c 128,-1,23
 679 551 679 551 739 551 c 0,24,25
 803 551 803 551 851 531.5 c 128,-1,26
 899 512 899 512 931 472.5 c 128,-1,27
 963 433 963 433 979 374.5 c 128,-1,28
 995 316 995 316 996 238 c 1,29,-1
 547 238 l 1,30,-1
 547 310 l 1,31,-1
 856 310 l 1,32,-1
 833 281 l 1,33,34
 831 357 831 357 821.5 398 c 128,-1,35
 812 439 812 439 791.5 455 c 128,-1,36
 771 471 771 471 737 471 c 0,37,38
 710 471 710 471 689.5 460.5 c 128,-1,39
 669 450 669 450 654.5 426.5 c 128,-1,40
 640 403 640 403 632.5 363.5 c 128,-1,41
 625 324 625 324 625 267 c 0,0,1
584 269 m 0,42,43
 584 216 584 216 568.5 165.5 c 128,-1,44
 553 115 553 115 521.5 75 c 128,-1,45
 490 35 490 35 442 11.5 c 128,-1,46
 394 -12 394 -12 328 -12 c 0,47,48
 238 -12 238 -12 173 22.5 c 128,-1,49
 108 57 108 57 72.5 120 c 128,-1,50
 37 183 37 183 37 269 c 0,51,52
 37 334 37 334 57 386 c 128,-1,53
 77 438 77 438 115 475 c 128,-1,54
 153 512 153 512 206.5 531.5 c 128,-1,55
 260 551 260 551 328 551 c 0,56,57
 398 551 398 551 447 527.5 c 128,-1,58
 496 504 496 504 526 464 c 128,-1,59
 556 424 556 424 570 373.5 c 128,-1,60
 584 323 584 323 584 269 c 0,42,43
218 269 m 256,61,62
 218 200 218 200 230 156 c 128,-1,63
 242 112 242 112 267.5 91.5 c 128,-1,64
 293 71 293 71 334 71 c 256,65,66
 375 71 375 71 400.5 91.5 c 128,-1,67
 426 112 426 112 438 155.5 c 128,-1,68
 450 199 450 199 450 269 c 0,69,70
 450 338 450 338 438 382 c 128,-1,71
 426 426 426 426 400.5 446.5 c 128,-1,72
 375 467 375 467 334 467 c 256,73,74
 293 467 293 467 267.5 446.5 c 128,-1,75
 242 426 242 426 230 382 c 128,-1,76
 218 338 218 338 218 269 c 256,61,62
EndSplineSet
EndChar

StartChar: dotlessj
Encoding: 271 567 139
Width: 350
GlyphClass: 2
Flags: W
AnchorPoint: "Anchor-0" 176 540 basechar 0
LayerCount: 2
Fore
SplineSet
98 -47 m 2,0,-1
 98 431 l 2,1,2
 98 441 98 441 90.5 447.5 c 128,-1,3
 83 454 83 454 69.5 458 c 128,-1,4
 56 462 56 462 38 464 c 2,5,-1
 26 466 l 1,6,-1
 26 540 l 1,7,-1
 273 540 l 1,8,-1
 273 -34 l 2,9,10
 273 -93 273 -93 256.5 -133 c 128,-1,11
 240 -173 240 -173 209.5 -197 c 128,-1,12
 179 -221 179 -221 135.5 -232 c 128,-1,13
 92 -243 92 -243 39 -243 c 0,14,15
 -1 -243 -1 -243 -31 -238 c 128,-1,16
 -61 -233 -61 -233 -73 -229 c 1,17,-1
 -73 -144 l 1,18,19
 -58 -148 -58 -148 -36 -153.5 c 128,-1,20
 -14 -159 -14 -159 11 -159 c 0,21,22
 38 -159 38 -159 57.5 -148.5 c 128,-1,23
 77 -138 77 -138 87.5 -113.5 c 128,-1,24
 98 -89 98 -89 98 -47 c 2,0,-1
EndSplineSet
EndChar

StartChar: mu
Encoding: 272 956 140
Width: 754
GlyphClass: 1
Flags: W
LayerCount: 2
Fore
SplineSet
578 -10 m 0,0,1
 528 -10 528 -10 494.5 6.5 c 128,-1,2
 461 23 461 23 444 54 c 128,-1,3
 427 85 427 85 424 130 c 1,4,-1
 417 133 l 1,5,-1
 417 540 l 1,6,-1
 593 540 l 1,7,-1
 593 128 l 2,8,9
 593 105 593 105 600.5 95.5 c 128,-1,10
 608 86 608 86 627 86 c 0,11,12
 641 86 641 86 650 93 c 128,-1,13
 659 100 659 100 666.5 113 c 128,-1,14
 674 126 674 126 681 144 c 1,15,-1
 742 109 l 1,16,17
 730 77 730 77 709 50 c 128,-1,18
 688 23 688 23 656 6.5 c 128,-1,19
 624 -10 624 -10 578 -10 c 0,0,1
243 540 m 1,20,-1
 243 172 l 2,21,22
 243 144 243 144 249 126.5 c 128,-1,23
 255 109 255 109 268 100.5 c 128,-1,24
 281 92 281 92 302 92 c 0,25,26
 326 92 326 92 348.5 104.5 c 128,-1,27
 371 117 371 117 393.5 141.5 c 128,-1,28
 416 166 416 166 438 201 c 1,29,-1
 451 149 l 1,30,31
 426 99 426 99 397.5 63 c 128,-1,32
 369 27 369 27 337 8 c 128,-1,33
 305 -11 305 -11 268 -11 c 0,34,35
 237 -11 237 -11 212 -1 c 128,-1,36
 187 9 187 9 168 29.5 c 128,-1,37
 149 50 149 50 135 82 c 128,-1,38
 121 114 121 114 113 159 c 1,39,-1
 123 182 l 1,40,41
 127 130 127 130 136.5 87 c 128,-1,42
 146 44 146 44 159.5 8.5 c 128,-1,43
 173 -27 173 -27 188 -59 c 128,-1,44
 203 -91 203 -91 215.5 -121 c 128,-1,45
 228 -151 228 -151 235.5 -182.5 c 128,-1,46
 243 -214 243 -214 243 -250 c 1,47,-1
 68 -250 l 1,48,-1
 68 540 l 1,49,-1
 243 540 l 1,20,-1
EndSplineSet
EndChar

StartChar: ereversedcyr
Encoding: 273 1101 141
Width: 606
GlyphClass: 2
Flags: W
AnchorPoint: "Anchor-1" 267 0 basechar 0
AnchorPoint: "Anchor-0" 279 540 basechar 0
LayerCount: 2
Fore
SplineSet
418 237 m 1,0,-1
 207 237 l 1,1,-1
 207 315 l 1,2,-1
 418 315 l 1,3,-1
 418 237 l 1,0,-1
264 -12 m 0,4,5
 207 -12 207 -12 163 -3.5 c 128,-1,6
 119 5 119 5 91 16.5 c 128,-1,7
 63 28 63 28 49 37 c 1,8,-1
 49 176 l 1,9,-1
 179 176 l 1,10,-1
 179 55 l 1,11,12
 166 58 166 58 158.5 64.5 c 128,-1,13
 151 71 151 71 148 79.5 c 128,-1,14
 145 88 145 88 145 96 c 128,-1,15
 145 104 145 104 148 108 c 1,16,17
 160 96 160 96 175.5 87 c 128,-1,18
 191 78 191 78 211.5 73 c 128,-1,19
 232 68 232 68 256 68 c 0,20,21
 291 68 291 68 316.5 81 c 128,-1,22
 342 94 342 94 358.5 119 c 128,-1,23
 375 144 375 144 383 181.5 c 128,-1,24
 391 219 391 219 391 270 c 0,25,26
 391 320 391 320 383 357.5 c 128,-1,27
 375 395 375 395 358.5 420 c 128,-1,28
 342 445 342 445 317 457.5 c 128,-1,29
 292 470 292 470 258 470 c 0,30,31
 233 470 233 470 213 465.5 c 128,-1,32
 193 461 193 461 177.5 452.5 c 128,-1,33
 162 444 162 444 150 432 c 1,34,35
 147 436 147 436 147 444 c 128,-1,36
 147 452 147 452 150 460 c 128,-1,37
 153 468 153 468 160.5 475 c 128,-1,38
 168 482 168 482 181 484 c 1,39,-1
 181 363 l 1,40,-1
 51 363 l 1,41,-1
 51 502 l 1,42,43
 65 511 65 511 93.5 522.5 c 128,-1,44
 122 534 122 534 165.5 542.5 c 128,-1,45
 209 551 209 551 266 551 c 0,46,47
 361 551 361 551 428.5 518.5 c 128,-1,48
 496 486 496 486 532 423.5 c 128,-1,49
 568 361 568 361 568 270 c 0,50,51
 568 182 568 182 531 119 c 128,-1,52
 494 56 494 56 426 22 c 128,-1,53
 358 -12 358 -12 264 -12 c 0,4,5
EndSplineSet
EndChar

StartChar: ordfeminine
Encoding: 170 170 142
Width: 540
GlyphClass: 1
Flags: W
LayerCount: 2
Fore
SplineSet
317 558 m 1,0,-1
 317 505 l 1,1,2
 278 500 278 500 253.5 491.5 c 128,-1,3
 229 483 229 483 215.5 472.5 c 128,-1,4
 202 462 202 462 196.5 448.5 c 128,-1,5
 191 435 191 435 191 418 c 256,6,7
 191 401 191 401 196.5 390.5 c 128,-1,8
 202 380 202 380 212 375 c 128,-1,9
 222 370 222 370 236 370 c 0,10,11
 261 370 261 370 278 386.5 c 128,-1,12
 295 403 295 403 312 437 c 1,13,-1
 327 407 l 1,14,15
 311 370 311 370 291 346.5 c 128,-1,16
 271 323 271 323 244.5 312 c 128,-1,17
 218 301 218 301 180 301 c 0,18,19
 138 301 138 301 108 312.5 c 128,-1,20
 78 324 78 324 63 348.5 c 128,-1,21
 48 373 48 373 48 410 c 0,22,23
 48 443 48 443 62.5 466.5 c 128,-1,24
 77 490 77 490 108.5 506.5 c 128,-1,25
 140 523 140 523 191.5 535.5 c 128,-1,26
 243 548 243 548 317 558 c 1,0,-1
322 309 m 1,27,-1
 313 396 l 1,28,-1
 307 392 l 1,29,-1
 307 605 l 2,30,31
 307 622 307 622 301.5 633.5 c 128,-1,32
 296 645 296 645 283 651 c 128,-1,33
 270 657 270 657 245 657 c 0,34,35
 224 657 224 657 206.5 652.5 c 128,-1,36
 189 648 189 648 176 641.5 c 128,-1,37
 163 635 163 635 157 627 c 1,38,39
 155 634 155 634 159 643 c 128,-1,40
 163 652 163 652 172.5 659 c 128,-1,41
 182 666 182 666 195 667 c 1,42,-1
 195 588 l 1,43,-1
 72 588 l 1,44,-1
 72 672 l 1,45,46
 84 684 84 684 109.5 696.5 c 128,-1,47
 135 709 135 709 173.5 717 c 128,-1,48
 212 725 212 725 263 725 c 0,49,50
 320 725 320 725 362.5 711.5 c 128,-1,51
 405 698 405 698 429 670 c 128,-1,52
 453 642 453 642 453 597 c 2,53,-1
 453 395 l 2,54,55
 453 382 453 382 463.5 378 c 128,-1,56
 474 374 474 374 493 370 c 2,57,-1
 497 369 l 1,58,-1
 497 309 l 1,59,-1
 322 309 l 1,27,-1
EndSplineSet
EndChar

StartChar: ordmasculine
Encoding: 186 186 143
Width: 555
GlyphClass: 1
Flags: W
LayerCount: 2
Fore
SplineSet
510 513 m 256,0,1
 510 448 510 448 482 400 c 128,-1,2
 454 352 454 352 402.5 326 c 128,-1,3
 351 300 351 300 278 300 c 256,4,5
 205 300 205 300 153 326 c 128,-1,6
 101 352 101 352 73 400 c 128,-1,7
 45 448 45 448 45 513 c 256,8,9
 45 578 45 578 73 626 c 128,-1,10
 101 674 101 674 153 699.5 c 128,-1,11
 205 725 205 725 278 725 c 256,12,13
 351 725 351 725 402.5 699.5 c 128,-1,14
 454 674 454 674 482 626 c 128,-1,15
 510 578 510 578 510 513 c 256,0,1
195 513 m 0,16,17
 195 462 195 462 203.5 430.5 c 128,-1,18
 212 399 212 399 230.5 385 c 128,-1,19
 249 371 249 371 278 371 c 256,20,21
 307 371 307 371 325 385 c 128,-1,22
 343 399 343 399 352 430.5 c 128,-1,23
 361 462 361 462 361 513 c 0,24,25
 361 563 361 563 352 594 c 128,-1,26
 343 625 343 625 325 639.5 c 128,-1,27
 307 654 307 654 278 654 c 256,28,29
 249 654 249 654 230.5 639.5 c 128,-1,30
 212 625 212 625 203.5 594 c 128,-1,31
 195 563 195 563 195 513 c 0,16,17
EndSplineSet
EndChar

StartChar: arrowright
Encoding: 274 34196 144
Width: 790
GlyphClass: 1
Flags: W
LayerCount: 2
Fore
SplineSet
341 587 m 1,0,-1
 730 367 l 1,1,-1
 730 340 l 1,2,-1
 341 119 l 1,3,-1
 322 145 l 1,4,-1
 489 317 l 1,5,-1
 60 317 l 1,6,-1
 60 389 l 1,7,-1
 489 389 l 1,8,-1
 322 561 l 1,9,-1
 341 587 l 1,0,-1
EndSplineSet
EndChar

StartChar: zero
Encoding: 48 48 145
Width: 560
GlyphClass: 1
Flags: W
LayerCount: 2
Fore
SplineSet
280 -11 m 256,0,1
 224 -11 224 -11 177 10.5 c 128,-1,2
 130 32 130 32 96.5 74 c 128,-1,3
 63 116 63 116 44.5 178 c 128,-1,4
 26 240 26 240 26 321 c 0,5,6
 26 403 26 403 44.5 465 c 128,-1,7
 63 527 63 527 96.5 569 c 128,-1,8
 130 611 130 611 177 632.5 c 128,-1,9
 224 654 224 654 280 654 c 256,10,11
 336 654 336 654 383 632.5 c 128,-1,12
 430 611 430 611 463.5 569 c 128,-1,13
 497 527 497 527 515.5 465 c 128,-1,14
 534 403 534 403 534 321 c 0,15,16
 534 240 534 240 515.5 178 c 128,-1,17
 497 116 497 116 463.5 74 c 128,-1,18
 430 32 430 32 383 10.5 c 128,-1,19
 336 -11 336 -11 280 -11 c 256,0,1
280 69 m 256,20,21
 303 69 303 69 319.5 81.5 c 128,-1,22
 336 94 336 94 346.5 122.5 c 128,-1,23
 357 151 357 151 361.5 199.5 c 128,-1,24
 366 248 366 248 366 321 c 0,25,26
 366 395 366 395 361.5 443.5 c 128,-1,27
 357 492 357 492 346.5 520.5 c 128,-1,28
 336 549 336 549 319.5 561.5 c 128,-1,29
 303 574 303 574 280 574 c 256,30,31
 257 574 257 574 240.5 561.5 c 128,-1,32
 224 549 224 549 213.5 520.5 c 128,-1,33
 203 492 203 492 198.5 443.5 c 128,-1,34
 194 395 194 395 194 321 c 0,35,36
 194 249 194 249 198.5 200 c 128,-1,37
 203 151 203 151 213.5 122.5 c 128,-1,38
 224 94 224 94 240.5 81.5 c 128,-1,39
 257 69 257 69 280 69 c 256,20,21
EndSplineSet
Substitution2: "'zero' Slashed Zero lookup 68 subtable" zero.slash
Substitution2: "'pnum' Proportional Numbers lookup 57 subtable" zero.midprop
Substitution2: "'lnum' Lining Figures lookup 56 subtable" zero.lintab
Substitution2: "'onum' Oldstyle Figures lookup 55 subtable" zero.oldtab
Substitution2: "'sinf' Scientific Inferiors lookup 54 subtable" zero.sub
Substitution2: "'subs' Subscript lookup 53 subtable" zero.sub
Substitution2: "'sups' Superscript lookup 52 subtable" zero.sup
Substitution2: "'numr' Numerators lookup 51 subtable" zero.num
Substitution2: "'dnom' Denominators lookup 50 subtable" zero.den
Substitution2: "Single Substitution lookup 37 subtable" zero.den
Substitution2: "Single Substitution lookup 35 subtable" zero.num
Substitution2: "Single Substitution lookup 33 subtable" zero.num
Substitution2: "Single Substitution lookup 31 subtable" zero.num
Substitution2: "Single Substitution lookup 29 subtable" zero.num
Substitution2: "Single Substitution lookup 27 subtable" zero.num
Substitution2: "Single Substitution lookup 25 subtable" zero.num
Substitution2: "Single Substitution lookup 23 subtable" zero.num
Substitution2: "Single Substitution lookup 21 subtable" zero.num
Substitution2: "Single Substitution lookup 19 subtable" zero.num
Substitution2: "Single Substitution lookup 17 subtable" zero.num
EndChar

StartChar: one
Encoding: 49 49 146
Width: 560
GlyphClass: 1
Flags: W
LayerCount: 2
Fore
SplineSet
396 112 m 2,0,1
 396 95 396 95 409.5 86 c 128,-1,2
 423 77 423 77 447.5 73.5 c 128,-1,3
 472 70 472 70 504 70 c 2,4,-1
 531 70 l 1,5,-1
 531 0 l 1,6,-1
 76 0 l 1,7,-1
 76 70 l 1,8,-1
 117 70 l 2,9,10
 148 70 148 70 172 73.5 c 128,-1,11
 196 77 196 77 209.5 86 c 128,-1,12
 223 95 223 95 223 112 c 2,13,-1
 223 559 l 1,14,-1
 241 568 l 1,15,16
 233 536 233 536 216.5 514.5 c 128,-1,17
 200 493 200 493 176 480 c 128,-1,18
 152 467 152 467 122 461.5 c 128,-1,19
 92 456 92 456 56 457 c 1,20,-1
 56 561 l 1,21,22
 97 562 97 562 128.5 567 c 128,-1,23
 160 572 160 572 183.5 582 c 128,-1,24
 207 592 207 592 224.5 607 c 128,-1,25
 242 622 242 622 255 642 c 1,26,-1
 396 642 l 1,27,-1
 396 112 l 2,0,1
EndSplineSet
Substitution2: "'pnum' Proportional Numbers lookup 57 subtable" one.midprop
Substitution2: "'lnum' Lining Figures lookup 56 subtable" one.lintab
Substitution2: "'onum' Oldstyle Figures lookup 55 subtable" one.oldtab
Substitution2: "'sinf' Scientific Inferiors lookup 54 subtable" one.sub
Substitution2: "'subs' Subscript lookup 53 subtable" one.sub
Substitution2: "'sups' Superscript lookup 52 subtable" one.sup
Substitution2: "'numr' Numerators lookup 51 subtable" one.num
Substitution2: "'dnom' Denominators lookup 50 subtable" one.den
Substitution2: "Single Substitution lookup 37 subtable" one.den
Substitution2: "Single Substitution lookup 35 subtable" one.num
Substitution2: "Single Substitution lookup 33 subtable" one.num
Substitution2: "Single Substitution lookup 31 subtable" one.num
Substitution2: "Single Substitution lookup 29 subtable" one.num
Substitution2: "Single Substitution lookup 27 subtable" one.num
Substitution2: "Single Substitution lookup 25 subtable" one.num
Substitution2: "Single Substitution lookup 23 subtable" one.num
Substitution2: "Single Substitution lookup 21 subtable" one.num
Substitution2: "Single Substitution lookup 19 subtable" one.num
Substitution2: "Single Substitution lookup 17 subtable" one.num
EndChar

StartChar: two
Encoding: 50 50 147
Width: 560
GlyphClass: 1
Flags: W
LayerCount: 2
Fore
SplineSet
318 121 m 2,0,-1
 86 121 l 1,1,2
 81 117 81 117 80.5 112 c 128,-1,3
 80 107 80 107 84 104 c 128,-1,4
 88 101 88 101 95 102 c 0,5,6
 154 133 154 133 212.5 163.5 c 128,-1,7
 271 194 271 194 323.5 226.5 c 128,-1,8
 376 259 376 259 416.5 296 c 128,-1,9
 457 333 457 333 480 376 c 128,-1,10
 503 419 503 419 503 470 c 0,11,12
 503 529 503 529 477.5 570 c 128,-1,13
 452 611 452 611 400 632 c 128,-1,14
 348 653 348 653 270 653 c 0,15,16
 216 653 216 653 172 641.5 c 128,-1,17
 128 630 128 630 95.5 612.5 c 128,-1,18
 63 595 63 595 44 578 c 1,19,-1
 44 436 l 1,20,-1
 178 436 l 1,21,-1
 178 574 l 1,22,23
 168 575 168 575 159.5 569.5 c 128,-1,24
 151 564 151 564 145 555.5 c 128,-1,25
 139 547 139 547 136 538.5 c 128,-1,26
 133 530 133 530 135 523 c 1,27,28
 145 536 145 536 161.5 547.5 c 128,-1,29
 178 559 178 559 200 566 c 128,-1,30
 222 573 222 573 248 573 c 0,31,32
 277 573 277 573 296.5 563.5 c 128,-1,33
 316 554 316 554 325.5 532 c 128,-1,34
 335 510 335 510 335 472 c 0,35,36
 335 427 335 427 321.5 391 c 128,-1,37
 308 355 308 355 282 325 c 128,-1,38
 256 295 256 295 219.5 267 c 128,-1,39
 183 239 183 239 137 210 c 128,-1,40
 91 181 91 181 36 147 c 1,41,-1
 36 0 l 1,42,-1
 518 0 l 1,43,-1
 518 227 l 1,44,-1
 440 227 l 1,45,-1
 431 161 l 2,46,47
 429 144 429 144 417.5 135.5 c 128,-1,48
 406 127 406 127 382 124 c 128,-1,49
 358 121 358 121 318 121 c 2,0,-1
EndSplineSet
Substitution2: "'pnum' Proportional Numbers lookup 57 subtable" two.midprop
Substitution2: "'lnum' Lining Figures lookup 56 subtable" two.lintab
Substitution2: "'onum' Oldstyle Figures lookup 55 subtable" two.oldtab
Substitution2: "'sinf' Scientific Inferiors lookup 54 subtable" two.sub
Substitution2: "'subs' Subscript lookup 53 subtable" two.sub
Substitution2: "'sups' Superscript lookup 52 subtable" two.sup
Substitution2: "'numr' Numerators lookup 51 subtable" two.num
Substitution2: "'dnom' Denominators lookup 50 subtable" two.den
Substitution2: "Single Substitution lookup 37 subtable" two.den
Substitution2: "Single Substitution lookup 35 subtable" two.num
Substitution2: "Single Substitution lookup 33 subtable" two.num
Substitution2: "Single Substitution lookup 31 subtable" two.num
Substitution2: "Single Substitution lookup 29 subtable" two.num
Substitution2: "Single Substitution lookup 27 subtable" two.num
Substitution2: "Single Substitution lookup 25 subtable" two.num
Substitution2: "Single Substitution lookup 23 subtable" two.num
Substitution2: "Single Substitution lookup 21 subtable" two.num
Substitution2: "Single Substitution lookup 19 subtable" two.num
Substitution2: "Single Substitution lookup 17 subtable" two.num
EndChar

StartChar: three
Encoding: 51 51 148
Width: 560
GlyphClass: 1
Flags: W
LayerCount: 2
Fore
SplineSet
263 313 m 1,0,-1
 304 291 l 1,1,-1
 304 326 l 1,2,-1
 250 304 l 1,3,4
 322 307 322 307 380.5 326.5 c 128,-1,5
 439 346 439 346 474.5 385 c 128,-1,6
 510 424 510 424 510 485 c 0,7,8
 510 542 510 542 481.5 579.5 c 128,-1,9
 453 617 453 617 401.5 635 c 128,-1,10
 350 653 350 653 281 653 c 0,11,12
 229 653 229 653 186 642.5 c 128,-1,13
 143 632 143 632 111 616 c 128,-1,14
 79 600 79 600 59 582 c 1,15,-1
 59 454 l 1,16,-1
 189 454 l 1,17,-1
 189 576 l 1,18,19
 178 575 178 575 170.5 569.5 c 128,-1,20
 163 564 163 564 159 557.5 c 128,-1,21
 155 551 155 551 153.5 543.5 c 128,-1,22
 152 536 152 536 154 530 c 1,23,24
 167 546 167 546 194 560 c 128,-1,25
 221 574 221 574 262 574 c 0,26,27
 291 574 291 574 311 565 c 128,-1,28
 331 556 331 556 341 534.5 c 128,-1,29
 351 513 351 513 351 478 c 0,30,31
 351 432 351 432 336.5 402.5 c 128,-1,32
 322 373 322 373 293.5 359.5 c 128,-1,33
 265 346 265 346 220 346 c 2,34,-1
 158 346 l 1,35,-1
 158 265 l 1,36,-1
 232 265 l 2,37,38
 284 265 284 265 313 249.5 c 128,-1,39
 342 234 342 234 353.5 206 c 128,-1,40
 365 178 365 178 365 137 c 0,41,42
 365 90 365 90 351.5 62 c 128,-1,43
 338 34 338 34 312 21 c 128,-1,44
 286 8 286 8 248 8 c 0,45,46
 214 8 214 8 188.5 19.5 c 128,-1,47
 163 31 163 31 145.5 49 c 128,-1,48
 128 67 128 67 116 88.5 c 128,-1,49
 104 110 104 110 94 130 c 1,50,-1
 17 85 l 1,51,52
 35 40 35 40 64.5 4 c 128,-1,53
 94 -32 94 -32 143 -53 c 128,-1,54
 192 -74 192 -74 267 -74 c 0,55,56
 343 -74 343 -74 402 -51.5 c 128,-1,57
 461 -29 461 -29 495 17.5 c 128,-1,58
 529 64 529 64 529 134 c 0,59,60
 529 175 529 175 514 208 c 128,-1,61
 499 241 499 241 467.5 264 c 128,-1,62
 436 287 436 287 385.5 299.5 c 128,-1,63
 335 312 335 312 263 313 c 1,0,-1
EndSplineSet
Substitution2: "'pnum' Proportional Numbers lookup 57 subtable" three.midprop
Substitution2: "'lnum' Lining Figures lookup 56 subtable" three.lintab
Substitution2: "'onum' Oldstyle Figures lookup 55 subtable" three.oldtab
Substitution2: "'sinf' Scientific Inferiors lookup 54 subtable" three.sub
Substitution2: "'subs' Subscript lookup 53 subtable" three.sub
Substitution2: "'sups' Superscript lookup 52 subtable" three.sup
Substitution2: "'numr' Numerators lookup 51 subtable" three.num
Substitution2: "'dnom' Denominators lookup 50 subtable" three.den
Substitution2: "Single Substitution lookup 37 subtable" three.den
Substitution2: "Single Substitution lookup 35 subtable" three.num
Substitution2: "Single Substitution lookup 33 subtable" three.num
Substitution2: "Single Substitution lookup 31 subtable" three.num
Substitution2: "Single Substitution lookup 29 subtable" three.num
Substitution2: "Single Substitution lookup 27 subtable" three.num
Substitution2: "Single Substitution lookup 25 subtable" three.num
Substitution2: "Single Substitution lookup 23 subtable" three.num
Substitution2: "Single Substitution lookup 21 subtable" three.num
Substitution2: "Single Substitution lookup 19 subtable" three.num
Substitution2: "Single Substitution lookup 17 subtable" three.num
EndChar

StartChar: four
Encoding: 52 52 149
Width: 560
GlyphClass: 1
Flags: W
LayerCount: 2
Fore
SplineSet
27 107 m 1,0,-1
 27 234 l 1,1,-1
 262 638 l 1,2,-1
 333 638 l 1,3,-1
 318 584 l 1,4,-1
 75 164 l 1,5,-1
 86 225 l 1,6,-1
 548 225 l 1,7,-1
 548 107 l 1,8,-1
 27 107 l 1,0,-1
464 -63 m 1,9,-1
 300 -63 l 1,10,-1
 300 592 l 1,11,-1
 305 638 l 1,12,-1
 464 638 l 1,13,-1
 464 -63 l 1,9,-1
EndSplineSet
Substitution2: "'pnum' Proportional Numbers lookup 57 subtable" four.midprop
Substitution2: "'lnum' Lining Figures lookup 56 subtable" four.lintab
Substitution2: "'onum' Oldstyle Figures lookup 55 subtable" four.oldtab
Substitution2: "'sinf' Scientific Inferiors lookup 54 subtable" four.sub
Substitution2: "'subs' Subscript lookup 53 subtable" four.sub
Substitution2: "'sups' Superscript lookup 52 subtable" four.sup
Substitution2: "'numr' Numerators lookup 51 subtable" four.num
Substitution2: "'dnom' Denominators lookup 50 subtable" four.den
Substitution2: "Single Substitution lookup 37 subtable" four.den
Substitution2: "Single Substitution lookup 35 subtable" four.num
Substitution2: "Single Substitution lookup 33 subtable" four.num
Substitution2: "Single Substitution lookup 31 subtable" four.num
Substitution2: "Single Substitution lookup 29 subtable" four.num
Substitution2: "Single Substitution lookup 27 subtable" four.num
Substitution2: "Single Substitution lookup 25 subtable" four.num
Substitution2: "Single Substitution lookup 23 subtable" four.num
Substitution2: "Single Substitution lookup 21 subtable" four.num
Substitution2: "Single Substitution lookup 19 subtable" four.num
Substitution2: "Single Substitution lookup 17 subtable" four.num
EndChar

StartChar: five
Encoding: 53 53 150
Width: 560
GlyphClass: 1
Flags: W
LayerCount: 2
Fore
SplineSet
262 -74 m 0,0,1
 345 -74 345 -74 403.5 -45 c 128,-1,2
 462 -16 462 -16 493 39.5 c 128,-1,3
 524 95 524 95 524 174 c 0,4,5
 524 241 524 241 499.5 291 c 128,-1,6
 475 341 475 341 427.5 368.5 c 128,-1,7
 380 396 380 396 313 396 c 0,8,9
 265 396 265 396 232 383 c 128,-1,10
 199 370 199 370 177 346.5 c 128,-1,11
 155 323 155 323 139 291 c 1,12,13
 141 286 141 286 145.5 286.5 c 128,-1,14
 150 287 150 287 155 290.5 c 128,-1,15
 160 294 160 294 162 300 c 2,16,-1
 162 622 l 1,17,-1
 141 516 l 1,18,-1
 458 516 l 1,19,-1
 477 642 l 1,20,-1
 76 642 l 1,21,-1
 76 239 l 1,22,-1
 154 239 l 1,23,24
 166 264 166 264 180.5 280.5 c 128,-1,25
 195 297 195 297 214 305.5 c 128,-1,26
 233 314 233 314 259 314 c 0,27,28
 292 314 292 314 314 299.5 c 128,-1,29
 336 285 336 285 347 254.5 c 128,-1,30
 358 224 358 224 358 174 c 0,31,32
 358 118 358 118 345.5 81.5 c 128,-1,33
 333 45 333 45 307.5 28 c 128,-1,34
 282 11 282 11 244 11 c 0,35,36
 201 11 201 11 173 27.5 c 128,-1,37
 145 44 145 44 127.5 70.5 c 128,-1,38
 110 97 110 97 99 125 c 1,39,-1
 18 81 l 1,40,41
 35 34 35 34 65.5 -1 c 128,-1,42
 96 -36 96 -36 144.5 -55 c 128,-1,43
 193 -74 193 -74 262 -74 c 0,0,1
EndSplineSet
Substitution2: "'pnum' Proportional Numbers lookup 57 subtable" five.midprop
Substitution2: "'lnum' Lining Figures lookup 56 subtable" five.lintab
Substitution2: "'onum' Oldstyle Figures lookup 55 subtable" five.oldtab
Substitution2: "'sinf' Scientific Inferiors lookup 54 subtable" five.sub
Substitution2: "'subs' Subscript lookup 53 subtable" five.sub
Substitution2: "'sups' Superscript lookup 52 subtable" five.sup
Substitution2: "'numr' Numerators lookup 51 subtable" five.num
Substitution2: "'dnom' Denominators lookup 50 subtable" five.den
Substitution2: "Single Substitution lookup 37 subtable" five.den
Substitution2: "Single Substitution lookup 35 subtable" five.num
Substitution2: "Single Substitution lookup 33 subtable" five.num
Substitution2: "Single Substitution lookup 31 subtable" five.num
Substitution2: "Single Substitution lookup 29 subtable" five.num
Substitution2: "Single Substitution lookup 27 subtable" five.num
Substitution2: "Single Substitution lookup 25 subtable" five.num
Substitution2: "Single Substitution lookup 23 subtable" five.num
Substitution2: "Single Substitution lookup 21 subtable" five.num
Substitution2: "Single Substitution lookup 19 subtable" five.num
Substitution2: "Single Substitution lookup 17 subtable" five.num
EndChar

StartChar: six
Encoding: 54 54 151
Width: 560
GlyphClass: 1
Flags: W
LayerCount: 2
Fore
SplineSet
475 662 m 1,0,-1
 463 743 l 1,1,2
 359 729 359 729 278.5 692.5 c 128,-1,3
 198 656 198 656 142.5 599 c 128,-1,4
 87 542 87 542 58 466 c 128,-1,5
 29 390 29 390 29 296 c 0,6,7
 29 188 29 188 61.5 120 c 128,-1,8
 94 52 94 52 153 21 c 128,-1,9
 212 -10 212 -10 291 -10 c 0,10,11
 367 -10 367 -10 421 19.5 c 128,-1,12
 475 49 475 49 504 105.5 c 128,-1,13
 533 162 533 162 533 241 c 0,14,15
 533 313 533 313 510 362.5 c 128,-1,16
 487 412 487 412 444.5 437 c 128,-1,17
 402 462 402 462 342 462 c 0,18,19
 305 462 305 462 276.5 451 c 128,-1,20
 248 440 248 440 226.5 421.5 c 128,-1,21
 205 403 205 403 189 378.5 c 128,-1,22
 173 354 173 354 162 327 c 1,23,-1
 169 278 l 1,24,25
 182 304 182 304 195 323.5 c 128,-1,26
 208 343 208 343 222.5 356.5 c 128,-1,27
 237 370 237 370 253.5 377 c 128,-1,28
 270 384 270 384 290 384 c 0,29,30
 320 384 320 384 337 366.5 c 128,-1,31
 354 349 354 349 360 316 c 128,-1,32
 366 283 366 283 366 234 c 0,33,34
 366 177 366 177 358 140 c 128,-1,35
 350 103 350 103 333 85.5 c 128,-1,36
 316 68 316 68 287 68 c 0,37,38
 264 68 264 68 246.5 78 c 128,-1,39
 229 88 229 88 217.5 112.5 c 128,-1,40
 206 137 206 137 200 180.5 c 128,-1,41
 194 224 194 224 194 290 c 0,42,43
 194 379 194 379 212 444.5 c 128,-1,44
 230 510 230 510 266 554.5 c 128,-1,45
 302 599 302 599 354 625.5 c 128,-1,46
 406 652 406 652 475 662 c 1,0,-1
EndSplineSet
Substitution2: "'pnum' Proportional Numbers lookup 57 subtable" six.midprop
Substitution2: "'lnum' Lining Figures lookup 56 subtable" six.lintab
Substitution2: "'onum' Oldstyle Figures lookup 55 subtable" six.oldtab
Substitution2: "'sinf' Scientific Inferiors lookup 54 subtable" six.sub
Substitution2: "'subs' Subscript lookup 53 subtable" six.sub
Substitution2: "'sups' Superscript lookup 52 subtable" six.sup
Substitution2: "'numr' Numerators lookup 51 subtable" six.num
Substitution2: "'dnom' Denominators lookup 50 subtable" six.den
Substitution2: "Single Substitution lookup 37 subtable" six.den
Substitution2: "Single Substitution lookup 35 subtable" six.num
Substitution2: "Single Substitution lookup 33 subtable" six.num
Substitution2: "Single Substitution lookup 31 subtable" six.num
Substitution2: "Single Substitution lookup 29 subtable" six.num
Substitution2: "Single Substitution lookup 27 subtable" six.num
Substitution2: "Single Substitution lookup 25 subtable" six.num
Substitution2: "Single Substitution lookup 23 subtable" six.num
Substitution2: "Single Substitution lookup 21 subtable" six.num
Substitution2: "Single Substitution lookup 19 subtable" six.num
Substitution2: "Single Substitution lookup 17 subtable" six.num
EndChar

StartChar: seven
Encoding: 55 55 152
Width: 560
GlyphClass: 1
Flags: W
LayerCount: 2
Fore
SplineSet
237 516 m 2,0,-1
 487 516 l 1,1,-1
 469 538 l 1,2,3
 444 517 444 517 408 478 c 128,-1,4
 372 439 372 439 332 384.5 c 128,-1,5
 292 330 292 330 256 262 c 128,-1,6
 220 194 220 194 194.5 113 c 128,-1,7
 169 32 169 32 162 -60 c 1,8,-1
 329 -60 l 1,9,10
 334 59 334 59 350 144.5 c 128,-1,11
 366 230 366 230 392 293.5 c 128,-1,12
 418 357 418 357 453 410.5 c 128,-1,13
 488 464 488 464 531 518 c 1,14,-1
 531 642 l 1,15,-1
 51 642 l 1,16,-1
 51 385 l 1,17,-1
 124 385 l 1,18,-1
 132 473 l 2,19,20
 134 491 134 491 145 500.5 c 128,-1,21
 156 510 156 510 178.5 513 c 128,-1,22
 201 516 201 516 237 516 c 2,0,-1
EndSplineSet
Substitution2: "'pnum' Proportional Numbers lookup 57 subtable" seven.midprop
Substitution2: "'lnum' Lining Figures lookup 56 subtable" seven.lintab
Substitution2: "'onum' Oldstyle Figures lookup 55 subtable" seven.oldtab
Substitution2: "'sinf' Scientific Inferiors lookup 54 subtable" seven.sub
Substitution2: "'subs' Subscript lookup 53 subtable" seven.sub
Substitution2: "'sups' Superscript lookup 52 subtable" seven.sup
Substitution2: "'numr' Numerators lookup 51 subtable" seven.num
Substitution2: "'dnom' Denominators lookup 50 subtable" seven.den
Substitution2: "Single Substitution lookup 37 subtable" seven.den
Substitution2: "Single Substitution lookup 35 subtable" seven.num
Substitution2: "Single Substitution lookup 33 subtable" seven.num
Substitution2: "Single Substitution lookup 31 subtable" seven.num
Substitution2: "Single Substitution lookup 29 subtable" seven.num
Substitution2: "Single Substitution lookup 27 subtable" seven.num
Substitution2: "Single Substitution lookup 25 subtable" seven.num
Substitution2: "Single Substitution lookup 23 subtable" seven.num
Substitution2: "Single Substitution lookup 21 subtable" seven.num
Substitution2: "Single Substitution lookup 19 subtable" seven.num
Substitution2: "Single Substitution lookup 17 subtable" seven.num
EndChar

StartChar: eight
Encoding: 56 56 153
Width: 560
GlyphClass: 1
Flags: W
LayerCount: 2
Fore
SplineSet
280 69 m 256,0,1
 303 69 303 69 319.5 77 c 128,-1,2
 336 85 336 85 347 102 c 128,-1,3
 358 119 358 119 363.5 144.5 c 128,-1,4
 369 170 369 170 369 204 c 0,5,6
 369 253 369 253 359 282.5 c 128,-1,7
 349 312 349 312 329.5 325.5 c 128,-1,8
 310 339 310 339 280 339 c 0,9,10
 251 339 251 339 231 325.5 c 128,-1,11
 211 312 211 312 201 282.5 c 128,-1,12
 191 253 191 253 191 204 c 0,13,14
 191 170 191 170 196.5 144.5 c 128,-1,15
 202 119 202 119 213 102 c 128,-1,16
 224 85 224 85 240.5 77 c 128,-1,17
 257 69 257 69 280 69 c 256,0,1
280 416 m 256,18,19
 305 416 305 416 321.5 427.5 c 128,-1,20
 338 439 338 439 346.5 464 c 128,-1,21
 355 489 355 489 355 530 c 256,22,23
 355 571 355 571 346.5 596 c 128,-1,24
 338 621 338 621 321.5 633 c 128,-1,25
 305 645 305 645 280 645 c 256,26,27
 255 645 255 645 238.5 633 c 128,-1,28
 222 621 222 621 213.5 596 c 128,-1,29
 205 571 205 571 205 530 c 256,30,31
 205 489 205 489 213.5 464 c 128,-1,32
 222 439 222 439 238.5 427.5 c 128,-1,33
 255 416 255 416 280 416 c 256,18,19
280 723 m 0,34,35
 352 723 352 723 403 701.5 c 128,-1,36
 454 680 454 680 481 640 c 128,-1,37
 508 600 508 600 508 545 c 0,38,39
 508 496 508 496 487 460.5 c 128,-1,40
 466 425 466 425 427.5 403.5 c 128,-1,41
 389 382 389 382 335 373 c 1,42,-1
 370 398 l 1,43,-1
 370 361 l 1,44,-1
 335 387 l 1,45,46
 396 378 396 378 441.5 354 c 128,-1,47
 487 330 487 330 512.5 290.5 c 128,-1,48
 538 251 538 251 538 196 c 0,49,50
 538 133 538 133 507.5 86.5 c 128,-1,51
 477 40 477 40 419 15 c 128,-1,52
 361 -10 361 -10 280 -10 c 256,53,54
 199 -10 199 -10 141 15 c 128,-1,55
 83 40 83 40 52.5 86.5 c 128,-1,56
 22 133 22 133 22 196 c 0,57,58
 22 251 22 251 47.5 290.5 c 128,-1,59
 73 330 73 330 118.5 354 c 128,-1,60
 164 378 164 378 225 387 c 1,61,-1
 190 361 l 1,62,-1
 190 398 l 1,63,-1
 225 373 l 1,64,65
 172 382 172 382 133 403.5 c 128,-1,66
 94 425 94 425 73 460.5 c 128,-1,67
 52 496 52 496 52 545 c 0,68,69
 52 600 52 600 79 640 c 128,-1,70
 106 680 106 680 157.5 701.5 c 128,-1,71
 209 723 209 723 280 723 c 0,34,35
EndSplineSet
Substitution2: "'pnum' Proportional Numbers lookup 57 subtable" eight.midprop
Substitution2: "'lnum' Lining Figures lookup 56 subtable" eight.lintab
Substitution2: "'onum' Oldstyle Figures lookup 55 subtable" eight.oldtab
Substitution2: "'sinf' Scientific Inferiors lookup 54 subtable" eight.sub
Substitution2: "'subs' Subscript lookup 53 subtable" eight.sub
Substitution2: "'sups' Superscript lookup 52 subtable" eight.sup
Substitution2: "'numr' Numerators lookup 51 subtable" eight.num
Substitution2: "'dnom' Denominators lookup 50 subtable" eight.den
Substitution2: "Single Substitution lookup 37 subtable" eight.den
Substitution2: "Single Substitution lookup 35 subtable" eight.num
Substitution2: "Single Substitution lookup 33 subtable" eight.num
Substitution2: "Single Substitution lookup 31 subtable" eight.num
Substitution2: "Single Substitution lookup 29 subtable" eight.num
Substitution2: "Single Substitution lookup 27 subtable" eight.num
Substitution2: "Single Substitution lookup 25 subtable" eight.num
Substitution2: "Single Substitution lookup 23 subtable" eight.num
Substitution2: "Single Substitution lookup 21 subtable" eight.num
Substitution2: "Single Substitution lookup 19 subtable" eight.num
Substitution2: "Single Substitution lookup 17 subtable" eight.num
EndChar

StartChar: nine
Encoding: 57 57 154
Width: 560
GlyphClass: 1
Flags: W
LayerCount: 2
Fore
SplineSet
81 -9 m 1,0,-1
 92 -90 l 1,1,2
 199 -79 199 -79 280.5 -45.5 c 128,-1,3
 362 -12 362 -12 418.5 43.5 c 128,-1,4
 475 99 475 99 504 176 c 128,-1,5
 533 253 533 253 533 351 c 0,6,7
 533 459 533 459 502 526 c 128,-1,8
 471 593 471 593 414 623.5 c 128,-1,9
 357 654 357 654 275 654 c 0,10,11
 200 654 200 654 144.5 626.5 c 128,-1,12
 89 599 89 599 59 545.5 c 128,-1,13
 29 492 29 492 29 415 c 0,14,15
 29 345 29 345 52.5 296.5 c 128,-1,16
 76 248 76 248 120 222.5 c 128,-1,17
 164 197 164 197 223 197 c 0,18,19
 272 197 272 197 306 215.5 c 128,-1,20
 340 234 340 234 362.5 265 c 128,-1,21
 385 296 385 296 400 333 c 1,22,-1
 393 382 l 1,23,24
 376 347 376 347 358.5 323 c 128,-1,25
 341 299 341 299 320.5 287 c 128,-1,26
 300 275 300 275 274 275 c 0,27,28
 243 275 243 275 226 292 c 128,-1,29
 209 309 209 309 202.5 341 c 128,-1,30
 196 373 196 373 196 419 c 0,31,32
 196 461 196 461 200.5 491 c 128,-1,33
 205 521 205 521 215 539.5 c 128,-1,34
 225 558 225 558 240.5 567 c 128,-1,35
 256 576 256 576 278 576 c 256,36,37
 300 576 300 576 317 566.5 c 128,-1,38
 334 557 334 557 345 533 c 128,-1,39
 356 509 356 509 362 466 c 128,-1,40
 368 423 368 423 368 357 c 0,41,42
 368 263 368 263 350 196.5 c 128,-1,43
 332 130 332 130 295.5 87.5 c 128,-1,44
 259 45 259 45 205 21.5 c 128,-1,45
 151 -2 151 -2 81 -9 c 1,0,-1
EndSplineSet
Substitution2: "'pnum' Proportional Numbers lookup 57 subtable" nine.midprop
Substitution2: "'lnum' Lining Figures lookup 56 subtable" nine.lintab
Substitution2: "'onum' Oldstyle Figures lookup 55 subtable" nine.oldtab
Substitution2: "'sinf' Scientific Inferiors lookup 54 subtable" nine.sub
Substitution2: "'subs' Subscript lookup 53 subtable" nine.sub
Substitution2: "'sups' Superscript lookup 52 subtable" nine.sup
Substitution2: "'numr' Numerators lookup 51 subtable" nine.num
Substitution2: "'dnom' Denominators lookup 50 subtable" nine.den
Substitution2: "Single Substitution lookup 37 subtable" nine.den
Substitution2: "Single Substitution lookup 35 subtable" nine.num
Substitution2: "Single Substitution lookup 33 subtable" nine.num
Substitution2: "Single Substitution lookup 31 subtable" nine.num
Substitution2: "Single Substitution lookup 29 subtable" nine.num
Substitution2: "Single Substitution lookup 27 subtable" nine.num
Substitution2: "Single Substitution lookup 25 subtable" nine.num
Substitution2: "Single Substitution lookup 23 subtable" nine.num
Substitution2: "Single Substitution lookup 21 subtable" nine.num
Substitution2: "Single Substitution lookup 19 subtable" nine.num
Substitution2: "Single Substitution lookup 17 subtable" nine.num
EndChar

StartChar: underscore
Encoding: 95 95 158
Width: 514
GlyphClass: 1
Flags: W
LayerCount: 2
Fore
SplineSet
-5 -86 m 1,0,-1
 519 -86 l 1,1,-1
 519 -171 l 1,2,-1
 -5 -171 l 1,3,-1
 -5 -86 l 1,0,-1
EndSplineSet
EndChar

StartChar: hyphen
Encoding: 45 45 159
Width: 491
GlyphClass: 1
Flags: W
LayerCount: 2
Fore
SplineSet
72 354 m 1,0,-1
 419 354 l 1,1,-1
 419 225 l 1,2,-1
 72 225 l 1,3,-1
 72 354 l 1,0,-1
EndSplineSet
EndChar

StartChar: endash
Encoding: 150 8211 162
Width: 645
GlyphClass: 1
Flags: W
LayerCount: 2
Fore
SplineSet
73 366 m 1,0,-1
 572 366 l 1,1,-1
 572 264 l 1,2,-1
 73 264 l 1,3,-1
 73 366 l 1,0,-1
EndSplineSet
EndChar

StartChar: emdash
Encoding: 151 8212 163
Width: 989
GlyphClass: 1
Flags: W
LayerCount: 2
Fore
SplineSet
73 369 m 1,0,-1
 916 369 l 1,1,-1
 916 267 l 1,2,-1
 73 267 l 1,3,-1
 73 369 l 1,0,-1
EndSplineSet
EndChar

StartChar: horizontalbar
Encoding: 277 8213 164
Width: 945
GlyphClass: 1
Flags: W
LayerCount: 2
Fore
SplineSet
0 355 m 1,0,-1
 945 355 l 1,1,-1
 945 275 l 1,2,-1
 0 275 l 1,3,-1
 0 355 l 1,0,-1
EndSplineSet
EndChar

StartChar: parenleft
Encoding: 40 40 165
Width: 399
GlyphClass: 1
Flags: W
LayerCount: 2
Fore
SplineSet
204 310 m 256,0,1
 204 388 204 388 219.5 455 c 128,-1,2
 235 522 235 522 261.5 577.5 c 128,-1,3
 288 633 288 633 321 675.5 c 128,-1,4
 354 718 354 718 389 747 c 1,5,-1
 389 750 l 1,6,-1
 278 750 l 1,7,8
 231 721 231 721 189.5 676.5 c 128,-1,9
 148 632 148 632 116.5 575.5 c 128,-1,10
 85 519 85 519 67 452 c 128,-1,11
 49 385 49 385 49 310 c 256,12,13
 49 235 49 235 67 168 c 128,-1,14
 85 101 85 101 116.5 44.5 c 128,-1,15
 148 -12 148 -12 189.5 -56.5 c 128,-1,16
 231 -101 231 -101 278 -130 c 1,17,-1
 389 -130 l 1,18,-1
 389 -127 l 1,19,20
 354 -98 354 -98 321 -55.5 c 128,-1,21
 288 -13 288 -13 261.5 42.5 c 128,-1,22
 235 98 235 98 219.5 165 c 128,-1,23
 204 232 204 232 204 310 c 256,0,1
EndSplineSet
EndChar

StartChar: parenright
Encoding: 41 41 166
Width: 399
GlyphClass: 1
Flags: W
LayerCount: 2
Fore
SplineSet
195 310 m 256,0,1
 195 232 195 232 179.5 165 c 128,-1,2
 164 98 164 98 137.5 42.5 c 128,-1,3
 111 -13 111 -13 78 -55.5 c 128,-1,4
 45 -98 45 -98 10 -127 c 1,5,-1
 10 -130 l 1,6,-1
 121 -130 l 1,7,8
 168 -101 168 -101 209 -56.5 c 128,-1,9
 250 -12 250 -12 282 44.5 c 128,-1,10
 314 101 314 101 332 168 c 128,-1,11
 350 235 350 235 350 310 c 256,12,13
 350 385 350 385 332 452 c 128,-1,14
 314 519 314 519 282 575.5 c 128,-1,15
 250 632 250 632 209 676.5 c 128,-1,16
 168 721 168 721 121 750 c 1,17,-1
 10 750 l 1,18,-1
 10 747 l 1,19,20
 45 718 45 718 78 675.5 c 128,-1,21
 111 633 111 633 137.5 577.5 c 128,-1,22
 164 522 164 522 179.5 455 c 128,-1,23
 195 388 195 388 195 310 c 256,0,1
EndSplineSet
EndChar

StartChar: bracketleft
Encoding: 91 91 167
Width: 372
GlyphClass: 1
Flags: W
LayerCount: 2
Fore
SplineSet
55 -130 m 1,0,-1
 55 750 l 1,1,-1
 345 750 l 1,2,-1
 345 669 l 1,3,-1
 197 669 l 1,4,-1
 197 -49 l 1,5,-1
 345 -49 l 1,6,-1
 345 -130 l 1,7,-1
 55 -130 l 1,0,-1
EndSplineSet
EndChar

StartChar: bracketright
Encoding: 93 93 168
Width: 372
GlyphClass: 1
Flags: W
LayerCount: 2
Fore
SplineSet
317 -130 m 1,0,-1
 27 -130 l 1,1,-1
 27 -49 l 1,2,-1
 175 -49 l 1,3,-1
 175 669 l 1,4,-1
 27 669 l 1,5,-1
 27 750 l 1,6,-1
 317 750 l 1,7,-1
 317 -130 l 1,0,-1
EndSplineSet
EndChar

StartChar: braceleft
Encoding: 123 123 169
Width: 417
GlyphClass: 1
Flags: W
LayerCount: 2
Fore
SplineSet
333 210 m 0,0,1
 333 192 333 192 323.5 173.5 c 128,-1,2
 314 155 314 155 299.5 135.5 c 128,-1,3
 285 116 285 116 270 95.5 c 128,-1,4
 255 75 255 75 245.5 54.5 c 128,-1,5
 236 34 236 34 236 14 c 0,6,7
 236 -16 236 -16 253.5 -33 c 128,-1,8
 271 -50 271 -50 305 -56.5 c 128,-1,9
 339 -63 339 -63 390 -62 c 1,10,-1
 373 -134 l 1,11,12
 317 -138 317 -138 265 -134.5 c 128,-1,13
 213 -131 213 -131 172.5 -116.5 c 128,-1,14
 132 -102 132 -102 108.5 -73.5 c 128,-1,15
 85 -45 85 -45 85 2 c 0,16,17
 85 38 85 38 100 68.5 c 128,-1,18
 115 99 115 99 138 127.5 c 128,-1,19
 161 156 161 156 185.5 184.5 c 128,-1,20
 210 213 210 213 229 244 c 1,21,-1
 231 215 l 1,22,-1
 49 272 l 1,23,-1
 49 343 l 1,24,-1
 231 400 l 1,25,-1
 229 372 l 1,26,27
 210 403 210 403 185.5 431 c 128,-1,28
 161 459 161 459 138 487.5 c 128,-1,29
 115 516 115 516 100 547 c 128,-1,30
 85 578 85 578 85 613 c 0,31,32
 85 660 85 660 108.5 688.5 c 128,-1,33
 132 717 132 717 172.5 731.5 c 128,-1,34
 213 746 213 746 265 749.5 c 128,-1,35
 317 753 317 753 373 749 c 1,36,-1
 390 677 l 1,37,38
 339 679 339 679 305 672 c 128,-1,39
 271 665 271 665 253.5 648 c 128,-1,40
 236 631 236 631 236 601 c 0,41,42
 236 581 236 581 245.5 560.5 c 128,-1,43
 255 540 255 540 270 520 c 128,-1,44
 285 500 285 500 299.5 480 c 128,-1,45
 314 460 314 460 323.5 441.5 c 128,-1,46
 333 423 333 423 333 405 c 256,47,48
 333 387 333 387 325.5 373.5 c 128,-1,49
 318 360 318 360 299.5 349.5 c 128,-1,50
 281 339 281 339 248 330 c 128,-1,51
 215 321 215 321 163 313 c 1,52,-1
 163 303 l 1,53,54
 215 294 215 294 248 285 c 128,-1,55
 281 276 281 276 299.5 266 c 128,-1,56
 318 256 318 256 325.5 242.5 c 128,-1,57
 333 229 333 229 333 210 c 0,0,1
EndSplineSet
EndChar

StartChar: braceright
Encoding: 125 125 170
Width: 417
GlyphClass: 1
Flags: W
LayerCount: 2
Fore
SplineSet
83 210 m 0,0,1
 83 229 83 229 90.5 242.5 c 128,-1,2
 98 256 98 256 116.5 266 c 128,-1,3
 135 276 135 276 168.5 285 c 128,-1,4
 202 294 202 294 254 303 c 1,5,-1
 254 313 l 1,6,7
 202 321 202 321 168.5 330 c 128,-1,8
 135 339 135 339 116.5 349.5 c 128,-1,9
 98 360 98 360 90.5 373.5 c 128,-1,10
 83 387 83 387 83 405 c 256,11,12
 83 423 83 423 93 441.5 c 128,-1,13
 103 460 103 460 117.5 480 c 128,-1,14
 132 500 132 500 146.5 520 c 128,-1,15
 161 540 161 540 171 560.5 c 128,-1,16
 181 581 181 581 181 601 c 0,17,18
 181 631 181 631 163.5 648 c 128,-1,19
 146 665 146 665 111.5 672 c 128,-1,20
 77 679 77 679 27 677 c 1,21,-1
 44 749 l 1,22,23
 100 753 100 753 151.5 749.5 c 128,-1,24
 203 746 203 746 243.5 731.5 c 128,-1,25
 284 717 284 717 307.5 688.5 c 128,-1,26
 331 660 331 660 331 613 c 0,27,28
 331 578 331 578 316 547 c 128,-1,29
 301 516 301 516 278.5 487.5 c 128,-1,30
 256 459 256 459 231.5 431 c 128,-1,31
 207 403 207 403 188 372 c 1,32,-1
 186 400 l 1,33,-1
 368 343 l 1,34,-1
 368 272 l 1,35,-1
 186 215 l 1,36,-1
 188 244 l 1,37,38
 207 213 207 213 231.5 184.5 c 128,-1,39
 256 156 256 156 278.5 127.5 c 128,-1,40
 301 99 301 99 316 68.5 c 128,-1,41
 331 38 331 38 331 2 c 0,42,43
 331 -45 331 -45 307.5 -73.5 c 128,-1,44
 284 -102 284 -102 243.5 -116.5 c 128,-1,45
 203 -131 203 -131 151.5 -134.5 c 128,-1,46
 100 -138 100 -138 44 -134 c 1,47,-1
 27 -62 l 1,48,49
 77 -63 77 -63 111.5 -56.5 c 128,-1,50
 146 -50 146 -50 163.5 -33 c 128,-1,51
 181 -16 181 -16 181 14 c 0,52,53
 181 34 181 34 171 54.5 c 128,-1,54
 161 75 161 75 146.5 95.5 c 128,-1,55
 132 116 132 116 117.5 135.5 c 128,-1,56
 103 155 103 155 93 173.5 c 128,-1,57
 83 192 83 192 83 210 c 0,0,1
EndSplineSet
EndChar

StartChar: numbersign
Encoding: 35 35 171
Width: 693
GlyphClass: 1
Flags: W
LayerCount: 2
Fore
SplineSet
109 0 m 1,0,-1
 273 765 l 1,1,-1
 360 765 l 1,2,-1
 196 0 l 1,3,-1
 109 0 l 1,0,-1
30 204 m 1,4,-1
 30 322 l 1,5,-1
 608 322 l 1,6,-1
 608 204 l 1,7,-1
 30 204 l 1,4,-1
81 466 m 1,8,-1
 81 584 l 1,9,-1
 660 584 l 1,10,-1
 660 466 l 1,11,-1
 81 466 l 1,8,-1
323 0 m 1,12,-1
 484 765 l 1,13,-1
 573 765 l 1,14,-1
 410 0 l 1,15,-1
 323 0 l 1,12,-1
EndSplineSet
EndChar

StartChar: percent
Encoding: 37 37 172
Width: 779
GlyphClass: 1
Flags: W
LayerCount: 2
Fore
SplineSet
193 365 m 0,0,1
 143 365 143 365 104 387.5 c 128,-1,2
 65 410 65 410 43.5 451.5 c 128,-1,3
 22 493 22 493 22 551 c 0,4,5
 22 608 22 608 43.5 649.5 c 128,-1,6
 65 691 65 691 104 713.5 c 128,-1,7
 143 736 143 736 193 736 c 0,8,9
 244 736 244 736 282.5 713.5 c 128,-1,10
 321 691 321 691 342.5 649.5 c 128,-1,11
 364 608 364 608 364 551 c 0,12,13
 364 493 364 493 342.5 451.5 c 128,-1,14
 321 410 321 410 282.5 387.5 c 128,-1,15
 244 365 244 365 193 365 c 0,0,1
193 430 m 0,16,17
 211 430 211 430 222 441.5 c 128,-1,18
 233 453 233 453 239 479.5 c 128,-1,19
 245 506 245 506 245 551 c 0,20,21
 245 595 245 595 239 621 c 128,-1,22
 233 647 233 647 222 658.5 c 128,-1,23
 211 670 211 670 193 670 c 0,24,25
 176 670 176 670 164.5 658.5 c 128,-1,26
 153 647 153 647 147.5 621 c 128,-1,27
 142 595 142 595 142 551 c 0,28,29
 142 506 142 506 147.5 479.5 c 128,-1,30
 153 453 153 453 164.5 441.5 c 128,-1,31
 176 430 176 430 193 430 c 0,16,17
586 -16 m 256,32,33
 535 -16 535 -16 496.5 6.5 c 128,-1,34
 458 29 458 29 436.5 70.5 c 128,-1,35
 415 112 415 112 415 169 c 256,36,37
 415 226 415 226 436.5 268 c 128,-1,38
 458 310 458 310 496.5 332.5 c 128,-1,39
 535 355 535 355 586 355 c 256,40,41
 637 355 637 355 675 332.5 c 128,-1,42
 713 310 713 310 735 268.5 c 128,-1,43
 757 227 757 227 757 169 c 0,44,45
 757 112 757 112 735 70.5 c 128,-1,46
 713 29 713 29 675 6.5 c 128,-1,47
 637 -16 637 -16 586 -16 c 256,32,33
50 0 m 1,48,-1
 625 710 l 1,49,-1
 726 710 l 1,50,-1
 151 0 l 1,51,-1
 50 0 l 1,48,-1
586 49 m 0,52,53
 603 49 603 49 614.5 60.5 c 128,-1,54
 626 72 626 72 631.5 98.5 c 128,-1,55
 637 125 637 125 637 169 c 0,56,57
 637 214 637 214 631.5 240 c 128,-1,58
 626 266 626 266 614.5 277.5 c 128,-1,59
 603 289 603 289 586 289 c 0,60,61
 568 289 568 289 556.5 277.5 c 128,-1,62
 545 266 545 266 539.5 240 c 128,-1,63
 534 214 534 214 534 169 c 0,64,65
 534 125 534 125 539.5 98.5 c 128,-1,66
 545 72 545 72 556.5 60.5 c 128,-1,67
 568 49 568 49 586 49 c 0,52,53
EndSplineSet
EndChar

StartChar: perthousand
Encoding: 137 8240 173
Width: 1150
GlyphClass: 1
Flags: W
LayerCount: 2
Fore
SplineSet
191 430 m 0,0,1
 209 430 209 430 220 441.5 c 128,-1,2
 231 453 231 453 237 479.5 c 128,-1,3
 243 506 243 506 243 551 c 0,4,5
 243 595 243 595 237 621 c 128,-1,6
 231 647 231 647 220 658.5 c 128,-1,7
 209 670 209 670 191 670 c 0,8,9
 174 670 174 670 162.5 658.5 c 128,-1,10
 151 647 151 647 145.5 621 c 128,-1,11
 140 595 140 595 140 551 c 0,12,13
 140 506 140 506 145.5 479.5 c 128,-1,14
 151 453 151 453 162.5 441.5 c 128,-1,15
 174 430 174 430 191 430 c 0,0,1
191 365 m 0,16,17
 141 365 141 365 102.5 387.5 c 128,-1,18
 64 410 64 410 42.5 451.5 c 128,-1,19
 21 493 21 493 21 551 c 0,20,21
 21 608 21 608 42.5 649.5 c 128,-1,22
 64 691 64 691 102.5 713.5 c 128,-1,23
 141 736 141 736 191 736 c 0,24,25
 242 736 242 736 280.5 713.5 c 128,-1,26
 319 691 319 691 341 649.5 c 128,-1,27
 363 608 363 608 363 551 c 0,28,29
 363 493 363 493 341 451.5 c 128,-1,30
 319 410 319 410 280.5 387.5 c 128,-1,31
 242 365 242 365 191 365 c 0,16,17
145 0 m 1,32,-1
 44 0 l 1,33,-1
 619 710 l 1,34,-1
 720 710 l 1,35,-1
 145 0 l 1,32,-1
577 49 m 0,36,37
 595 49 595 49 606 60.5 c 128,-1,38
 617 72 617 72 622.5 98.5 c 128,-1,39
 628 125 628 125 628 169 c 0,40,41
 628 214 628 214 622.5 240 c 128,-1,42
 617 266 617 266 606 277.5 c 128,-1,43
 595 289 595 289 577 289 c 0,44,45
 560 289 560 289 548.5 277.5 c 128,-1,46
 537 266 537 266 531.5 240 c 128,-1,47
 526 214 526 214 526 169 c 0,48,49
 526 125 526 125 531.5 98.5 c 128,-1,50
 537 72 537 72 548.5 60.5 c 128,-1,51
 560 49 560 49 577 49 c 0,36,37
577 -16 m 256,52,53
 526 -16 526 -16 487.5 6.5 c 128,-1,54
 449 29 449 29 427.5 70.5 c 128,-1,55
 406 112 406 112 406 169 c 256,56,57
 406 226 406 226 427.5 268 c 128,-1,58
 449 310 449 310 487.5 332.5 c 128,-1,59
 526 355 526 355 577 355 c 256,60,61
 628 355 628 355 666.5 332.5 c 128,-1,62
 705 310 705 310 726.5 268.5 c 128,-1,63
 748 227 748 227 748 169 c 0,64,65
 748 112 748 112 726.5 70.5 c 128,-1,66
 705 29 705 29 666.5 6.5 c 128,-1,67
 628 -16 628 -16 577 -16 c 256,52,53
958 49 m 0,68,69
 976 49 976 49 987 60.5 c 128,-1,70
 998 72 998 72 1004 98.5 c 128,-1,71
 1010 125 1010 125 1010 169 c 0,72,73
 1010 214 1010 214 1004 240 c 128,-1,74
 998 266 998 266 987 277.5 c 128,-1,75
 976 289 976 289 958 289 c 0,76,77
 941 289 941 289 929.5 277.5 c 128,-1,78
 918 266 918 266 912.5 240 c 128,-1,79
 907 214 907 214 907 169 c 0,80,81
 907 125 907 125 912.5 98.5 c 128,-1,82
 918 72 918 72 929.5 60.5 c 128,-1,83
 941 49 941 49 958 49 c 0,68,69
958 -16 m 0,84,85
 908 -16 908 -16 869 6.5 c 128,-1,86
 830 29 830 29 808.5 70.5 c 128,-1,87
 787 112 787 112 787 169 c 256,88,89
 787 226 787 226 808.5 268 c 128,-1,90
 830 310 830 310 869 332.5 c 128,-1,91
 908 355 908 355 958 355 c 0,92,93
 1009 355 1009 355 1047.5 332.5 c 128,-1,94
 1086 310 1086 310 1107.5 268.5 c 128,-1,95
 1129 227 1129 227 1129 169 c 0,96,97
 1129 112 1129 112 1107.5 70.5 c 128,-1,98
 1086 29 1086 29 1047.5 6.5 c 128,-1,99
 1009 -16 1009 -16 958 -16 c 0,84,85
EndSplineSet
EndChar

StartChar: quotesingle
Encoding: 39 39 174
Width: 263
GlyphClass: 1
Flags: W
LayerCount: 2
Fore
SplineSet
204 740 m 1,0,-1
 59 740 l 1,1,2
 59 704 59 704 63 675 c 128,-1,3
 67 646 67 646 72 615.5 c 128,-1,4
 77 585 77 585 81.5 547 c 128,-1,5
 86 509 86 509 86 455 c 1,6,-1
 177 455 l 1,7,8
 177 509 177 509 181 547 c 128,-1,9
 185 585 185 585 190.5 616 c 128,-1,10
 196 647 196 647 200 676 c 128,-1,11
 204 705 204 705 204 740 c 1,0,-1
EndSplineSet
EndChar

StartChar: quoteleft
Encoding: 145 8216 176
Width: 295
GlyphClass: 1
Flags: W
LayerCount: 2
Fore
SplineSet
188 758 m 1,0,-1
 268 694 l 1,1,2
 237 680 237 680 212 664 c 128,-1,3
 187 648 187 648 168 629.5 c 128,-1,4
 149 611 149 611 138.5 586.5 c 128,-1,5
 128 562 128 562 128 531 c 1,6,-1
 104 546 l 1,7,8
 115 554 115 554 127 556 c 128,-1,9
 139 558 139 558 152 558 c 0,10,11
 193 558 193 558 216.5 538 c 128,-1,12
 240 518 240 518 240 482 c 256,13,14
 240 446 240 446 215 423 c 128,-1,15
 190 400 190 400 145 400 c 0,16,17
 99 400 99 400 71 426 c 128,-1,18
 43 452 43 452 43 511 c 0,19,20
 43 557 43 557 53.5 594 c 128,-1,21
 64 631 64 631 83.5 660.5 c 128,-1,22
 103 690 103 690 130 714 c 128,-1,23
 157 738 157 738 188 758 c 1,0,-1
EndSplineSet
EndChar

StartChar: quoteright
Encoding: 146 8217 177
Width: 295
GlyphClass: 1
Flags: W
LayerCount: 2
Fore
SplineSet
107 393 m 1,0,-1
 27 457 l 1,1,2
 58 471 58 471 83.5 486.5 c 128,-1,3
 109 502 109 502 127.5 521 c 128,-1,4
 146 540 146 540 156.5 564 c 128,-1,5
 167 588 167 588 168 619 c 1,6,-1
 191 605 l 1,7,8
 180 597 180 597 168 594.5 c 128,-1,9
 156 592 156 592 143 592 c 0,10,11
 103 592 103 592 79 612.5 c 128,-1,12
 55 633 55 633 55 669 c 256,13,14
 55 705 55 705 80 727.5 c 128,-1,15
 105 750 105 750 150 750 c 0,16,17
 197 750 197 750 225 724 c 128,-1,18
 253 698 253 698 253 640 c 0,19,20
 253 594 253 594 242 557 c 128,-1,21
 231 520 231 520 211.5 490.5 c 128,-1,22
 192 461 192 461 165.5 437 c 128,-1,23
 139 413 139 413 107 393 c 1,0,-1
EndSplineSet
EndChar

StartChar: quotedblleft
Encoding: 147 8220 178
Width: 546
GlyphClass: 1
Flags: W
LayerCount: 2
Fore
SplineSet
439 758 m 1,0,-1
 519 694 l 1,1,2
 488 680 488 680 463 664 c 128,-1,3
 438 648 438 648 419 629.5 c 128,-1,4
 400 611 400 611 389.5 586.5 c 128,-1,5
 379 562 379 562 378 531 c 1,6,-1
 355 546 l 1,7,8
 366 554 366 554 378 556 c 128,-1,9
 390 558 390 558 403 558 c 0,10,11
 444 558 444 558 467.5 538 c 128,-1,12
 491 518 491 518 491 482 c 256,13,14
 491 446 491 446 466 423 c 128,-1,15
 441 400 441 400 396 400 c 0,16,17
 350 400 350 400 321.5 426 c 128,-1,18
 293 452 293 452 293 511 c 0,19,20
 293 557 293 557 304 594 c 128,-1,21
 315 631 315 631 334.5 660.5 c 128,-1,22
 354 690 354 690 380.5 714 c 128,-1,23
 407 738 407 738 439 758 c 1,0,-1
188 758 m 1,24,-1
 268 694 l 1,25,26
 237 680 237 680 212 664 c 128,-1,27
 187 648 187 648 168 629.5 c 128,-1,28
 149 611 149 611 138.5 586.5 c 128,-1,29
 128 562 128 562 128 531 c 1,30,-1
 104 546 l 1,31,32
 115 554 115 554 127 556 c 128,-1,33
 139 558 139 558 152 558 c 0,34,35
 193 558 193 558 216.5 538 c 128,-1,36
 240 518 240 518 240 482 c 256,37,38
 240 446 240 446 215 423 c 128,-1,39
 190 400 190 400 145 400 c 0,40,41
 99 400 99 400 71 426 c 128,-1,42
 43 452 43 452 43 511 c 0,43,44
 43 557 43 557 53.5 594 c 128,-1,45
 64 631 64 631 83.5 660.5 c 128,-1,46
 103 690 103 690 130 714 c 128,-1,47
 157 738 157 738 188 758 c 1,24,-1
EndSplineSet
EndChar

StartChar: guilsinglleft
Encoding: 139 8249 182
Width: 376
GlyphClass: 1
Flags: W
LayerCount: 2
Fore
SplineSet
179 236 m 1,0,-1
 180 313 l 1,1,-1
 330 66 l 1,2,-1
 232 66 l 1,3,-1
 48 245 l 1,4,-1
 48 308 l 1,5,-1
 232 487 l 1,6,-1
 330 487 l 1,7,-1
 179 236 l 1,0,-1
EndSplineSet
EndChar

StartChar: guilsinglright
Encoding: 155 8250 183
Width: 376
GlyphClass: 1
Flags: W
LayerCount: 2
Fore
SplineSet
196 233 m 1,0,-1
 46 484 l 1,1,-1
 144 484 l 1,2,-1
 328 305 l 1,3,-1
 328 242 l 1,4,-1
 144 63 l 1,5,-1
 46 63 l 1,6,-1
 195 310 l 1,7,-1
 196 233 l 1,0,-1
EndSplineSet
EndChar

StartChar: guillemotright
Encoding: 187 187 185
Width: 636
GlyphClass: 1
Flags: W
LayerCount: 2
Fore
SplineSet
457 233 m 1,0,-1
 306 484 l 1,1,-1
 404 484 l 1,2,-1
 588 305 l 1,3,-1
 588 242 l 1,4,-1
 404 63 l 1,5,-1
 306 63 l 1,6,-1
 456 310 l 1,7,-1
 457 233 l 1,0,-1
196 233 m 1,8,-1
 46 484 l 1,9,-1
 144 484 l 1,10,-1
 328 305 l 1,11,-1
 328 242 l 1,12,-1
 144 63 l 1,13,-1
 46 63 l 1,14,-1
 195 310 l 1,15,-1
 196 233 l 1,8,-1
EndSplineSet
EndChar

StartChar: asterisk
Encoding: 42 42 186
Width: 538
GlyphClass: 1
Flags: W
LayerCount: 2
Fore
SplineSet
104 363 m 1,0,-1
 45 465 l 1,1,2
 68 479 68 479 89.5 486.5 c 128,-1,3
 111 494 111 494 133.5 500.5 c 128,-1,4
 156 507 156 507 181.5 516.5 c 128,-1,5
 207 526 207 526 237 543 c 1,6,-1
 267 492 l 1,7,8
 237 474 237 474 216.5 456.5 c 128,-1,9
 196 439 196 439 179 423 c 128,-1,10
 162 407 162 407 144.5 392 c 128,-1,11
 127 377 127 377 104 363 c 1,0,-1
210 752 m 1,12,-1
 327 752 l 1,13,14
 327 725 327 725 322.5 702.5 c 128,-1,15
 318 680 318 680 313 657.5 c 128,-1,16
 308 635 308 635 303.5 608 c 128,-1,17
 299 581 299 581 299 546 c 1,18,-1
 238 546 l 1,19,20
 238 581 238 581 233.5 608 c 128,-1,21
 229 635 229 635 224 657.5 c 128,-1,22
 219 680 219 680 214.5 702.5 c 128,-1,23
 210 725 210 725 210 752 c 1,12,-1
45 589 m 1,24,-1
 104 690 l 1,25,26
 126 677 126 677 144 662 c 128,-1,27
 162 647 162 647 178.5 631 c 128,-1,28
 195 615 195 615 216 597.5 c 128,-1,29
 237 580 237 580 266 562 c 1,30,-1
 237 511 l 1,31,32
 207 528 207 528 181 537.5 c 128,-1,33
 155 547 155 547 133 553.5 c 128,-1,34
 111 560 111 560 89.5 567.5 c 128,-1,35
 68 575 68 575 45 589 c 1,24,-1
211 303 m 1,36,37
 211 329 211 329 215 351.5 c 128,-1,38
 219 374 219 374 224.5 397 c 128,-1,39
 230 420 230 420 234.5 446.5 c 128,-1,40
 239 473 239 473 239 508 c 1,41,-1
 299 508 l 1,42,43
 300 473 300 473 304.5 446.5 c 128,-1,44
 309 420 309 420 314 397 c 128,-1,45
 319 374 319 374 323.5 351.5 c 128,-1,46
 328 329 328 329 328 303 c 1,47,-1
 211 303 l 1,36,37
301 511 m 1,48,-1
 271 562 l 1,49,50
 301 580 301 580 321.5 597.5 c 128,-1,51
 342 615 342 615 359 631 c 128,-1,52
 376 647 376 647 393.5 662.5 c 128,-1,53
 411 678 411 678 434 691 c 1,54,-1
 492 589 l 1,55,56
 469 575 469 575 448 567.5 c 128,-1,57
 427 560 427 560 404.5 553.5 c 128,-1,58
 382 547 382 547 356.5 537.5 c 128,-1,59
 331 528 331 528 301 511 c 1,48,-1
434 364 m 1,60,61
 411 377 411 377 393.5 392 c 128,-1,62
 376 407 376 407 359.5 423 c 128,-1,63
 343 439 343 439 322.5 456.5 c 128,-1,64
 302 474 302 474 272 492 c 1,65,-1
 301 543 l 1,66,67
 332 526 332 526 357 516.5 c 128,-1,68
 382 507 382 507 404.5 500.5 c 128,-1,69
 427 494 427 494 448.5 486.5 c 128,-1,70
 470 479 470 479 492 465 c 1,71,-1
 434 364 l 1,60,61
EndSplineSet
EndChar

StartChar: dagger
Encoding: 134 8224 187
Width: 568
GlyphClass: 1
Flags: W
LayerCount: 2
Fore
SplineSet
252 473 m 1,0,-1
 74 399 l 1,1,-1
 34 399 l 1,2,-1
 34 570 l 1,3,-1
 74 570 l 1,4,-1
 252 513 l 1,5,-1
 316 513 l 1,6,-1
 493 570 l 1,7,-1
 534 570 l 1,8,-1
 534 399 l 1,9,-1
 493 399 l 1,10,-1
 316 473 l 1,11,-1
 252 473 l 1,0,-1
398 710 m 1,12,-1
 398 667 l 2,13,14
 398 655 398 655 390 640.5 c 128,-1,15
 382 626 382 626 370.5 609.5 c 128,-1,16
 359 593 359 593 347.5 574 c 128,-1,17
 336 555 336 555 328 534.5 c 128,-1,18
 320 514 320 514 320 492 c 0,19,20
 320 460 320 460 328 435 c 128,-1,21
 336 410 336 410 349 392 c 128,-1,22
 362 374 362 374 376.5 361 c 128,-1,23
 391 348 391 348 405 339 c 1,24,-1
 405 312 l 2,25,26
 405 298 405 298 396 273 c 128,-1,27
 387 248 387 248 373 209.5 c 128,-1,28
 359 171 359 171 345 114 c 128,-1,29
 331 57 331 57 320 -23 c 1,30,-1
 248 -23 l 1,31,32
 237 57 237 57 223 114 c 128,-1,33
 209 171 209 171 195 209.5 c 128,-1,34
 181 248 181 248 172 273 c 128,-1,35
 163 298 163 298 163 312 c 2,36,-1
 163 339 l 1,37,38
 177 348 177 348 191.5 361 c 128,-1,39
 206 374 206 374 219 392 c 128,-1,40
 232 410 232 410 240 435 c 128,-1,41
 248 460 248 460 248 492 c 0,42,43
 248 514 248 514 240 534.5 c 128,-1,44
 232 555 232 555 220.5 574 c 128,-1,45
 209 593 209 593 197.5 609.5 c 128,-1,46
 186 626 186 626 178 640.5 c 128,-1,47
 170 655 170 655 170 667 c 2,48,-1
 170 710 l 1,49,-1
 398 710 l 1,12,-1
EndSplineSet
EndChar

StartChar: daggerdbl
Encoding: 135 8225 188
Width: 568
GlyphClass: 1
Flags: W
LayerCount: 2
Fore
SplineSet
316 528 m 1,0,-1
 493 584 l 1,1,-1
 534 584 l 1,2,-1
 534 430 l 1,3,-1
 493 430 l 1,4,-1
 316 490 l 1,5,-1
 252 490 l 1,6,-1
 74 430 l 1,7,-1
 34 430 l 1,8,-1
 34 584 l 1,9,-1
 74 584 l 1,10,-1
 252 528 l 1,11,-1
 316 528 l 1,0,-1
398 710 m 1,12,-1
 398 670 l 2,13,14
 398 658 398 658 390 644.5 c 128,-1,15
 382 631 382 631 370.5 616 c 128,-1,16
 359 601 359 601 347.5 584 c 128,-1,17
 336 567 336 567 328 547.5 c 128,-1,18
 320 528 320 528 320 506 c 0,19,20
 320 477 320 477 328 455.5 c 128,-1,21
 336 434 336 434 349.5 418.5 c 128,-1,22
 363 403 363 403 378 391.5 c 128,-1,23
 393 380 393 380 406 371 c 1,24,-1
 406 316 l 1,25,26
 393 307 393 307 378 295.5 c 128,-1,27
 363 284 363 284 349.5 268.5 c 128,-1,28
 336 253 336 253 328 232 c 128,-1,29
 320 211 320 211 320 181 c 0,30,31
 320 159 320 159 328 139.5 c 128,-1,32
 336 120 336 120 347.5 103 c 128,-1,33
 359 86 359 86 370.5 71 c 128,-1,34
 382 56 382 56 390 42.5 c 128,-1,35
 398 29 398 29 398 17 c 2,36,-1
 398 -23 l 1,37,-1
 170 -23 l 1,38,-1
 170 17 l 2,39,40
 170 29 170 29 178 42.5 c 128,-1,41
 186 56 186 56 197.5 71 c 128,-1,42
 209 86 209 86 220.5 103 c 128,-1,43
 232 120 232 120 240 139.5 c 128,-1,44
 248 159 248 159 248 181 c 0,45,46
 248 211 248 211 239.5 232 c 128,-1,47
 231 253 231 253 218 268.5 c 128,-1,48
 205 284 205 284 190 295.5 c 128,-1,49
 175 307 175 307 162 316 c 1,50,-1
 162 371 l 1,51,52
 175 380 175 380 190 391.5 c 128,-1,53
 205 403 205 403 218 418.5 c 128,-1,54
 231 434 231 434 239.5 455.5 c 128,-1,55
 248 477 248 477 248 506 c 0,56,57
 248 528 248 528 240 547.5 c 128,-1,58
 232 567 232 567 220.5 584 c 128,-1,59
 209 601 209 601 197.5 616 c 128,-1,60
 186 631 186 631 178 644.5 c 128,-1,61
 170 658 170 658 170 670 c 2,62,-1
 170 710 l 1,63,-1
 398 710 l 1,12,-1
316 197 m 1,64,-1
 493 257 l 1,65,-1
 534 257 l 1,66,-1
 534 103 l 1,67,-1
 493 103 l 1,68,-1
 316 159 l 1,69,-1
 252 159 l 1,70,-1
 74 103 l 1,71,-1
 34 103 l 1,72,-1
 34 257 l 1,73,-1
 74 257 l 1,74,-1
 252 197 l 1,75,-1
 316 197 l 1,64,-1
EndSplineSet
EndChar

StartChar: period
Encoding: 46 46 189
Width: 354
GlyphClass: 1
Flags: W
LayerCount: 2
Fore
SplineSet
177 -15 m 256,0,1
 127 -15 127 -15 97 11.5 c 128,-1,2
 67 38 67 38 67 85 c 256,3,4
 67 132 67 132 97 159 c 128,-1,5
 127 186 127 186 177 186 c 256,6,7
 227 186 227 186 257 159 c 128,-1,8
 287 132 287 132 287 85 c 256,9,10
 287 38 287 38 257 11.5 c 128,-1,11
 227 -15 227 -15 177 -15 c 256,0,1
EndSplineSet
Substitution2: "Single Substitution lookup 59 subtable" period.tab
EndChar

StartChar: comma
Encoding: 44 44 190
Width: 372
GlyphClass: 1
Flags: W
LayerCount: 2
Fore
SplineSet
143 -202 m 1,0,-1
 48 -131 l 1,1,2
 103 -112 103 -112 139.5 -91 c 128,-1,3
 176 -70 176 -70 195 -43 c 128,-1,4
 214 -16 214 -16 215 21 c 0,5,6
 216 32 216 32 218.5 36 c 128,-1,7
 221 40 221 40 225 38 c 128,-1,8
 229 36 229 36 234 31 c 128,-1,9
 239 26 239 26 245 19 c 1,10,11
 237 9 237 9 225.5 3 c 128,-1,12
 214 -3 214 -3 201 -5.5 c 128,-1,13
 188 -8 188 -8 173 -8 c 0,14,15
 127 -8 127 -8 99 15.5 c 128,-1,16
 71 39 71 39 71 83 c 0,17,18
 71 128 71 128 101 155.5 c 128,-1,19
 131 183 131 183 184 183 c 0,20,21
 222 183 222 183 249.5 169.5 c 128,-1,22
 277 156 277 156 292 126 c 128,-1,23
 307 96 307 96 307 48 c 0,24,25
 307 -11 307 -11 288.5 -56.5 c 128,-1,26
 270 -102 270 -102 233.5 -137.5 c 128,-1,27
 197 -173 197 -173 143 -202 c 1,0,-1
EndSplineSet
Substitution2: "Single Substitution lookup 59 subtable" comma.tab
EndChar

StartChar: exclam
Encoding: 33 33 194
Width: 355
GlyphClass: 1
Flags: W
LayerCount: 2
Fore
SplineSet
274 741 m 1,0,-1
 81 741 l 1,1,2
 81 687 81 687 85 641 c 128,-1,3
 89 595 89 595 95.5 552 c 128,-1,4
 102 509 102 509 108.5 464.5 c 128,-1,5
 115 420 115 420 119 369.5 c 128,-1,6
 123 319 123 319 123 258 c 1,7,-1
 232 258 l 1,8,9
 232 319 232 319 236 369.5 c 128,-1,10
 240 420 240 420 246.5 464.5 c 128,-1,11
 253 509 253 509 259.5 552 c 128,-1,12
 266 595 266 595 270 641 c 128,-1,13
 274 687 274 687 274 741 c 1,0,-1
177 -15 m 0,14,15
 127 -15 127 -15 97.5 11.5 c 128,-1,16
 68 38 68 38 68 85 c 256,17,18
 68 132 68 132 97.5 159 c 128,-1,19
 127 186 127 186 177 186 c 0,20,21
 228 186 228 186 257.5 159 c 128,-1,22
 287 132 287 132 287 85 c 256,23,24
 287 38 287 38 257.5 11.5 c 128,-1,25
 228 -15 228 -15 177 -15 c 0,14,15
EndSplineSet
EndChar

StartChar: exclamdown
Encoding: 161 161 195
Width: 343
GlyphClass: 1
Flags: W
LayerCount: 2
Fore
SplineSet
268 -192 m 1,0,1
 268 -138 268 -138 264 -92.5 c 128,-1,2
 260 -47 260 -47 253.5 -4 c 128,-1,3
 247 39 247 39 240.5 83.5 c 128,-1,4
 234 128 234 128 230 178.5 c 128,-1,5
 226 229 226 229 226 291 c 1,6,-1
 117 291 l 1,7,8
 117 229 117 229 113 178.5 c 128,-1,9
 109 128 109 128 102.5 83.5 c 128,-1,10
 96 39 96 39 89.5 -4 c 128,-1,11
 83 -47 83 -47 79 -92.5 c 128,-1,12
 75 -138 75 -138 75 -192 c 1,13,-1
 268 -192 l 1,0,1
171 564 m 0,14,15
 222 564 222 564 251.5 537.5 c 128,-1,16
 281 511 281 511 281 463 c 0,17,18
 281 416 281 416 251.5 389.5 c 128,-1,19
 222 363 222 363 171 363 c 0,20,21
 121 363 121 363 91.5 389.5 c 128,-1,22
 62 416 62 416 62 463 c 0,23,24
 62 511 62 511 91.5 537.5 c 128,-1,25
 121 564 121 564 171 564 c 0,14,15
EndSplineSet
EndChar

StartChar: question
Encoding: 63 63 196
Width: 606
GlyphClass: 1
Flags: W
LayerCount: 2
Fore
SplineSet
217 406 m 1,0,-1
 217 256 l 1,1,-1
 336 256 l 1,2,-1
 336 359 l 1,3,4
 377 368 377 368 417 382.5 c 128,-1,5
 457 397 457 397 490 420.5 c 128,-1,6
 523 444 523 444 542 479 c 128,-1,7
 561 514 561 514 561 563 c 0,8,9
 561 623 561 623 530.5 663.5 c 128,-1,10
 500 704 500 704 441.5 724.5 c 128,-1,11
 383 745 383 745 297 745 c 0,12,13
 237 745 237 745 187.5 733 c 128,-1,14
 138 721 138 721 103 705 c 128,-1,15
 68 689 68 689 52 675 c 1,16,-1
 52 538 l 1,17,-1
 197 538 l 1,18,-1
 197 669 l 1,19,20
 184 668 184 668 174.5 663 c 128,-1,21
 165 658 165 658 159.5 651 c 128,-1,22
 154 644 154 644 152 636 c 128,-1,23
 150 628 150 628 152 619 c 1,24,25
 165 632 165 632 182 642 c 128,-1,26
 199 652 199 652 223.5 658 c 128,-1,27
 248 664 248 664 278 664 c 0,28,29
 314 664 314 664 338 654 c 128,-1,30
 362 644 362 644 374 622 c 128,-1,31
 386 600 386 600 386 564 c 0,32,33
 386 526 386 526 373.5 499.5 c 128,-1,34
 361 473 361 473 338.5 456 c 128,-1,35
 316 439 316 439 285 427.5 c 128,-1,36
 254 416 254 416 217 406 c 1,0,-1
277 -16 m 0,37,38
 227 -16 227 -16 197.5 10.5 c 128,-1,39
 168 37 168 37 168 84 c 0,40,41
 168 132 168 132 197.5 158.5 c 128,-1,42
 227 185 227 185 277 185 c 0,43,44
 328 185 328 185 357.5 158.5 c 128,-1,45
 387 132 387 132 387 84 c 0,46,47
 387 37 387 37 357.5 10.5 c 128,-1,48
 328 -16 328 -16 277 -16 c 0,37,38
EndSplineSet
EndChar

StartChar: questiondown
Encoding: 191 191 197
Width: 578
GlyphClass: 1
Flags: W
LayerCount: 2
Fore
SplineSet
387 142 m 1,0,-1
 387 291 l 1,1,-1
 268 291 l 1,2,-1
 268 189 l 1,3,4
 227 180 227 180 187 165.5 c 128,-1,5
 147 151 147 151 114.5 127 c 128,-1,6
 82 103 82 103 62.5 68 c 128,-1,7
 43 33 43 33 43 -16 c 0,8,9
 43 -76 43 -76 73.5 -116.5 c 128,-1,10
 104 -157 104 -157 163 -177.5 c 128,-1,11
 222 -198 222 -198 308 -198 c 0,12,13
 368 -198 368 -198 417.5 -186 c 128,-1,14
 467 -174 467 -174 502 -157 c 128,-1,15
 537 -140 537 -140 553 -128 c 1,16,-1
 553 9 l 1,17,-1
 408 9 l 1,18,-1
 408 -122 l 1,19,20
 421 -120 421 -120 430 -115 c 128,-1,21
 439 -110 439 -110 444.5 -103 c 128,-1,22
 450 -96 450 -96 452.5 -88 c 128,-1,23
 455 -80 455 -80 453 -72 c 1,24,25
 440 -84 440 -84 422.5 -94.5 c 128,-1,26
 405 -105 405 -105 381 -111 c 128,-1,27
 357 -117 357 -117 326 -117 c 0,28,29
 291 -117 291 -117 267 -106.5 c 128,-1,30
 243 -96 243 -96 230.5 -74 c 128,-1,31
 218 -52 218 -52 218 -17 c 0,32,33
 218 21 218 21 230.5 47.5 c 128,-1,34
 243 74 243 74 265.5 91.5 c 128,-1,35
 288 109 288 109 319 120.5 c 128,-1,36
 350 132 350 132 387 142 c 1,0,-1
327 564 m 0,37,38
 378 564 378 564 407.5 537 c 128,-1,39
 437 510 437 510 437 463 c 256,40,41
 437 416 437 416 407.5 389 c 128,-1,42
 378 362 378 362 327 362 c 0,43,44
 277 362 277 362 247 389 c 128,-1,45
 217 416 217 416 217 463 c 256,46,47
 217 510 217 510 247 537 c 128,-1,48
 277 564 277 564 327 564 c 0,37,38
EndSplineSet
EndChar

StartChar: slash
Encoding: 47 47 198
Width: 531
GlyphClass: 1
Flags: W
LayerCount: 2
Fore
SplineSet
536 759 m 1,0,-1
 416 759 l 1,1,-1
 -5 -150 l 1,2,-1
 115 -150 l 1,3,-1
 536 759 l 1,0,-1
EndSplineSet
Substitution2: "Single Substitution lookup 15 subtable" fraction
EndChar

StartChar: backslash
Encoding: 92 92 199
Width: 531
GlyphClass: 1
Flags: W
LayerCount: 2
Fore
SplineSet
-5 759 m 1,0,-1
 416 -150 l 1,1,-1
 536 -150 l 1,2,-1
 115 759 l 1,3,-1
 -5 759 l 1,0,-1
EndSplineSet
EndChar

StartChar: fraction
Encoding: 278 8260 200
Width: 282
GlyphClass: 1
Flags: W
LayerCount: 2
Fore
SplineSet
392 710 m 1,0,-1
 492 710 l 1,1,-1
 -107 0 l 1,2,-1
 -206 0 l 1,3,-1
 392 710 l 1,0,-1
EndSplineSet
EndChar

StartChar: bar
Encoding: 124 124 201
Width: 313
GlyphClass: 1
Flags: W
LayerCount: 2
Fore
SplineSet
101 771 m 1,0,-1
 213 771 l 1,1,-1
 213 -156 l 1,2,-1
 101 -156 l 1,3,-1
 101 771 l 1,0,-1
EndSplineSet
EndChar

StartChar: brokenbar
Encoding: 166 166 202
Width: 313
GlyphClass: 1
Flags: W
LayerCount: 2
Fore
SplineSet
101 771 m 1,0,-1
 213 771 l 1,1,-1
 213 386 l 1,2,-1
 101 386 l 1,3,-1
 101 771 l 1,0,-1
101 229 m 1,4,-1
 213 229 l 1,5,-1
 213 -156 l 1,6,-1
 101 -156 l 1,7,-1
 101 229 l 1,4,-1
EndSplineSet
EndChar

StartChar: at
Encoding: 64 64 203
Width: 969
GlyphClass: 1
Flags: W
LayerCount: 2
Fore
SplineSet
484 -82 m 0,0,1
 538 -82 538 -82 587 -74 c 128,-1,2
 636 -66 636 -66 677 -53.5 c 128,-1,3
 718 -41 718 -41 749 -27 c 1,4,-1
 772 -100 l 1,5,6
 740 -115 740 -115 694 -128.5 c 128,-1,7
 648 -142 648 -142 594 -150 c 128,-1,8
 540 -158 540 -158 484 -158 c 0,9,10
 386 -158 386 -158 305.5 -132.5 c 128,-1,11
 225 -107 225 -107 167.5 -57.5 c 128,-1,12
 110 -8 110 -8 78.5 65 c 128,-1,13
 47 138 47 138 47 232 c 0,14,15
 47 334 47 334 83.5 416.5 c 128,-1,16
 120 499 120 499 186 557.5 c 128,-1,17
 252 616 252 616 340.5 648 c 128,-1,18
 429 680 429 680 533 680 c 0,19,20
 627 680 627 680 700 656.5 c 128,-1,21
 773 633 773 633 823.5 589.5 c 128,-1,22
 874 546 874 546 900 484.5 c 128,-1,23
 926 423 926 423 926 346 c 0,24,25
 926 275 926 275 908 221 c 128,-1,26
 890 167 890 167 858 130 c 128,-1,27
 826 93 826 93 784.5 74.5 c 128,-1,28
 743 56 743 56 695 56 c 0,29,30
 663 56 663 56 638 63.5 c 128,-1,31
 613 71 613 71 594.5 84 c 128,-1,32
 576 97 576 97 563 114.5 c 128,-1,33
 550 132 550 132 541 153 c 1,34,-1
 532 152 l 1,35,-1
 573 384 l 1,36,-1
 582 382 l 1,37,-1
 625 471 l 1,38,-1
 725 471 l 1,39,-1
 674 185 l 2,40,41
 670 164 670 164 671.5 150 c 128,-1,42
 673 136 673 136 682.5 129.5 c 128,-1,43
 692 123 692 123 711 123 c 0,44,45
 744 123 744 123 771.5 145.5 c 128,-1,46
 799 168 799 168 816.5 217 c 128,-1,47
 834 266 834 266 834 345 c 0,48,49
 834 425 834 425 800 483 c 128,-1,50
 766 541 766 541 699.5 572.5 c 128,-1,51
 633 604 633 604 533 604 c 0,52,53
 447 604 447 604 375 577.5 c 128,-1,54
 303 551 303 551 250 501.5 c 128,-1,55
 197 452 197 452 168 384 c 128,-1,56
 139 316 139 316 139 232 c 0,57,58
 139 157 139 157 163 99 c 128,-1,59
 187 41 187 41 232 0 c 128,-1,60
 277 -41 277 -41 340.5 -61.5 c 128,-1,61
 404 -82 404 -82 484 -82 c 0,0,1
422 50 m 0,62,63
 377 50 377 50 341 68 c 128,-1,64
 305 86 305 86 284.5 123 c 128,-1,65
 264 160 264 160 264 217 c 0,66,67
 264 267 264 267 279 313.5 c 128,-1,68
 294 360 294 360 323 397 c 128,-1,69
 352 434 352 434 392.5 455.5 c 128,-1,70
 433 477 433 477 483 477 c 0,71,72
 525 477 525 477 551 461 c 128,-1,73
 577 445 577 445 592 413 c 128,-1,74
 607 381 607 381 616 332 c 1,75,-1
 587 287 l 1,76,77
 579 331 579 331 569 358 c 128,-1,78
 559 385 559 385 544 397.5 c 128,-1,79
 529 410 529 410 507 410 c 0,80,81
 481 410 481 410 461.5 393 c 128,-1,82
 442 376 442 376 429 347 c 128,-1,83
 416 318 416 318 409.5 280.5 c 128,-1,84
 403 243 403 243 403 202 c 0,85,86
 403 171 403 171 408 152 c 128,-1,87
 413 133 413 133 424 124.5 c 128,-1,88
 435 116 435 116 454 116 c 0,89,90
 475 116 475 116 493 130.5 c 128,-1,91
 511 145 511 145 528.5 171.5 c 128,-1,92
 546 198 546 198 565 233 c 1,93,-1
 596 201 l 1,94,95
 567 150 567 150 543 116.5 c 128,-1,96
 519 83 519 83 491.5 66.5 c 128,-1,97
 464 50 464 50 422 50 c 0,62,63
EndSplineSet
EndChar

StartChar: ampersand
Encoding: 38 38 204
Width: 807
GlyphClass: 1
Flags: W
LayerCount: 2
Fore
SplineSet
697 298 m 0,0,1
 691 267 691 267 673 226.5 c 128,-1,2
 655 186 655 186 625 144.5 c 128,-1,3
 595 103 595 103 551.5 68 c 128,-1,4
 508 33 508 33 451 11.5 c 128,-1,5
 394 -10 394 -10 323 -10 c 0,6,7
 237 -10 237 -10 174 14 c 128,-1,8
 111 38 111 38 77 86 c 128,-1,9
 43 134 43 134 43 207 c 0,10,11
 43 255 43 255 60.5 291 c 128,-1,12
 78 327 78 327 110.5 352.5 c 128,-1,13
 143 378 143 378 186.5 395 c 128,-1,14
 230 412 230 412 281 423 c 1,15,-1
 305 387 l 1,16,17
 275 373 275 373 255 353 c 128,-1,18
 235 333 235 333 224.5 301 c 128,-1,19
 214 269 214 269 214 222 c 0,20,21
 214 173 214 173 231 139.5 c 128,-1,22
 248 106 248 106 281.5 89.5 c 128,-1,23
 315 73 315 73 365 73 c 0,24,25
 407 73 407 73 445.5 88.5 c 128,-1,26
 484 104 484 104 516.5 130.5 c 128,-1,27
 549 157 549 157 573 190 c 128,-1,28
 597 223 597 223 610.5 258.5 c 128,-1,29
 624 294 624 294 624 327 c 0,30,31
 624 331 624 331 614.5 333 c 128,-1,32
 605 335 605 335 592 336 c 128,-1,33
 579 337 579 337 566 337 c 2,34,-1
 559 337 l 1,35,-1
 559 409 l 1,36,-1
 774 409 l 1,37,-1
 774 337 l 1,38,-1
 763 337 l 2,39,40
 744 337 744 337 730 334 c 128,-1,41
 716 331 716 331 708.5 323 c 128,-1,42
 701 315 701 315 697 298 c 0,0,1
779 0 m 1,43,-1
 584 0 l 1,44,45
 519 57 519 57 459.5 113.5 c 128,-1,46
 400 170 400 170 350.5 225 c 128,-1,47
 301 280 301 280 264 334 c 128,-1,48
 227 388 227 388 207 439 c 128,-1,49
 187 490 187 490 187 538 c 0,50,51
 187 598 187 598 215.5 638 c 128,-1,52
 244 678 244 678 295 698.5 c 128,-1,53
 346 719 346 719 413 719 c 0,54,55
 511 719 511 719 560.5 680.5 c 128,-1,56
 610 642 610 642 610 577 c 0,57,58
 610 536 610 536 591 505.5 c 128,-1,59
 572 475 572 475 537 452.5 c 128,-1,60
 502 430 502 430 455.5 413 c 128,-1,61
 409 396 409 396 354 382 c 1,62,-1
 329 436 l 1,63,64
 370 449 370 449 398.5 461.5 c 128,-1,65
 427 474 427 474 444.5 488.5 c 128,-1,66
 462 503 462 503 470 522.5 c 128,-1,67
 478 542 478 542 478 569 c 0,68,69
 478 607 478 607 464 623.5 c 128,-1,70
 450 640 450 640 418 640 c 0,71,72
 394 640 394 640 378 631.5 c 128,-1,73
 362 623 362 623 354 603 c 128,-1,74
 346 583 346 583 346 548 c 0,75,76
 346 512 346 512 359 475 c 128,-1,77
 372 438 372 438 399 398.5 c 128,-1,78
 426 359 426 359 466 315 c 128,-1,79
 506 271 506 271 560 220.5 c 128,-1,80
 614 170 614 170 681 110 c 0,81,82
 696 98 696 98 707 90.5 c 128,-1,83
 718 83 718 83 729.5 79.5 c 128,-1,84
 741 76 741 76 756 76 c 2,85,-1
 779 76 l 1,86,-1
 779 0 l 1,43,-1
EndSplineSet
EndChar

StartChar: section
Encoding: 167 167 205
Width: 650
GlyphClass: 1
Flags: W
LayerCount: 2
Fore
SplineSet
291 408 m 1,0,-1
 307 374 l 1,1,2
 266 370 266 370 236.5 360 c 128,-1,3
 207 350 207 350 191 333 c 128,-1,4
 175 316 175 316 175 289 c 0,5,6
 175 264 175 264 188.5 247 c 128,-1,7
 202 230 202 230 225.5 218 c 128,-1,8
 249 206 249 206 280 195 c 128,-1,9
 311 184 311 184 346 171 c 0,10,11
 384 157 384 157 420 138 c 128,-1,12
 456 119 456 119 484 94.5 c 128,-1,13
 512 70 512 70 528.5 37 c 128,-1,14
 545 4 545 4 545 -39 c 0,15,16
 545 -101 545 -101 515 -145 c 128,-1,17
 485 -189 485 -189 430.5 -212.5 c 128,-1,18
 376 -236 376 -236 301 -236 c 0,19,20
 243 -236 243 -236 196 -226 c 128,-1,21
 149 -216 149 -216 115.5 -200 c 128,-1,22
 82 -184 82 -184 59 -165 c 1,23,-1
 59 -34 l 1,24,-1
 201 -34 l 1,25,-1
 201 -160 l 1,26,27
 189 -152 189 -152 178.5 -140.5 c 128,-1,28
 168 -129 168 -129 161 -117.5 c 128,-1,29
 154 -106 154 -106 151.5 -98 c 128,-1,30
 149 -90 149 -90 152 -89 c 0,31,32
 170 -111 170 -111 191 -125.5 c 128,-1,33
 212 -140 212 -140 238 -147.5 c 128,-1,34
 264 -155 264 -155 299 -155 c 256,35,36
 334 -155 334 -155 356.5 -146.5 c 128,-1,37
 379 -138 379 -138 390 -120.5 c 128,-1,38
 401 -103 401 -103 401 -75 c 0,39,40
 401 -49 401 -49 387.5 -31 c 128,-1,41
 374 -13 374 -13 350.5 0 c 128,-1,42
 327 13 327 13 296.5 24 c 128,-1,43
 266 35 266 35 232 48 c 0,44,45
 194 63 194 63 157.5 80 c 128,-1,46
 121 97 121 97 93 119 c 128,-1,47
 65 141 65 141 48 172 c 128,-1,48
 31 203 31 203 31 246 c 0,49,50
 31 288 31 288 49 319.5 c 128,-1,51
 67 351 67 351 100.5 371 c 128,-1,52
 134 391 134 391 182.5 400 c 128,-1,53
 231 409 231 409 291 408 c 1,0,-1
377 83 m 1,54,-1
 365 132 l 1,55,56
 399 140 399 140 422 149.5 c 128,-1,57
 445 159 445 159 457.5 174.5 c 128,-1,58
 470 190 470 190 470 213 c 0,59,60
 470 235 470 235 456 251 c 128,-1,61
 442 267 442 267 417 280 c 128,-1,62
 392 293 392 293 360.5 305.5 c 128,-1,63
 329 318 329 318 295 331 c 0,64,65
 259 346 259 346 225 365 c 128,-1,66
 191 384 191 384 163 408.5 c 128,-1,67
 135 433 135 433 118.5 466.5 c 128,-1,68
 102 500 102 500 102 544 c 0,69,70
 102 601 102 601 131.5 640.5 c 128,-1,71
 161 680 161 680 216.5 700 c 128,-1,72
 272 720 272 720 349 720 c 0,73,74
 401 720 401 720 441.5 711.5 c 128,-1,75
 482 703 482 703 511 689.5 c 128,-1,76
 540 676 540 676 554 661 c 1,77,-1
 554 537 l 1,78,-1
 420 537 l 1,79,-1
 420 647 l 1,80,81
 430 647 430 647 440 639.5 c 128,-1,82
 450 632 450 632 458 622 c 128,-1,83
 466 612 466 612 469 602 c 128,-1,84
 472 592 472 592 468 587 c 1,85,86
 455 602 455 602 439 614 c 128,-1,87
 423 626 423 626 400.5 633 c 128,-1,88
 378 640 378 640 348 640 c 0,89,90
 311 640 311 640 288.5 632 c 128,-1,91
 266 624 266 624 256 608.5 c 128,-1,92
 246 593 246 593 246 571 c 0,93,94
 246 547 246 547 259.5 530.5 c 128,-1,95
 273 514 273 514 296 501.5 c 128,-1,96
 319 489 319 489 348.5 478 c 128,-1,97
 378 467 378 467 409 454 c 0,98,99
 448 438 448 438 485 421 c 128,-1,100
 522 404 522 404 551 383 c 128,-1,101
 580 362 580 362 597 333 c 128,-1,102
 614 304 614 304 614 263 c 0,103,104
 614 208 614 208 588 171 c 128,-1,105
 562 134 562 134 509 113 c 128,-1,106
 456 92 456 92 377 83 c 1,54,-1
EndSplineSet
EndChar

StartChar: paragraph
Encoding: 182 182 206
Width: 655
GlyphClass: 1
Flags: W
LayerCount: 2
Fore
SplineSet
362 0 m 1,0,-1
 362 710 l 1,1,-1
 248 710 l 2,2,3
 181 710 181 710 132 686 c 128,-1,4
 83 662 83 662 57.5 617 c 128,-1,5
 32 572 32 572 32 512 c 0,6,7
 32 450 32 450 58.5 403 c 128,-1,8
 85 356 85 356 135 329.5 c 128,-1,9
 185 303 185 303 253 303 c 2,10,-1
 259 303 l 1,11,-1
 259 0 l 1,12,-1
 362 0 l 1,0,-1
475 710 m 1,13,-1
 299 710 l 1,14,-1
 299 636 l 1,15,-1
 475 636 l 1,16,-1
 475 710 l 1,13,-1
551 0 m 1,17,-1
 551 599 l 2,18,19
 551 614 551 614 559 621.5 c 128,-1,20
 567 629 567 629 581 632 c 128,-1,21
 595 635 595 635 613 635 c 2,22,-1
 623 635 l 1,23,-1
 623 710 l 1,24,-1
 447 710 l 1,25,-1
 447 0 l 1,26,-1
 551 0 l 1,17,-1
EndSplineSet
EndChar

StartChar: bullet
Encoding: 149 8226 208
Width: 455
GlyphClass: 1
Flags: W
LayerCount: 2
Fore
SplineSet
64 342 m 256,0,1
 64 388 64 388 85 422.5 c 128,-1,2
 106 457 106 457 143 476.5 c 128,-1,3
 180 496 180 496 228 496 c 0,4,5
 275 496 275 496 312 476.5 c 128,-1,6
 349 457 349 457 370 422.5 c 128,-1,7
 391 388 391 388 391 341 c 0,8,9
 391 296 391 296 370 261 c 128,-1,10
 349 226 349 226 312 206 c 128,-1,11
 275 186 275 186 228 186 c 0,12,13
 180 186 180 186 143 206 c 128,-1,14
 106 226 106 226 85 261 c 128,-1,15
 64 296 64 296 64 342 c 256,0,1
EndSplineSet
EndChar

StartChar: plus
Encoding: 43 43 209
Width: 560
GlyphClass: 1
Flags: W
LayerCount: 2
Fore
SplineSet
220 571 m 1,0,-1
 339 571 l 1,1,-1
 339 105 l 1,2,-1
 220 105 l 1,3,-1
 220 571 l 1,0,-1
506 394 m 1,4,-1
 506 282 l 1,5,-1
 54 282 l 1,6,-1
 54 394 l 1,7,-1
 506 394 l 1,4,-1
EndSplineSet
Substitution2: "'subs' Subscript lookup 53 subtable" plus.sub
Substitution2: "'sups' Superscript lookup 52 subtable" plus.sup
EndChar

StartChar: minus
Encoding: 279 8722 210
Width: 560
GlyphClass: 1
Flags: W
LayerCount: 2
Fore
SplineSet
506 394 m 1,0,-1
 506 282 l 1,1,-1
 54 282 l 1,2,-1
 54 394 l 1,3,-1
 506 394 l 1,0,-1
EndSplineSet
Substitution2: "'subs' Subscript lookup 53 subtable" minus.sub
Substitution2: "'sups' Superscript lookup 52 subtable" minus.sup
EndChar

StartChar: divide
Encoding: 247 247 212
Width: 560
GlyphClass: 1
Flags: W
LayerCount: 2
Fore
SplineSet
379 569 m 0,0,1
 379 528 379 528 352 503.5 c 128,-1,2
 325 479 325 479 280 479 c 256,3,4
 235 479 235 479 208 503.5 c 128,-1,5
 181 528 181 528 181 569 c 0,6,7
 181 612 181 612 208 636 c 128,-1,8
 235 660 235 660 280 660 c 256,9,10
 325 660 325 660 352 636 c 128,-1,11
 379 612 379 612 379 569 c 0,0,1
379 129 m 256,12,13
 379 87 379 87 352 63 c 128,-1,14
 325 39 325 39 280 39 c 256,15,16
 235 39 235 39 208 63 c 128,-1,17
 181 87 181 87 181 129 c 0,18,19
 181 172 181 172 208 196 c 128,-1,20
 235 220 235 220 280 220 c 256,21,22
 325 220 325 220 352 195.5 c 128,-1,23
 379 171 379 171 379 129 c 256,12,13
506 405 m 1,24,-1
 506 293 l 1,25,-1
 54 293 l 1,26,-1
 54 405 l 1,27,-1
 506 405 l 1,24,-1
EndSplineSet
EndChar

StartChar: multiply
Encoding: 215 215 213
Width: 560
GlyphClass: 1
Flags: W
LayerCount: 2
Fore
SplineSet
66 203 m 1,0,-1
 415 554 l 1,1,-1
 490 479 l 1,2,-1
 141 128 l 1,3,-1
 66 203 l 1,0,-1
66 479 m 1,4,-1
 141 554 l 1,5,-1
 490 203 l 1,6,-1
 415 128 l 1,7,-1
 66 479 l 1,4,-1
EndSplineSet
EndChar

StartChar: less
Encoding: 60 60 215
Width: 560
GlyphClass: 1
Flags: W
LayerCount: 2
Fore
SplineSet
476 584 m 1,0,-1
 476 465 l 1,1,-1
 128 306 l 1,2,-1
 84 330 l 1,3,-1
 84 397 l 1,4,-1
 476 584 l 1,0,-1
476 223 m 1,5,-1
 476 96 l 1,6,-1
 84 283 l 1,7,-1
 84 355 l 1,8,-1
 129 382 l 1,9,-1
 476 223 l 1,5,-1
EndSplineSet
EndChar

StartChar: greater
Encoding: 62 62 216
Width: 560
GlyphClass: 1
Flags: W
LayerCount: 2
Fore
SplineSet
90 96 m 1,0,-1
 90 215 l 1,1,-1
 438 374 l 1,2,-1
 481 350 l 1,3,-1
 481 283 l 1,4,-1
 90 96 l 1,0,-1
90 457 m 1,5,-1
 90 584 l 1,6,-1
 481 398 l 1,7,-1
 481 325 l 1,8,-1
 437 299 l 1,9,-1
 90 457 l 1,5,-1
EndSplineSet
EndChar

StartChar: logicalnot
Encoding: 172 172 217
Width: 560
GlyphClass: 1
Flags: W
LayerCount: 2
Fore
SplineSet
383 366 m 1,0,-1
 452 308 l 1,1,-1
 62 308 l 1,2,-1
 62 420 l 1,3,-1
 498 420 l 1,4,-1
 498 147 l 1,5,-1
 383 147 l 1,6,-1
 383 366 l 1,0,-1
EndSplineSet
EndChar

StartChar: infinity
Encoding: 280 8734 219
Width: 792
GlyphClass: 1
Flags: W
LayerCount: 2
Fore
SplineSet
222 138 m 0,0,1
 271 138 271 138 307 165.5 c 128,-1,2
 343 193 343 193 366.5 239 c 128,-1,3
 390 285 390 285 401 338 c 1,4,-1
 353 339 l 1,5,6
 342 312 342 312 326 289 c 128,-1,7
 310 266 310 266 286.5 253 c 128,-1,8
 263 240 263 240 228 240 c 0,9,10
 195 240 195 240 172 252.5 c 128,-1,11
 149 265 149 265 137 289.5 c 128,-1,12
 125 314 125 314 125 349 c 0,13,14
 125 402 125 402 148.5 432.5 c 128,-1,15
 172 463 172 463 215 463 c 0,16,17
 248 463 248 463 269 445.5 c 128,-1,18
 290 428 290 428 305.5 397.5 c 128,-1,19
 321 367 321 367 337 326 c 0,20,21
 352 290 352 290 370 256 c 128,-1,22
 388 222 388 222 412.5 195.5 c 128,-1,23
 437 169 437 169 470.5 153.5 c 128,-1,24
 504 138 504 138 548 138 c 0,25,26
 606 138 606 138 649 166 c 128,-1,27
 692 194 692 194 716.5 243 c 128,-1,28
 741 292 741 292 741 354 c 0,29,30
 741 417 741 417 720 464.5 c 128,-1,31
 699 512 699 512 661 539 c 128,-1,32
 623 566 623 566 571 566 c 0,33,34
 522 566 522 566 486 538 c 128,-1,35
 450 510 450 510 426.5 464.5 c 128,-1,36
 403 419 403 419 390 365 c 1,37,-1
 439 364 l 1,38,39
 450 392 450 392 466.5 414.5 c 128,-1,40
 483 437 483 437 506.5 450.5 c 128,-1,41
 530 464 530 464 565 464 c 0,42,43
 599 464 599 464 621.5 451 c 128,-1,44
 644 438 644 438 655.5 414 c 128,-1,45
 667 390 667 390 667 356 c 0,46,47
 667 321 667 321 657 295 c 128,-1,48
 647 269 647 269 627.5 255 c 128,-1,49
 608 241 608 241 580 241 c 0,50,51
 547 241 547 241 526.5 258.5 c 128,-1,52
 506 276 506 276 490 308 c 128,-1,53
 474 340 474 340 455 382 c 0,54,55
 440 415 440 415 422.5 447.5 c 128,-1,56
 405 480 405 480 381 507 c 128,-1,57
 357 534 357 534 324 550 c 128,-1,58
 291 566 291 566 245 566 c 0,59,60
 189 566 189 566 145 538 c 128,-1,61
 101 510 101 510 76 461 c 128,-1,62
 51 412 51 412 51 350 c 256,63,64
 51 288 51 288 72.5 240 c 128,-1,65
 94 192 94 192 132 165 c 128,-1,66
 170 138 170 138 222 138 c 0,0,1
EndSplineSet
EndChar

StartChar: dollar
Encoding: 36 36 220
Width: 560
GlyphClass: 1
Flags: W
LayerCount: 2
Fore
SplineSet
235 796 m 1,0,-1
 331 796 l 1,1,-1
 331 663 l 1,2,-1
 315 646 l 1,3,-1
 315 67 l 1,4,-1
 331 47 l 1,5,-1
 331 -126 l 1,6,-1
 235 -126 l 1,7,-1
 235 47 l 1,8,-1
 251 65 l 1,9,-1
 251 642 l 1,10,-1
 235 658 l 1,11,-1
 235 796 l 1,0,-1
281 84 m 0,12,13
 329 84 329 84 359.5 94 c 128,-1,14
 390 104 390 104 404.5 125.5 c 128,-1,15
 419 147 419 147 419 182 c 0,16,17
 419 210 419 210 407 227.5 c 128,-1,18
 395 245 395 245 372.5 256.5 c 128,-1,19
 350 268 350 268 319.5 276.5 c 128,-1,20
 289 285 289 285 253 294 c 0,21,22
 208 306 208 306 170 320.5 c 128,-1,23
 132 335 132 335 103.5 357.5 c 128,-1,24
 75 380 75 380 59.5 415.5 c 128,-1,25
 44 451 44 451 44 503 c 0,26,27
 44 569 44 569 72.5 612.5 c 128,-1,28
 101 656 101 656 156 677.5 c 128,-1,29
 211 699 211 699 289 699 c 0,30,31
 342 699 342 699 386.5 691 c 128,-1,32
 431 683 431 683 463 671 c 128,-1,33
 495 659 495 659 511 648 c 1,34,-1
 511 513 l 1,35,-1
 398 513 l 1,36,-1
 398 626 l 1,37,38
 410 627 410 627 419.5 622 c 128,-1,39
 429 617 429 617 435.5 609 c 128,-1,40
 442 601 442 601 445 594 c 128,-1,41
 448 587 448 587 446 583 c 1,42,43
 428 598 428 598 403.5 607 c 128,-1,44
 379 616 379 616 350.5 620.5 c 128,-1,45
 322 625 322 625 290 625 c 0,46,47
 242 625 242 625 212 616 c 128,-1,48
 182 607 182 607 168.5 588.5 c 128,-1,49
 155 570 155 570 155 541 c 0,50,51
 155 514 155 514 167 498.5 c 128,-1,52
 179 483 179 483 200 473 c 128,-1,53
 221 463 221 463 247.5 456.5 c 128,-1,54
 274 450 274 450 303 443 c 0,55,56
 355 430 355 430 397.5 414 c 128,-1,57
 440 398 440 398 471 375 c 128,-1,58
 502 352 502 352 519.5 316.5 c 128,-1,59
 537 281 537 281 537 228 c 0,60,61
 537 156 537 156 507.5 107 c 128,-1,62
 478 58 478 58 422 33.5 c 128,-1,63
 366 9 366 9 284 9 c 0,64,65
 223 9 223 9 172.5 19 c 128,-1,66
 122 29 122 29 85.5 43.5 c 128,-1,67
 49 58 49 58 28 71 c 1,68,-1
 28 218 l 1,69,-1
 150 218 l 1,70,-1
 150 93 l 1,71,72
 138 93 138 93 126.5 98.5 c 128,-1,73
 115 104 115 104 106 113 c 128,-1,74
 97 122 97 122 92.5 130.5 c 128,-1,75
 88 139 88 139 89 142 c 1,76,77
 107 128 107 128 134 114.5 c 128,-1,78
 161 101 161 101 198 92.5 c 128,-1,79
 235 84 235 84 281 84 c 0,12,13
EndSplineSet
Substitution2: "'pnum' Proportional Numbers lookup 57 subtable" dollar.proportional
EndChar

StartChar: cent
Encoding: 162 162 221
Width: 560
GlyphClass: 1
Flags: W
LayerCount: 2
Fore
SplineSet
333 66 m 0,0,1
 362 66 362 66 384 74.5 c 128,-1,2
 406 83 406 83 422.5 97.5 c 128,-1,3
 439 112 439 112 451.5 131 c 128,-1,4
 464 150 464 150 475 170 c 1,5,-1
 543 130 l 1,6,7
 524 85 524 85 493 53 c 128,-1,8
 462 21 462 21 418.5 4.5 c 128,-1,9
 375 -12 375 -12 317 -12 c 0,10,11
 231 -12 231 -12 166 20 c 128,-1,12
 101 52 101 52 64.5 115 c 128,-1,13
 28 178 28 178 28 268 c 0,14,15
 28 359 28 359 63 422 c 128,-1,16
 98 485 98 485 163 517.5 c 128,-1,17
 228 550 228 550 317 550 c 0,18,19
 373 550 373 550 417.5 541.5 c 128,-1,20
 462 533 462 533 491.5 522 c 128,-1,21
 521 511 521 511 534 503 c 1,22,-1
 534 339 l 1,23,-1
 420 339 l 1,24,-1
 420 487 l 1,25,26
 438 484 438 484 447 476.5 c 128,-1,27
 456 469 456 469 458 460.5 c 128,-1,28
 460 452 460 452 457.5 445.5 c 128,-1,29
 455 439 455 439 450 438 c 0,30,31
 438 448 438 448 421.5 456 c 128,-1,32
 405 464 405 464 382 469 c 128,-1,33
 359 474 359 474 327 474 c 0,34,35
 288 474 288 474 260 462.5 c 128,-1,36
 232 451 232 451 215 426.5 c 128,-1,37
 198 402 198 402 190.5 363 c 128,-1,38
 183 324 183 324 183 268 c 0,39,40
 183 211 183 211 192 172.5 c 128,-1,41
 201 134 201 134 220 110.5 c 128,-1,42
 239 87 239 87 267 76.5 c 128,-1,43
 295 66 295 66 333 66 c 0,0,1
269 663 m 1,44,-1
 364 663 l 1,45,-1
 364 519 l 1,46,-1
 347 501 l 1,47,-1
 347 37 l 1,48,-1
 364 23 l 1,49,-1
 364 -146 l 1,50,-1
 269 -146 l 1,51,-1
 269 20 l 1,52,-1
 287 37 l 1,53,-1
 287 497 l 1,54,-1
 269 511 l 1,55,-1
 269 663 l 1,44,-1
EndSplineSet
Substitution2: "'pnum' Proportional Numbers lookup 57 subtable" cent.proportional
EndChar

StartChar: sterling
Encoding: 163 163 222
Width: 560
GlyphClass: 1
Flags: W
LayerCount: 2
Fore
SplineSet
25 -12 m 1,0,-1
 25 99 l 1,1,2
 71 114 71 114 100 134 c 128,-1,3
 129 154 129 154 143 181.5 c 128,-1,4
 157 209 157 209 157 244 c 0,5,6
 157 283 157 283 147.5 313 c 128,-1,7
 138 343 138 343 124.5 369 c 128,-1,8
 111 395 111 395 97 420.5 c 128,-1,9
 83 446 83 446 74 474 c 128,-1,10
 65 502 65 502 65 537 c 0,11,12
 65 597 65 597 95.5 639.5 c 128,-1,13
 126 682 126 682 183.5 704.5 c 128,-1,14
 241 727 241 727 321 727 c 0,15,16
 370 727 370 727 408.5 719.5 c 128,-1,17
 447 712 447 712 474 701 c 128,-1,18
 501 690 501 690 514 680 c 1,19,-1
 514 521 l 1,20,-1
 380 521 l 1,21,-1
 380 658 l 1,22,23
 393 657 393 657 403.5 650.5 c 128,-1,24
 414 644 414 644 420.5 634.5 c 128,-1,25
 427 625 427 625 429.5 616 c 128,-1,26
 432 607 432 607 430 601 c 1,27,28
 413 620 413 620 388.5 631.5 c 128,-1,29
 364 643 364 643 329 643 c 0,30,31
 298 643 298 643 278 632.5 c 128,-1,32
 258 622 258 622 248 600 c 128,-1,33
 238 578 238 578 238 542 c 0,34,35
 238 505 238 505 246.5 474 c 128,-1,36
 255 443 255 443 265.5 412 c 128,-1,37
 276 381 276 381 284.5 345 c 128,-1,38
 293 309 293 309 293 261 c 0,39,40
 293 215 293 215 275.5 172.5 c 128,-1,41
 258 130 258 130 224 93.5 c 128,-1,42
 190 57 190 57 140 30 c 128,-1,43
 90 3 90 3 25 -12 c 1,0,-1
386 -10 m 0,44,45
 354 -10 354 -10 330.5 0 c 128,-1,46
 307 10 307 10 286.5 29.5 c 128,-1,47
 266 49 266 49 243.5 78 c 128,-1,48
 221 107 221 107 191 144 c 0,49,50
 187 149 187 149 189.5 160 c 128,-1,51
 192 171 192 171 199.5 183 c 128,-1,52
 207 195 207 195 217 204 c 128,-1,53
 227 213 227 213 239 216 c 1,54,55
 266 186 266 186 287.5 166 c 128,-1,56
 309 146 309 146 331.5 136.5 c 128,-1,57
 354 127 354 127 383 127 c 0,58,59
 409 127 409 127 425 136.5 c 128,-1,60
 441 146 441 146 452 167.5 c 128,-1,61
 463 189 463 189 472 225 c 1,62,-1
 554 201 l 1,63,64
 544 145 544 145 523.5 97 c 128,-1,65
 503 49 503 49 470 19.5 c 128,-1,66
 437 -10 437 -10 386 -10 c 0,44,45
28 395 m 1,67,-1
 438 395 l 1,68,-1
 438 307 l 1,69,-1
 28 307 l 1,70,-1
 28 395 l 1,67,-1
EndSplineSet
Substitution2: "'ss05' Style Set 5 lookup 65 subtable" sterling.alt
Substitution2: "'pnum' Proportional Numbers lookup 57 subtable" sterling.proportional
EndChar

StartChar: currency
Encoding: 164 164 223
Width: 560
GlyphClass: 1
Flags: W
LayerCount: 2
Fore
SplineSet
377 373 m 256,0,1
 377 407 377 407 365.5 430.5 c 128,-1,2
 354 454 354 454 332.5 466 c 128,-1,3
 311 478 311 478 280 478 c 0,4,5
 250 478 250 478 228 466 c 128,-1,6
 206 454 206 454 194.5 430.5 c 128,-1,7
 183 407 183 407 183 373 c 256,8,9
 183 339 183 339 194.5 315.5 c 128,-1,10
 206 292 206 292 228 280 c 128,-1,11
 250 268 250 268 280 268 c 0,12,13
 311 268 311 268 332.5 280 c 128,-1,14
 354 292 354 292 365.5 315.5 c 128,-1,15
 377 339 377 339 377 373 c 256,0,1
64 373 m 0,16,17
 64 418 64 418 81.5 457 c 128,-1,18
 99 496 99 496 129.5 525.5 c 128,-1,19
 160 555 160 555 199 571.5 c 128,-1,20
 238 588 238 588 280 588 c 0,21,22
 323 588 323 588 361.5 571.5 c 128,-1,23
 400 555 400 555 430.5 525.5 c 128,-1,24
 461 496 461 496 478.5 457 c 128,-1,25
 496 418 496 418 496 373 c 0,26,27
 496 329 496 329 478.5 290 c 128,-1,28
 461 251 461 251 430.5 221.5 c 128,-1,29
 400 192 400 192 361.5 175.5 c 128,-1,30
 323 159 323 159 280 159 c 0,31,32
 238 159 238 159 199 175.5 c 128,-1,33
 160 192 160 192 129.5 221.5 c 128,-1,34
 99 251 99 251 81.5 290 c 128,-1,35
 64 329 64 329 64 373 c 0,16,17
10 573 m 1,36,-1
 87 649 l 1,37,-1
 204 532 l 1,38,-1
 120 463 l 1,39,-1
 10 573 l 1,36,-1
550 573 m 1,40,-1
 440 463 l 1,41,-1
 356 532 l 1,42,-1
 473 649 l 1,43,-1
 550 573 l 1,40,-1
10 173 m 1,44,-1
 120 283 l 1,45,-1
 204 214 l 1,46,-1
 87 97 l 1,47,-1
 10 173 l 1,44,-1
550 173 m 1,48,-1
 473 97 l 1,49,-1
 356 214 l 1,50,-1
 440 283 l 1,51,-1
 550 173 l 1,48,-1
EndSplineSet
EndChar

StartChar: yen
Encoding: 165 165 224
Width: 560
GlyphClass: 1
Flags: W
LayerCount: 2
Fore
SplineSet
50 381 m 1,0,-1
 512 381 l 1,1,-1
 512 305 l 1,2,-1
 50 305 l 1,3,-1
 50 381 l 1,0,-1
50 233 m 1,4,-1
 512 233 l 1,5,-1
 512 157 l 1,6,-1
 50 157 l 1,7,-1
 50 233 l 1,4,-1
195 375 m 1,8,-1
 367 375 l 1,9,-1
 367 112 l 2,10,11
 367 89 367 89 385 82 c 128,-1,12
 403 75 403 75 430 75 c 2,13,-1
 449 75 l 1,14,-1
 449 0 l 1,15,-1
 113 0 l 1,16,-1
 113 75 l 1,17,-1
 132 75 l 2,18,19
 159 75 159 75 177 82.5 c 128,-1,20
 195 90 195 90 195 112 c 2,21,-1
 195 375 l 1,8,-1
352 329 m 1,22,-1
 209 330 l 1,23,-1
 63 604 l 2,24,25
 54 624 54 624 42.5 629.5 c 128,-1,26
 31 635 31 635 13 635 c 2,27,-1
 8 635 l 1,28,-1
 8 710 l 1,29,-1
 281 710 l 1,30,-1
 281 635 l 1,31,-1
 271 635 l 2,32,33
 259 635 259 635 249 633.5 c 128,-1,34
 239 632 239 632 232.5 630 c 128,-1,35
 226 628 226 628 226 624 c 2,36,-1
 347 382 l 1,37,-1
 301 375 l 1,38,-1
 421 614 l 2,39,40
 421 621 421 621 414 625.5 c 128,-1,41
 407 630 407 630 396 632.5 c 128,-1,42
 385 635 385 635 373 635 c 2,43,-1
 367 635 l 1,44,-1
 367 710 l 1,45,-1
 552 710 l 1,46,-1
 552 635 l 1,47,-1
 547 635 l 2,48,49
 529 635 529 635 516 625.5 c 128,-1,50
 503 616 503 616 490 591 c 2,51,-1
 352 329 l 1,22,-1
EndSplineSet
Substitution2: "'pnum' Proportional Numbers lookup 57 subtable" yen.proportional
EndChar

StartChar: Euro
Encoding: 128 8364 225
Width: 560
GlyphClass: 1
Flags: W
LayerCount: 2
Fore
SplineSet
15 306 m 1,0,-1
 392 306 l 1,1,-1
 392 228 l 1,2,-1
 15 228 l 1,3,-1
 15 306 l 1,0,-1
15 467 m 1,4,-1
 429 467 l 1,5,-1
 429 389 l 1,6,-1
 15 389 l 1,7,-1
 15 467 l 1,4,-1
338 -17 m 0,8,9
 255 -17 255 -17 196.5 21.5 c 128,-1,10
 138 60 138 60 107.5 142.5 c 128,-1,11
 77 225 77 225 77 355 c 0,12,13
 77 483 77 483 110 565.5 c 128,-1,14
 143 648 143 648 208 688 c 128,-1,15
 273 728 273 728 365 728 c 0,16,17
 411 728 411 728 447 721 c 128,-1,18
 483 714 483 714 508 705 c 128,-1,19
 533 696 533 696 543 690 c 1,20,-1
 543 548 l 1,21,-1
 408 548 l 1,22,-1
 408 659 l 1,23,24
 422 657 422 657 432 651 c 128,-1,25
 442 645 442 645 447.5 638 c 128,-1,26
 453 631 453 631 453 624.5 c 128,-1,27
 453 618 453 618 448 615 c 1,28,29
 435 627 435 627 414 635.5 c 128,-1,30
 393 644 393 644 365 644 c 0,31,32
 336 644 336 644 315 629.5 c 128,-1,33
 294 615 294 615 280.5 581.5 c 128,-1,34
 267 548 267 548 260.5 492.5 c 128,-1,35
 254 437 254 437 254 355 c 0,36,37
 254 274 254 274 260.5 218.5 c 128,-1,38
 267 163 267 163 280 131 c 128,-1,39
 293 99 293 99 313.5 84.5 c 128,-1,40
 334 70 334 70 362 70 c 0,41,42
 394 70 394 70 416.5 87.5 c 128,-1,43
 439 105 439 105 454 132.5 c 128,-1,44
 469 160 469 160 479 192 c 1,45,-1
 558 158 l 1,46,47
 542 106 542 106 516 66.5 c 128,-1,48
 490 27 490 27 447 5 c 128,-1,49
 404 -17 404 -17 338 -17 c 0,8,9
EndSplineSet
Substitution2: "'pnum' Proportional Numbers lookup 57 subtable" Euro.proportional
EndChar

StartChar: florin
Encoding: 131 402 226
Width: 560
GlyphClass: 1
Flags: W
LayerCount: 2
Fore
SplineSet
108 537 m 1,0,-1
 509 537 l 1,1,-1
 498 460 l 1,2,-1
 97 460 l 1,3,-1
 108 537 l 1,0,-1
277 -4 m 2,4,5
 264 -93 264 -93 232 -145 c 128,-1,6
 200 -197 200 -197 151 -220 c 128,-1,7
 102 -243 102 -243 37 -243 c 0,8,9
 6 -243 6 -243 -18.5 -238 c 128,-1,10
 -43 -233 -43 -233 -60 -228 c 1,11,-1
 -51 -143 l 1,12,13
 -36 -148 -36 -148 -17 -152.5 c 128,-1,14
 2 -157 2 -157 20 -157 c 0,15,16
 40 -157 40 -157 55.5 -152 c 128,-1,17
 71 -147 71 -147 82.5 -131.5 c 128,-1,18
 94 -116 94 -116 103 -86.5 c 128,-1,19
 112 -57 112 -57 120 -9 c 2,20,-1
 216 603 l 2,21,22
 225 662 225 662 252.5 699 c 128,-1,23
 280 736 280 736 326 753.5 c 128,-1,24
 372 771 372 771 435 771 c 0,25,26
 476 771 476 771 506.5 765.5 c 128,-1,27
 537 760 537 760 556 753 c 1,28,-1
 548 670 l 1,29,30
 532 675 532 675 510 679.5 c 128,-1,31
 488 684 488 684 461 684 c 0,32,33
 435 684 435 684 417 676 c 128,-1,34
 399 668 399 668 388 649 c 128,-1,35
 377 630 377 630 372 597 c 2,36,-1
 277 -4 l 2,4,5
EndSplineSet
Substitution2: "'pnum' Proportional Numbers lookup 57 subtable" florin.proportional
EndChar

StartChar: asciicircum
Encoding: 94 94 227
Width: 535
GlyphClass: 1
Flags: W
LayerCount: 2
Fore
SplineSet
161 332 m 1,0,-1
 32 332 l 1,1,-1
 189 711 l 1,2,-1
 289 711 l 1,3,-1
 284 665 l 1,4,-1
 161 332 l 1,0,-1
368 332 m 1,5,-1
 245 666 l 1,6,-1
 239 711 l 1,7,-1
 345 711 l 1,8,-1
 503 332 l 1,9,-1
 368 332 l 1,5,-1
EndSplineSet
EndChar

StartChar: asciitilde
Encoding: 126 126 228
Width: 546
GlyphClass: 1
Flags: W
LayerCount: 2
Fore
SplineSet
355 241 m 0,0,1
 324 241 324 241 302 251.5 c 128,-1,2
 280 262 280 262 264 278 c 128,-1,3
 248 294 248 294 235 309.5 c 128,-1,4
 222 325 222 325 209 335.5 c 128,-1,5
 196 346 196 346 180 346 c 0,6,7
 161 346 161 346 150 331.5 c 128,-1,8
 139 317 139 317 133 293 c 128,-1,9
 127 269 127 269 121 241 c 1,10,-1
 37 262 l 1,11,12
 47 326 47 326 64 372.5 c 128,-1,13
 81 419 81 419 111.5 445 c 128,-1,14
 142 471 142 471 189 471 c 0,15,16
 220 471 220 471 242 460.5 c 128,-1,17
 264 450 264 450 280 434 c 128,-1,18
 296 418 296 418 309 402.5 c 128,-1,19
 322 387 322 387 335 376.5 c 128,-1,20
 348 366 348 366 365 366 c 0,21,22
 385 366 385 366 396.5 382 c 128,-1,23
 408 398 408 398 415.5 423 c 128,-1,24
 423 448 423 448 429 474 c 1,25,-1
 511 453 l 1,26,27
 503 406 503 406 490.5 367.5 c 128,-1,28
 478 329 478 329 460 300.5 c 128,-1,29
 442 272 442 272 416 256.5 c 128,-1,30
 390 241 390 241 355 241 c 0,0,1
EndSplineSet
EndChar

StartChar: acute
Encoding: 180 180 229
Width: 500
GlyphClass: 4
Flags: W
AnchorPoint: "Anchor-0" 217 525 mark 0
LayerCount: 2
Fore
SplineSet
241 745 m 2,0,1
 251 770 251 770 263.5 788.5 c 128,-1,2
 276 807 276 807 293.5 817.5 c 128,-1,3
 311 828 311 828 336 828 c 0,4,5
 370 828 370 828 390 808.5 c 128,-1,6
 410 789 410 789 410 761 c 0,7,8
 410 742 410 742 401.5 725.5 c 128,-1,9
 393 709 393 709 378 694.5 c 128,-1,10
 363 680 363 680 343 668 c 2,11,-1
 244 601 l 1,12,-1
 194 601 l 1,13,-1
 194 633 l 1,14,-1
 241 745 l 2,0,1
EndSplineSet
EndChar

StartChar: grave
Encoding: 96 96 230
Width: 500
GlyphClass: 4
Flags: W
AnchorPoint: "Anchor-0" 214 528 mark 0
LayerCount: 2
Fore
SplineSet
292 745 m 2,0,-1
 338 633 l 1,1,-1
 338 601 l 1,2,-1
 287 601 l 1,3,-1
 189 667 l 2,4,5
 169 679 169 679 153.5 693.5 c 128,-1,6
 138 708 138 708 130 725 c 128,-1,7
 122 742 122 742 122 760 c 0,8,9
 122 788 122 788 142.5 808 c 128,-1,10
 163 828 163 828 196 828 c 0,11,12
 221 828 221 828 239 818 c 128,-1,13
 257 808 257 808 270 789 c 128,-1,14
 283 770 283 770 292 745 c 2,0,-1
EndSplineSet
EndChar

StartChar: circumflex
Encoding: 136 710 231
Width: 500
GlyphClass: 4
Flags: W
AnchorPoint: "Anchor-0" 245 529 mark 0
LayerCount: 2
Fore
SplineSet
319 796 m 1,0,-1
 194 796 l 1,1,-1
 65 627 l 1,2,-1
 65 598 l 1,3,-1
 127 598 l 1,4,-1
 294 717 l 1,5,-1
 209 716 l 1,6,-1
 377 598 l 1,7,-1
 447 598 l 1,8,-1
 447 627 l 1,9,-1
 319 796 l 1,0,-1
EndSplineSet
EndChar

StartChar: circumflex_acute
Encoding: 281 -1 232
Width: 525
GlyphClass: 1
Flags: W
LayerCount: 2
Fore
SplineSet
461 871 m 2,0,1
 475 911 475 911 496 934.5 c 128,-1,2
 517 958 517 958 554 958 c 0,3,4
 586 958 586 958 606 939.5 c 128,-1,5
 626 921 626 921 626 892 c 0,6,7
 626 874 626 874 618 857.5 c 128,-1,8
 610 841 610 841 596 827 c 128,-1,9
 582 813 582 813 563 800 c 2,10,-1
 469 733 l 1,11,-1
 419 733 l 1,12,-1
 419 764 l 1,13,-1
 461 871 l 2,0,1
314 796 m 1,14,-1
 189 796 l 1,15,-1
 60 627 l 1,16,-1
 60 598 l 1,17,-1
 122 598 l 1,18,-1
 289 717 l 1,19,-1
 204 716 l 1,20,-1
 372 598 l 1,21,-1
 442 598 l 1,22,-1
 442 627 l 1,23,-1
 314 796 l 1,14,-1
EndSplineSet
EndChar

StartChar: circumflex_grave
Encoding: 282 -1 233
Width: 557
GlyphClass: 1
Flags: W
LayerCount: 2
Fore
SplineSet
513 870 m 2,0,1
 503 897 503 897 491 916.5 c 128,-1,2
 479 936 479 936 461.5 947 c 128,-1,3
 444 958 444 958 419 958 c 0,4,5
 387 958 387 958 367 939 c 128,-1,6
 347 920 347 920 347 892 c 0,7,8
 347 874 347 874 355 857.5 c 128,-1,9
 363 841 363 841 377.5 827 c 128,-1,10
 392 813 392 813 410 800 c 2,11,-1
 504 732 l 1,12,-1
 554 732 l 1,13,-1
 554 763 l 1,14,-1
 513 870 l 2,0,1
319 796 m 1,15,-1
 194 796 l 1,16,-1
 65 627 l 1,17,-1
 65 598 l 1,18,-1
 127 598 l 1,19,-1
 294 717 l 1,20,-1
 209 716 l 1,21,-1
 377 598 l 1,22,-1
 447 598 l 1,23,-1
 447 627 l 1,24,-1
 319 796 l 1,15,-1
EndSplineSet
EndChar

StartChar: circumflex_hook
Encoding: 283 -1 234
Width: 525
GlyphClass: 1
Flags: W
LayerCount: 2
Fore
SplineSet
332 870 m 1,0,-1
 432 870 l 1,1,2
 435 892 435 892 445.5 901 c 128,-1,3
 456 910 456 910 478 910 c 0,4,5
 501 910 501 910 510 901 c 128,-1,6
 519 892 519 892 519 872 c 0,7,8
 519 844 519 844 498.5 833 c 128,-1,9
 478 822 478 822 430 820 c 1,10,-1
 430 740 l 1,11,-1
 520 740 l 1,12,-1
 520 812 l 1,13,-1
 474 776 l 1,14,15
 518 778 518 778 552.5 787.5 c 128,-1,16
 587 797 587 797 607.5 818.5 c 128,-1,17
 628 840 628 840 628 876 c 0,18,19
 628 924 628 924 588.5 948.5 c 128,-1,20
 549 973 549 973 482 973 c 0,21,22
 438 973 438 973 405 960 c 128,-1,23
 372 947 372 947 353.5 924.5 c 128,-1,24
 335 902 335 902 332 870 c 1,0,-1
319 796 m 1,25,-1
 194 796 l 1,26,-1
 65 627 l 1,27,-1
 65 598 l 1,28,-1
 127 598 l 1,29,-1
 294 717 l 1,30,-1
 209 716 l 1,31,-1
 377 598 l 1,32,-1
 447 598 l 1,33,-1
 447 627 l 1,34,-1
 319 796 l 1,25,-1
EndSplineSet
EndChar

StartChar: circumflex_tilde
Encoding: 284 -1 235
Width: 500
GlyphClass: 1
Flags: W
LayerCount: 2
Fore
SplineSet
332 823 m 0,0,1
 298 823 298 823 275.5 833.5 c 128,-1,2
 253 844 253 844 237.5 858 c 128,-1,3
 222 872 222 872 208.5 882 c 128,-1,4
 195 892 195 892 179 892 c 0,5,6
 165 892 165 892 156.5 885 c 128,-1,7
 148 878 148 878 143 862.5 c 128,-1,8
 138 847 138 847 133 823 c 1,9,-1
 58 840 l 1,10,11
 67 894 67 894 81.5 928 c 128,-1,12
 96 962 96 962 121 978.5 c 128,-1,13
 146 995 146 995 185 995 c 0,14,15
 216 995 216 995 237.5 984.5 c 128,-1,16
 259 974 259 974 275 960.5 c 128,-1,17
 291 947 291 947 305.5 937 c 128,-1,18
 320 927 320 927 338 927 c 0,19,20
 353 927 353 927 361.5 934.5 c 128,-1,21
 370 942 370 942 376 958 c 128,-1,22
 382 974 382 974 387 998 c 1,23,-1
 461 979 l 1,24,25
 452 924 452 924 435.5 889.5 c 128,-1,26
 419 855 419 855 393.5 839 c 128,-1,27
 368 823 368 823 332 823 c 0,0,1
321 772 m 1,28,-1
 190 772 l 1,29,-1
 64 626 l 1,30,-1
 64 598 l 1,31,-1
 128 598 l 1,32,-1
 294 697 l 1,33,-1
 208 696 l 1,34,-1
 375 598 l 1,35,-1
 447 598 l 1,36,-1
 447 626 l 1,37,-1
 321 772 l 1,28,-1
EndSplineSet
EndChar

StartChar: breve
Encoding: 285 728 236
Width: 500
GlyphClass: 4
Flags: W
AnchorPoint: "Anchor-0" 250 517 mark 0
LayerCount: 2
Fore
SplineSet
252 603 m 256,0,1
 307 603 307 603 346 623 c 128,-1,2
 385 643 385 643 405.5 685 c 128,-1,3
 426 727 426 727 425 791 c 1,4,-1
 340 791 l 1,5,6
 338 761 338 761 329.5 744.5 c 128,-1,7
 321 728 321 728 303.5 721.5 c 128,-1,8
 286 715 286 715 255 715 c 256,9,10
 224 715 224 715 206 721.5 c 128,-1,11
 188 728 188 728 179.5 744.5 c 128,-1,12
 171 761 171 761 168 791 c 1,13,-1
 78 791 l 1,14,15
 79 727 79 727 99 685 c 128,-1,16
 119 643 119 643 158 623 c 128,-1,17
 197 603 197 603 252 603 c 256,0,1
EndSplineSet
EndChar

StartChar: breve_hook
Encoding: 286 -1 237
Width: 508
GlyphClass: 1
Flags: W
LayerCount: 2
Fore
SplineSet
111 918 m 1,0,-1
 209 918 l 1,1,2
 212 940 212 940 222.5 949 c 128,-1,3
 233 958 233 958 256 958 c 256,4,5
 279 958 279 958 288 949.5 c 128,-1,6
 297 941 297 941 297 921 c 0,7,8
 297 902 297 902 288.5 891.5 c 128,-1,9
 280 881 280 881 260.5 876.5 c 128,-1,10
 241 872 241 872 208 870 c 1,11,-1
 208 795 l 1,12,-1
 297 795 l 1,13,-1
 297 864 l 1,14,-1
 253 829 l 1,15,16
 295 831 295 831 329.5 840 c 128,-1,17
 364 849 364 849 384.5 869.5 c 128,-1,18
 405 890 405 890 405 926 c 0,19,20
 405 974 405 974 365.5 997 c 128,-1,21
 326 1020 326 1020 259 1020 c 0,22,23
 215 1020 215 1020 182.5 1007.5 c 128,-1,24
 150 995 150 995 131.5 972.5 c 128,-1,25
 113 950 113 950 111 918 c 1,0,-1
252 603 m 256,26,27
 307 603 307 603 346 622.5 c 128,-1,28
 385 642 385 642 405.5 682 c 128,-1,29
 426 722 426 722 425 784 c 1,30,-1
 340 784 l 1,31,32
 338 755 338 755 329.5 739 c 128,-1,33
 321 723 321 723 303 717 c 128,-1,34
 285 711 285 711 255 711 c 256,35,36
 225 711 225 711 206.5 717 c 128,-1,37
 188 723 188 723 179.5 739 c 128,-1,38
 171 755 171 755 168 784 c 1,39,-1
 78 784 l 1,40,41
 79 722 79 722 99 682 c 128,-1,42
 119 642 119 642 158 622.5 c 128,-1,43
 197 603 197 603 252 603 c 256,26,27
EndSplineSet
EndChar

